<?xml version="1.0" standalone="no"?>
<!DOCTYPE svg PUBLIC "-//W3C//DTD SVG 1.1//EN" "http://www.w3.org/Graphics/SVG/1.1/DTD/svg11.dtd" >
<svg xmlns="http://www.w3.org/2000/svg" xmlns:xlink="http://www.w3.org/1999/xlink" version="1.1">
<metadata>
Created by FontForge 20170731 at Tue Oct 14 01:07:41 2014
 By Aleksey,,,
Copyright (c) 2007 by Josef Tyfa &#38; Frantisek Storm. All rights reserved.
</metadata>
<defs>
<font id="AcademicaBook-Bold" horiz-adv-x="580" >
  <font-face 
    font-family="Academica Book"
    font-weight="700"
    font-stretch="normal"
    units-per-em="1000"
    panose-1="2 0 8 3 0 0 0 2 0 4"
    ascent="800"
    descent="-200"
    x-height="489"
    cap-height="694"
    bbox="-145 -336 1274 969"
    underline-thickness="50"
    underline-position="-200"
    unicode-range="U+0020-FE6B"
  />
<missing-glyph horiz-adv-x="362" 
 />
    <glyph glyph-name="f_f" unicode="ff" horiz-adv-x="665" 
d="M21 489h77q7 66 31 116.5t56 77.5t63 40t60 13q78 0 78 -73q0 -29 -15.5 -48t-43.5 -19q-27 0 -53.5 26t-46.5 26q-39 0 -39 -57q0 -36 15.5 -69t40.5 -33h170q7 66 31 116.5t56 77.5t63 40t60 13q78 0 78 -73q0 -29 -15.5 -48t-43.5 -19q-27 0 -53.5 26t-46.5 26
q-39 0 -39 -57q0 -36 15.5 -69t40.5 -33h108v-52h-127q-1 -61 -1 -158q0 -135 2 -190q1 -31 9 -40.5t38 -12.5l52 -3v-33h-298v33l21 3q32 5 41 13.5t10 39.5q2 65 2 186q0 54 -2 162h-190q-1 -61 -1 -158q0 -135 2 -190q1 -31 9 -41t38 -13l29 -2v-33h-275v33l21 3
q32 5 41 13.5t10 39.5q2 65 2 186q0 54 -2 162h-78v52z" />
    <glyph glyph-name="f_i" unicode="fi" horiz-adv-x="625" 
d="M21 489h77q9 83 54.5 141t104 82t124.5 24q69 0 108 -22t39 -65q0 -32 -18.5 -50t-50.5 -18q-25 0 -40 14t-21.5 31.5t-25 31.5t-48.5 14q-56 0 -83.5 -36t-27.5 -83q0 -26 8.5 -45t22.5 -19h127q106 0 168 20l7 -4q-6 -104 -6 -254q0 -92 2 -164q1 -30 9.5 -38.5
t36.5 -12.5l22 -3v-33h-265v33l19 3q32 5 40.5 12.5t9.5 38.5q3 75 3 143q0 102 -3 152q-2 31 -12 43t-39 12h-138q-1 -61 -1 -158q0 -135 2 -190q1 -30 8.5 -39t34.5 -14l29 -3v-33h-271v33l21 3q32 5 41 13.5t10 39.5q2 65 2 186q0 54 -2 162h-78v52z" />
    <glyph glyph-name="f_l" unicode="fl" horiz-adv-x="632" 
d="M21 489h77q15 111 83 166t165 55q108 0 200 25l6 -3q-8 -113 -8 -396q0 -203 2 -248q1 -30 9 -39t39 -13l22 -3v-33h-269v33l20 3q33 5 41.5 13t9.5 39q2 45 2 237q0 199 -2 248q-3 52 -19 71t-67 19q-121 0 -121 -119q0 -55 33 -55h81v-52h-100q-1 -57 -1 -154
q0 -139 2 -194q1 -30 8.5 -39t34.5 -14l32 -3v-33h-274v33l21 3q32 5 41 13.5t10 39.5q2 65 2 190q0 58 -2 158h-78v52z" />
    <glyph glyph-name="f_f_i" unicode="ffi" horiz-adv-x="941" 
d="M21 489h77q9 66 33 116t56 76.5t63 39t60 12.5q78 0 78 -73q0 -29 -15.5 -48t-43.5 -19q-27 0 -53 26t-46 26q-40 0 -40 -57q0 -36 14.5 -67.5t39.5 -31.5h171q13 122 96 184.5t187 62.5q69 0 108 -22t39 -65q0 -32 -18.5 -50t-50.5 -18q-25 0 -40 14t-21.5 31.5
t-25 31.5t-49.5 14q-55 0 -82.5 -36t-27.5 -83q0 -26 8 -45t22 -19h128q105 0 167 20l8 -4q-6 -104 -6 -254q0 -128 2 -164q1 -29 9 -38t36 -13l23 -3v-33h-265v33l19 3q32 5 40.5 12.5t9.5 38.5q3 75 3 143q0 53 -3 152q-2 31 -12 43t-40 12h-138q-1 -61 -1 -158
q0 -135 2 -190q1 -30 8.5 -39t35.5 -14l28 -3v-33h-270v33l20 3q32 5 41 13.5t10 39.5q2 65 2 186q0 108 -1 162h-191q-1 -61 -1 -158q0 -135 2 -190q1 -31 9 -40.5t38 -13.5l37 -2v-33h-283v33l21 3q32 5 41 13.5t10 39.5q2 65 2 186q0 54 -2 162h-78v52z" />
    <glyph glyph-name="f_f_l" unicode="ffl" horiz-adv-x="951" 
d="M21 489h77q9 66 33 116t56 76.5t63 39t60 12.5q78 0 78 -73q0 -29 -15.5 -48t-43.5 -19q-27 0 -53 26t-46 26q-40 0 -40 -57q0 -36 14.5 -67.5t39.5 -31.5h172q15 111 83 166t165 55q108 0 200 25l6 -3q-8 -113 -8 -396q0 -158 2 -248q1 -29 10 -38.5t37 -13.5l24 -3v-33
h-270v33l20 3q33 5 42 13t10 39q2 60 2 241q0 171 -3 244q-3 52 -19 71t-67 19q-121 0 -121 -119q0 -55 33 -55h81v-52h-100q-1 -57 -1 -154q0 -139 2 -194q1 -30 8.5 -39t34.5 -14l32 -3v-33h-274v33l21 3q32 5 41 13.5t10 39.5q2 65 2 186q0 54 -2 162h-192
q-1 -61 -1 -158q0 -135 2 -190q1 -31 9 -40.5t38 -13.5l37 -2v-33h-283v33l21 3q32 5 41 13.5t10 39.5q2 65 2 186q0 54 -2 162h-78v52z" />
    <glyph glyph-name="f_j" unicode="fj" horiz-adv-x="622" 
d="M21 489h77q9 83 54.5 141t104 82t124.5 24q69 0 108 -22t39 -65q0 -32 -18.5 -50t-50.5 -18q-25 0 -40 14t-21.5 31.5t-25 31.5t-48.5 14q-56 0 -83.5 -36t-27.5 -83q0 -26 8.5 -45t22.5 -19h127q106 0 168 20l7 -4q-6 -104 -6 -279q0 -51 1 -159.5t1 -133.5
q0 -70 -39.5 -107.5t-96.5 -37.5q-74 0 -118 73l23 22q22 -26 52 -26q19 0 33.5 13.5t16.5 38.5q4 55 4 300q0 123 -3 173q-2 31 -12 43t-39 12h-138q-1 -61 -1 -158q0 -135 2 -190q1 -30 8.5 -39t34.5 -14l29 -3v-33h-271v33l21 3q32 5 41 13.5t10 39.5q2 65 2 186
q0 54 -2 162h-78v52z" />
    <glyph glyph-name="f_f_j" unicode="ffj" horiz-adv-x="941" 
d="M21 489h77q9 66 33 116t56 76.5t63 39t60 12.5q78 0 78 -73q0 -29 -15.5 -48t-43.5 -19q-27 0 -53 26t-46 26q-40 0 -40 -57q0 -36 14.5 -67.5t39.5 -31.5h171q13 122 96 184.5t187 62.5q69 0 108 -22t39 -65q0 -32 -18.5 -50t-50.5 -18q-25 0 -40 14t-21.5 31.5
t-25 31.5t-49.5 14q-55 0 -82.5 -36t-27.5 -83q0 -26 8 -45t22 -19h128q105 0 167 20l8 -4q-6 -104 -6 -279q0 -51 1 -159.5t1 -133.5q0 -70 -39.5 -107.5t-96.5 -37.5q-74 0 -118 73l23 22q22 -26 52 -26q19 0 33.5 13.5t16.5 38.5q4 55 4 300q0 74 -3 173q-2 31 -12 43
t-40 12h-138q-1 -61 -1 -158q0 -135 2 -190q1 -30 8.5 -39t35.5 -14l28 -3v-33h-270v33l20 3q32 5 41 13.5t10 39.5q2 65 2 186q0 108 -1 162h-191q-1 -61 -1 -158q0 -135 2 -190q1 -31 9 -40.5t38 -13.5l37 -2v-33h-283v33l21 3q32 5 41 13.5t10 39.5q2 65 2 186
q0 54 -2 162h-78v52z" />
    <glyph glyph-name="f_f_k" unicode="ffk" horiz-adv-x="1264" 
d="M21 489h77q9 66 33 116t56 76.5t63 39t60 12.5q78 0 78 -73q0 -29 -15.5 -48t-43.5 -19q-27 0 -53 26t-46 26q-40 0 -40 -57q0 -36 14.5 -67.5t39.5 -31.5h172q15 111 83 166t165 55q108 0 200 25l6 -3q-8 -113 -8 -396q0 -158 2 -248q1 -30 8 -39t34 -13l22 -3v-33h-263
v33l20 3q33 5 42 13t10 39q2 60 2 241q0 171 -3 244q-3 52 -19 71t-67 19q-121 0 -121 -119q0 -55 33 -55h81v-52h-100q-1 -57 -1 -154q0 -139 2 -194q1 -30 8.5 -39t34.5 -14l32 -3v-33h-274v33l21 3q32 5 41 13.5t10 39.5q2 65 2 186q0 54 -2 162h-192q-1 -61 -1 -158
q0 -135 2 -190q1 -31 9 -40.5t38 -13.5l37 -2v-33h-283v33l21 3q32 5 41 13.5t10 39.5q2 65 2 186q0 54 -2 162h-78v52zM973 489h260v-34l-23 -3q-55 -8 -97 -45q-50 -47 -124 -108q101 -106 199 -218q33 -39 67 -45l19 -3v-33h-283v33l34 3q17 2 17 16q0 28 -179 204
q176 142 176 176q0 16 -33 20l-33 3v34z" />
    <glyph glyph-name="T_h" unicode="Th" horiz-adv-x="1163" 
d="M15 694h525q52 0 120 7.5t97 15.5l5 -3q-7 -121 -7 -300q45 36 100 64t102 28q121 0 121 -124q0 -26 -1 -83.5t-1 -87.5q0 -82 2 -124q1 -31 9 -39t38 -12l23 -3v-33h-260v33l18 3q29 5 37 12.5t9 38.5q2 41 2 121q0 77 -2 122q-2 49 -19 69t-53 20q-52 0 -86.5 -33.5
t-37.5 -97.5q-2 -39 -2 -102t2 -99q2 -30 8.5 -38.5t33.5 -12.5l21 -3v-33h-261v33l20 3q32 5 40.5 13t9.5 39q3 60 3 232q0 164 -4 234q-3 49 -22 63t-81 18q-76 4 -119 4q-5 -197 -5 -293q0 -206 2 -254q1 -31 11.5 -42.5t40.5 -13.5l35 -3v-33h-314v33l32 3q32 3 43 14
t12 42q3 132 3 256q0 160 -3 291l-69 -2q-84 -5 -110 -30.5t-31 -111.5h-37v199z" />
    <glyph glyph-name=".notdef" horiz-adv-x="362" 
 />
    <glyph glyph-name=".null" horiz-adv-x="0" 
 />
    <glyph glyph-name="nonmarkingreturn" horiz-adv-x="333" 
 />
    <glyph glyph-name="space" unicode=" " horiz-adv-x="230" 
 />
    <glyph glyph-name="exclam" unicode="!" horiz-adv-x="363" 
d="M107 760h148l-53 -560h-42zM155 105q19 11 40 6t32 -24t6 -39.5t-24 -31.5q-19 -12 -39.5 -7t-31.5 25q-11 19 -6.5 39.5t23.5 31.5z" />
    <glyph glyph-name="quotedbl" unicode="&#x22;" horiz-adv-x="434" 
d="M187 684l-50 -210h-28l-43 210q-4 20 11 30.5t47 10.5q33 0 50 -11t13 -30zM368 684l-50 -210h-28l-43 210q-4 20 11 30.5t47 10.5q34 0 51 -11t12 -30z" />
    <glyph glyph-name="numbersign" unicode="#" 
d="M175 694h92l-22 -200h123l23 200h92l-23 -200h105l-10 -75h-104l-17 -149h105l-9 -75h-104l-22 -195h-92l22 195h-123l-23 -195h-92l23 195h-105l10 75h103l17 149h-104l10 75h102zM236 419l-17 -149h123l17 149h-123z" />
    <glyph glyph-name="dollar" unicode="$" 
d="M262 790h55v-101q108 -3 172 -50v-163h-35q-5 82 -43.5 122t-93.5 45v-212q94 -49 125 -74q76 -61 76 -150q0 -79 -58 -131.5t-143 -64.5v-99h-55v97q-115 1 -186 43v175h35q7 -86 50 -125.5t101 -42.5v235q-31 17 -44 24t-40 24t-39.5 30.5t-28 33.5t-22 43.5t-6.5 50.5
q0 71 49.5 122.5t130.5 63.5v104zM317 263v-199q36 8 57.5 31.5t21.5 60.5q0 58 -79 107zM262 462v175q-63 -22 -63 -85q0 -49 63 -90z" />
    <glyph glyph-name="percent" unicode="%" horiz-adv-x="866" 
d="M644 703l57 -33l-491 -694l-57 33zM668 424q74 0 111 -61t37 -157q0 -101 -42 -159.5t-117 -58.5q-76 0 -112.5 58t-36.5 160q0 96 44 157t116 61zM663 331q-49 0 -78.5 -33.5t-29.5 -91.5t28.5 -92t79.5 -34q48 0 76.5 33t28.5 93q0 57 -25 91t-80 34zM209 710
q74 0 111 -60.5t37 -157.5q0 -100 -42 -158.5t-117 -58.5q-76 0 -112.5 58t-36.5 159q0 96 44 157t116 61zM204 617q-49 0 -78.5 -33.5t-29.5 -91.5t28.5 -91.5t79.5 -33.5q48 0 76.5 32.5t28.5 92.5q0 125 -105 125z" />
    <glyph glyph-name="ampersand" unicode="&#x26;" horiz-adv-x="827" 
d="M563 409h234v-33l-28 -3q-16 -2 -25 -12.5t-23 -41.5q-53 -121 -133 -202q68 -47 128 -47q39 0 74 33l24 -27q-76 -90 -161 -90q-88 0 -171 56q-87 -57 -222 -57q-108 0 -166.5 51t-58.5 132q0 69 45 120.5t129 79.5q-41 84 -41 149q0 90 61 141.5t158 51.5
q77 0 127.5 -38.5t50.5 -102.5q0 -137 -206 -198q78 -135 192 -227q44 46 65 99t21 99q0 31 -38 32l-36 2v33zM339 410q62 23 92.5 64t30.5 91q0 44 -22.5 70t-57.5 26q-41 0 -63.5 -27.5t-22.5 -78.5q0 -59 43 -145zM443 71q-140 111 -216 257q-65 -32 -65 -122
q0 -67 41.5 -117t114.5 -50q64 0 125 32z" />
    <glyph glyph-name="quotesingle" unicode="'" horiz-adv-x="253" 
d="M187 684l-50 -210h-28l-43 210q-4 20 11 30.5t47 10.5q33 0 50 -11t13 -30z" />
    <glyph glyph-name="parenleft" unicode="(" horiz-adv-x="399" 
d="M375 750l14 -32q-103 -50 -148 -160t-45 -289q0 -373 193 -464l-15 -32q-139 47 -222.5 178t-83.5 310q0 180 81.5 311.5t225.5 177.5z" />
    <glyph glyph-name="parenright" unicode=")" horiz-adv-x="399" 
d="M8 718l15 32q139 -47 222.5 -178t83.5 -310q0 -180 -81.5 -311.5t-225.5 -177.5l-14 32q103 50 148 159.5t45 288.5q0 374 -193 465z" />
    <glyph glyph-name="asterisk" unicode="*" horiz-adv-x="407" 
d="M161 694l42 -107l41 107q8 24 33 24q20 0 38.5 -16t18.5 -34q0 -17 -15 -28l-89 -74l120 -7q18 -1 27 -12t9 -28q0 -21 -12.5 -38t-30.5 -17q-10 0 -21 7l-103 63l33 -116q2 -8 2 -13q0 -18 -15.5 -28.5t-35.5 -10.5q-19 0 -32.5 10t-13.5 28q0 9 2 15l28 115l-102 -63
q-11 -7 -22 -7q-18 0 -30 17.5t-12 38.5q0 38 36 39l118 7l-88 74q-16 13 -16 28q0 19 18.5 34.5t38.5 15.5q25 0 33 -24z" />
    <glyph glyph-name="plus" unicode="+" horiz-adv-x="650" 
d="M278 538h93v-228h229v-93h-229v-229h-93v229h-228v93h228v228z" />
    <glyph glyph-name="comma" unicode="," horiz-adv-x="269" 
d="M73 -197l-13 33q48 15 76.5 50t28.5 72q0 48 -45 48q-31 0 -48.5 18t-17.5 47t20.5 50.5t54.5 21.5q51 0 80 -37.5t29 -98.5q0 -67 -43 -124t-122 -80z" />
    <glyph glyph-name="hyphen" unicode="-" horiz-adv-x="291" 
d="M43 326h207v-76h-207v76z" />
    <glyph glyph-name="period" unicode="." horiz-adv-x="267" 
d="M133 145q34 0 56 -22t22 -56q0 -33 -22 -55.5t-56 -22.5q-33 0 -55 22.5t-22 55.5q0 34 22 56t55 22z" />
    <glyph glyph-name="slash" unicode="/" horiz-adv-x="490" 
d="M393 794h87l-383 -866h-87z" />
    <glyph glyph-name="zero" unicode="0" 
d="M301 710q119 0 179 -100t60 -261q0 -168 -68.5 -266.5t-189.5 -98.5q-123 0 -182.5 97.5t-59.5 267.5q0 161 71.5 261t189.5 100zM291 572q-86 0 -139.5 -60t-53.5 -163q0 -104 51 -165.5t142 -61.5q86 0 138.5 59.5t52.5 167.5q0 100 -46.5 161.5t-144.5 61.5z" />
    <glyph glyph-name="one" unicode="1" 
d="M67 515v51q186 80 325 152l11 -5q-12 -149 -12 -362q0 -211 2 -259q1 -31 11.5 -43t40.5 -13l65 -3v-33h-382v33l70 3q32 3 43 14t12 42q3 132 3 253q0 138 -3 246z" />
    <glyph glyph-name="two" unicode="2" 
d="M103 461h-34q14 119 78.5 184t162.5 65q99 0 149 -53t50 -126q0 -44 -14.5 -84t-46 -81t-61.5 -73.5t-81 -85.5t-85 -92q57 -3 130 -3q82 0 107.5 15.5t42.5 75.5h34l-36 -203h-443l-4 50q153 126 242 231t89 191q0 57 -31.5 92.5t-94.5 35.5q-126 0 -154 -139z" />
    <glyph glyph-name="three" unicode="3" 
d="M105 487h-35q7 111 68 167t159 56q96 0 152 -47t56 -122q0 -57 -38.5 -100.5t-98.5 -60.5q72 -15 117.5 -65.5t45.5 -117.5q0 -94 -70 -154t-174 -60t-164.5 53t-62.5 156h35q4 -55 46.5 -91t105.5 -36q65 0 102.5 36t37.5 94q0 140 -172 140v46q160 0 160 122
q0 50 -32.5 82.5t-94.5 32.5q-61 0 -97.5 -33.5t-45.5 -97.5z" />
    <glyph glyph-name="four" unicode="4" 
d="M98 263h235v282q-119 -133 -235 -282zM387 709h87q-5 -248 -5 -446h78v-80h-78q0 -121 2 -183h-143q2 62 2 183h-291v111q155 168 348 415z" />
    <glyph glyph-name="five" unicode="5" 
d="M159 571l-25 -176q70 65 169 65q103 0 162 -60t59 -157q0 -117 -67 -188.5t-186 -71.5q-94 0 -148.5 51.5t-59.5 148.5h36q3 -52 42.5 -86.5t93.5 -34.5q65 0 105 44.5t40 121.5q0 72 -32.5 114.5t-98.5 42.5q-91 0 -134 -80h-44l45 398q158 -14 271 -14q49 0 73 7t41 28
h34q-24 -88 -60.5 -122t-114.5 -34q-104 0 -201 3z" />
    <glyph glyph-name="six" unicode="6" 
d="M286 400q-53 0 -81.5 -40.5t-28.5 -110.5q0 -102 33.5 -157t92.5 -55q105 0 105 170q0 90 -30.5 141.5t-90.5 51.5zM464 712l3 -42q-125 -9 -201.5 -86.5t-89.5 -188.5q80 87 176 87q94 0 143.5 -64.5t49.5 -162.5q0 -110 -68.5 -191t-189.5 -81q-115 0 -182.5 82.5
t-67.5 225.5q0 184 112 302.5t315 118.5z" />
    <glyph glyph-name="seven" unicode="7" 
d="M81 694h456l10 -57q-117 -237 -259 -637h-142q129 265 307 574q-78 4 -258 4q-56 0 -81.5 -27.5t-37.5 -95.5h-34z" />
    <glyph glyph-name="eight" unicode="8" 
d="M182 344q-60 24 -94 69.5t-34 104.5q0 84 66 138t178 54q101 0 161.5 -47t60.5 -115q0 -101 -130 -153q72 -26 113.5 -76.5t41.5 -119.5q0 -91 -71 -153.5t-195 -62.5q-116 0 -180 51t-64 126q0 57 38 105t109 79zM315 420q95 33 95 133q0 49 -30.5 80.5t-86.5 31.5
q-57 0 -86 -32.5t-29 -77.5q0 -46 33 -79t104 -56zM253 315q-51 -17 -76.5 -56t-25.5 -91q0 -62 34 -100.5t97 -38.5q64 0 98 36t34 90q0 107 -161 160z" />
    <glyph glyph-name="nine" unicode="9" 
d="M277 658q-50 0 -78.5 -40.5t-28.5 -124.5q0 -89 30 -139.5t90 -50.5q54 0 82.5 39t28.5 114q0 99 -33 150.5t-91 51.5zM114 -16l-3 42q125 9 202.5 89t89.5 194q-73 -88 -172 -88q-95 0 -146.5 64t-51.5 161q0 111 71.5 189t186.5 78t181.5 -81.5t66.5 -220.5
q0 -189 -111 -308t-314 -119z" />
    <glyph glyph-name="colon" unicode=":" horiz-adv-x="267" 
d="M133 145q34 0 56 -22t22 -56q0 -33 -22 -55.5t-56 -22.5q-33 0 -55 22.5t-22 55.5q0 34 22 56t55 22zM133 514q34 0 56 -22t22 -56t-22 -56t-56 -22q-33 0 -55 22t-22 56t22 56t55 22z" />
    <glyph glyph-name="semicolon" unicode=";" horiz-adv-x="285" 
d="M135 514q34 0 56 -22t22 -56t-22 -56t-56 -22t-56 22t-22 56t22 56t56 22zM73 -197l-13 33q48 15 76.5 50t28.5 72q0 48 -45 48q-31 0 -48.5 18t-17.5 47t20.5 50.5t54.5 21.5q51 0 80 -37.5t29 -98.5q0 -67 -43 -124t-122 -80z" />
    <glyph glyph-name="less" unicode="&#x3c;" horiz-adv-x="601" 
d="M50 338l501 232v-105l-398 -181l398 -181v-106l-501 232v109z" />
    <glyph glyph-name="equal" unicode="=" horiz-adv-x="650" 
d="M50 445h550v-93h-550v93zM50 225h550v-93h-550v93z" />
    <glyph glyph-name="greater" unicode="&#x3e;" horiz-adv-x="601" 
d="M50 570l501 -232v-109l-501 -232v105l398 181l-398 181v106z" />
    <glyph glyph-name="question" unicode="?" horiz-adv-x="473" 
d="M61 497h-33q5 103 66.5 158t150.5 55q85 0 136.5 -47t51.5 -123q0 -51 -22 -95t-54 -74.5t-64 -57.5t-56 -55t-26 -56h-39q0 40 19.5 79t43 67t43 72t19.5 93t-30 78.5t-80 29.5q-51 0 -85.5 -32t-40.5 -92zM172 105q19 11 40 6t32 -24t6 -39.5t-24 -31.5
q-19 -12 -39.5 -7t-31.5 25q-11 19 -6.5 39.5t23.5 31.5z" />
    <glyph glyph-name="at" unicode="@" horiz-adv-x="918" 
d="M515 353q-60 -8 -104 -42.5t-44 -80.5q0 -60 53 -60q38 0 64 30.5t30 90.5q1 21 1 62zM797 474l41 3q40 -113 40 -209q0 -93 -40.5 -170.5t-107 -127t-150.5 -76.5t-173 -27q-174 0 -270.5 85t-96.5 245q0 112 51 209.5t149.5 159t223.5 61.5q82 0 129.5 -41t47.5 -111
q0 -28 -4 -106.5t-4 -142.5q0 -51 40 -51q24 0 46 20l19 -22q-54 -87 -127 -87q-44 0 -63.5 24.5t-21.5 77.5q-50 -54 -90.5 -78.5t-88.5 -24.5q-50 0 -77.5 26.5t-27.5 78.5q0 94 141 159q31 14 76 32t56 23q0 48 -1 67q-3 90 -86 90q-122 0 -202.5 -96.5t-80.5 -241.5
q0 -139 82.5 -213.5t224.5 -74.5q63 0 124.5 21.5t116 63.5t88 116t33.5 169q0 83 -17 169z" />
    <glyph glyph-name="A" unicode="A" horiz-adv-x="683" 
d="M294 530q-31 -75 -90 -231h178q-33 89 -88 231zM298 702h72q91 -248 254 -620q12 -27 22 -36t32 -11l24 -3v-32h-307v32l27 3q42 4 42 30q0 18 -62 181h-217q-59 -157 -59 -178q0 -29 40 -33l29 -3v-32h-225v32l25 3q23 2 34.5 13.5t26.5 45.5q103 236 242 608z" />
    <glyph glyph-name="B" unicode="B" horiz-adv-x="689" 
d="M25 694h329q137 0 196 -47t59 -118q0 -55 -43 -96t-107 -53q78 -9 131.5 -62t53.5 -121q0 -84 -64.5 -140.5t-209.5 -56.5h-345v33l32 3q32 3 43 14t12 42q3 132 3 256q0 123 -3 252q-1 31 -12 42t-43 14l-32 3v35zM250 347q0 -192 2 -239q2 -37 20.5 -51.5t71.5 -14.5
q75 0 112.5 38.5t37.5 107.5q0 76 -37 118t-144 42q-51 0 -63 -1zM256 641q-4 -76 -6 -243q31 -7 77 -7q67 0 104.5 37.5t37.5 89.5q0 58 -35.5 93t-114.5 35q-35 0 -63 -5z" />
    <glyph glyph-name="C" unicode="C" horiz-adv-x="707" 
d="M632 666l14 -188h-35q-10 87 -66 134t-130 47q-92 0 -157.5 -83.5t-65.5 -226.5q0 -147 65.5 -229.5t157.5 -82.5q74 0 130 47t66 133h35l-14 -185q-110 -48 -230 -48q-164 0 -264.5 90t-100.5 257q0 163 107 271t265 108q112 0 223 -44z" />
    <glyph glyph-name="D" unicode="D" horiz-adv-x="788" 
d="M25 694h305q212 0 316.5 -87.5t104.5 -240.5q0 -166 -115.5 -266t-317.5 -100h-293v33l32 3q32 3 43 14t12 42q3 132 3 258q0 121 -3 250q-1 31 -12 42t-43 14l-32 3v35zM256 637q-6 -201 -6 -286q0 -107 2 -239q1 -37 18.5 -48.5t71.5 -11.5q110 0 184.5 82t74.5 223
q0 149 -66 217t-210 68q-41 0 -69 -5z" />
    <glyph glyph-name="E" unicode="E" horiz-adv-x="642" 
d="M25 694h545v-202h-34q-5 86 -35 117.5t-110 31.5q-95 0 -135 -2q-4 -73 -6 -249h74q53 0 71.5 16.5t21.5 75.5h37v-231h-37q-3 55 -21.5 73.5t-69.5 18.5h-76q0 -187 2 -238q1 -29 30 -40t112 -11q78 0 108 28.5t34 112.5h34v-195h-545v33l32 3q32 3 43 14t12 42
q3 132 3 256q0 125 -3 254q-1 31 -12 41.5t-43 12.5l-32 3v35z" />
    <glyph glyph-name="F" unicode="F" horiz-adv-x="578" 
d="M25 694h545v-209h-34q-4 91 -34.5 123.5t-110.5 32.5q-95 0 -135 -2q-4 -81 -6 -265h86q53 0 70.5 16.5t20.5 74.5h37v-234h-37q-3 57 -20.5 76.5t-68.5 19.5h-88q0 -164 2 -235q1 -31 11.5 -43t40.5 -13l67 -3v-33h-346v33l32 3q32 3 43 14t12 42q3 132 3 256
q0 123 -3 252q-1 31 -12 42t-43 14l-32 3v35z" />
    <glyph glyph-name="G" unicode="G" horiz-adv-x="780" 
d="M641 666l14 -188h-35q-10 87 -66 134t-130 47q-98 0 -165 -81t-67 -229t66.5 -230.5t162.5 -82.5q113 0 113 61v79q0 52 -17.5 70t-79.5 22v34h315v-36q-48 -5 -62.5 -21t-14.5 -67v-138q-121 -56 -273 -56q-164 0 -264.5 90t-100.5 257q0 166 110 272.5t271 106.5
q112 0 223 -44z" />
    <glyph glyph-name="H" unicode="H" horiz-adv-x="817" 
d="M25 694h318v-35l-35 -3q-30 -2 -40 -13.5t-12 -42.5q-5 -154 -6 -206h313q0 100 -3 206q-1 31 -12 42t-43 14l-32 3v35h319v-35l-35 -3q-30 -2 -40 -13.5t-12 -42.5q-6 -144 -6 -254q0 -206 2 -254q1 -31 11.5 -42.5t40.5 -13.5l35 -3v-33h-315v33l32 3q32 3 43 14t12 42
q3 128 3 247h-313q0 -200 2 -247q1 -31 11.5 -42.5t40.5 -13.5l35 -3v-33h-314v33l32 3q32 3 43 14t12 42q3 132 3 256q0 123 -3 252q-1 31 -12 42t-43 14l-32 3v35z" />
    <glyph glyph-name="I" unicode="I" horiz-adv-x="368" 
d="M25 694h318v-35l-35 -3q-30 -2 -40 -13.5t-12 -42.5q-6 -144 -6 -254q0 -206 2 -254q1 -31 11.5 -42.5t40.5 -13.5l35 -3v-33h-314v33l32 3q32 3 43 14t12 42q3 132 3 256q0 123 -3 252q-1 31 -12 42t-43 14l-32 3v35z" />
    <glyph glyph-name="J" unicode="J" horiz-adv-x="388" 
d="M50 694h318v-35l-35 -3q-30 -2 -40 -13.5t-12 -42.5q-6 -148 -6 -261q0 -47 1 -178t1 -156q0 -80 -52.5 -128t-124.5 -48q-78 0 -131 56l21 28q25 -20 58 -20q38 0 63 25.5t26 83.5q3 136 3 339q0 130 -3 259q-1 31 -12 42t-43 14l-32 3v35z" />
    <glyph glyph-name="K" unicode="K" horiz-adv-x="784" 
d="M464 694h277v-35l-27 -3q-24 -3 -51 -20.5t-89 -70.5q-23 -19 -60.5 -51t-67 -57.5t-55.5 -46.5q139 -144 298 -329q33 -40 73 -45l24 -3v-33h-353v33l34 3q39 3 39 31q0 13 -17 35q-108 129 -236 257q147 121 256 227q23 22 23 38q0 27 -45 32l-23 3v35zM25 694h318v-35
l-35 -3q-30 -2 -40 -13.5t-12 -42.5q-6 -146 -6 -254q0 -206 2 -254q1 -31 11.5 -42.5t40.5 -13.5l35 -3v-33h-314v33l32 3q32 3 43 14t12 42q3 132 3 256q0 123 -3 252q-1 31 -12 42t-43 14l-32 3v35z" />
    <glyph glyph-name="L" unicode="L" horiz-adv-x="625" 
d="M25 694h321v-35l-38 -3q-30 -2 -40 -13.5t-12 -42.5q-6 -144 -6 -254q0 -183 2 -238q1 -28 35 -39t118 -11q85 0 124.5 35t46.5 138h35v-231h-586v33l32 3q32 3 43 14t12 42q3 132 3 256q0 123 -3 252q-1 31 -12 42t-43 14l-32 3v35z" />
    <glyph glyph-name="M" unicode="M" horiz-adv-x="962" 
d="M36 694h270q35 -89 101.5 -252.5t83.5 -207.5q100 237 184 460h256v-35l-35 -3q-30 -2 -40.5 -13.5t-11.5 -42.5q-1 -65 2 -256.5t6 -251.5q2 -31 12 -42.5t40 -13.5l35 -3v-33h-314v33l32 3q32 3 43.5 14t11.5 42q0 233 -10 520q-136 -336 -239 -606h-31
q-109 277 -248 606q-9 -324 -9 -520q0 -31 11 -42.5t41 -13.5l35 -3v-33h-239v33l32 3q32 3 43 14t12 42q13 379 13 508q0 31 -11.5 42t-43.5 14l-32 3v35z" />
    <glyph glyph-name="N" unicode="N" horiz-adv-x="793" 
d="M25 694h276q100 -163 156 -249q132 -199 158 -237q2 106 2 165q0 181 -2 227q-1 31 -11.5 42.5t-40.5 13.5l-35 3v35h240v-35l-32 -3q-32 -3 -43 -14t-12 -42q-3 -132 -3 -355v-252h-88q-18 28 -221 335q-15 22 -83 125.5t-105 157.5q-5 -138 -5 -265q0 -206 2 -254
q1 -31 11.5 -42.5t40.5 -13.5l35 -3v-33h-240v33l32 3q32 3 43 14t12 42q3 132 3 256q0 123 -3 252q-1 31 -12 42t-43 14l-32 3v35z" />
    <glyph glyph-name="O" unicode="O" horiz-adv-x="801" 
d="M37 347q0 151 108.5 257t272.5 106q103 0 183.5 -52.5t121 -134.5t40.5 -176q0 -151 -107 -257t-267 -106q-155 0 -253.5 104.5t-98.5 258.5zM403 659q-91 0 -150 -88t-59 -224q0 -134 58 -223.5t151 -89.5q91 0 150 86.5t59 226.5q0 130 -55 221t-154 91z" />
    <glyph glyph-name="P" unicode="P" horiz-adv-x="666" 
d="M25 694h329q144 0 215.5 -57t71.5 -146q0 -88 -70 -148.5t-193 -60.5q-60 0 -128 14q0 -116 2 -204q1 -31 11.5 -43t40.5 -13l57 -3v-33h-336v33l32 3q32 3 43 14t12 42q3 132 3 255q0 124 -3 253q-1 31 -12 42t-43 14l-32 3v35zM255 643q-5 -163 -5 -296q45 -10 81 -10
q79 0 120 41.5t41 110.5q0 72 -41 115.5t-133 43.5q-37 0 -63 -5z" />
    <glyph glyph-name="Q" unicode="Q" horiz-adv-x="801" 
d="M37 347q0 151 108.5 257t272.5 106q103 0 183.5 -52.5t121 -134.5t40.5 -176q0 -148 -104.5 -253t-260.5 -109q38 -6 123 -49t137 -43q35 0 54.5 16.5t28.5 52.5l31 -5q-9 -83 -45 -129t-100 -46q-44 0 -97 29t-104.5 58t-92.5 29q-25 0 -38.5 -9.5t-27.5 -40.5l-33 11
q44 115 126 126q-144 10 -233.5 112.5t-89.5 249.5zM403 659q-91 0 -150 -88t-59 -224q0 -134 58 -223.5t151 -89.5q91 0 150 86.5t59 226.5q0 130 -55 221t-154 91z" />
    <glyph glyph-name="R" unicode="R" horiz-adv-x="739" 
d="M24 694h330q141 0 211 -49.5t70 -132.5q0 -72 -50 -118.5t-137 -57.5q55 -20 95 -74q22 -29 62.5 -94.5t55.5 -85.5q19 -26 31.5 -34.5t32.5 -11.5l20 -3v-33h-204q-68 138 -136 238q-50 75 -96 78q-29 2 -59 6q0 -186 2 -230q1 -31 11.5 -42.5t40.5 -13.5l35 -3v-33
h-315v33l32 3q32 3 43 14t12 42q3 132 3 256q0 123 -3 252q-1 31 -12 42t-43 14l-32 3v35zM255 643q-5 -103 -5 -272q44 -6 80 -6q72 0 112.5 37t40.5 101q0 65 -40 105t-125 40q-38 0 -63 -5z" />
    <glyph glyph-name="S" unicode="S" horiz-adv-x="602" 
d="M313 710q126 0 195 -53v-173h-34q-6 95 -50.5 138t-108.5 43q-45 0 -78 -27t-33 -74q0 -34 25 -63.5t62 -49.5t81 -46t81 -52t62 -68t25 -93q0 -96 -77.5 -152.5t-184.5 -56.5q-131 0 -210 45v185h35q8 -97 56.5 -139t113.5 -42q57 0 94.5 28t37.5 79q0 31 -18.5 58.5
t-47.5 48t-64 40.5t-70.5 42t-64.5 46.5t-47.5 59.5t-18.5 76q0 87 67 143.5t172 56.5z" />
    <glyph glyph-name="T" unicode="T" horiz-adv-x="654" 
d="M8 694h639v-199h-36q-4 83 -32 110t-110 32q-48 2 -71 2q-5 -197 -5 -293q0 -206 2 -254q1 -31 11.5 -42.5t40.5 -13.5l35 -3v-33h-314v33l32 3q32 3 43 14t12 42q3 132 3 256q0 160 -3 291l-69 -2q-84 -5 -110 -30.5t-31 -111.5h-37v199z" />
    <glyph glyph-name="U" unicode="U" horiz-adv-x="759" 
d="M19 694h319v-35l-35 -3q-30 -2 -40 -13.5t-12 -42.5q-7 -170 -7 -306v-60q0 -89 51.5 -133t126.5 -44q70 0 121 41t51 122v115q0 179 -2 265q-1 31 -12 42t-43 14l-32 3v35h243v-35l-35 -3q-30 -2 -40 -13.5t-12 -42.5q-6 -146 -6 -256v-145q0 -70 -40 -120.5t-99.5 -73
t-128.5 -22.5q-72 0 -134 23.5t-103.5 74t-41.5 118.5q0 24 0.5 71.5t0.5 75.5q0 125 -3 254q-1 31 -12 42t-43 14l-32 3v35z" />
    <glyph glyph-name="V" unicode="V" horiz-adv-x="664" 
d="M-32 694h307v-34l-27 -2q-47 -5 -40 -41q17 -59 167 -450q128 315 163 442q5 23 -3 34.5t-34 14.5l-29 2v34h227v-34l-25 -2q-23 -3 -34.5 -14.5t-26.5 -45.5q-102 -231 -242 -607h-70q-81 221 -254 619q-12 26 -22 35.5t-32 12.5l-25 2v34z" />
    <glyph glyph-name="W" unicode="W" horiz-adv-x="1016" 
d="M-2 694h287v-34l-28 -2q-44 -4 -38 -41q33 -130 126 -443q79 222 163 520h63q75 -246 175 -520q85 269 122 433q5 26 -5 37t-37 14l-26 2v34h220v-34l-26 -2q-19 -2 -30.5 -14.5t-23.5 -46.5q-57 -160 -188 -606h-80q-53 166 -169 479q-50 -139 -157 -479h-80
q-89 310 -199 619q-9 26 -18 35.5t-29 12.5l-22 2v34z" />
    <glyph glyph-name="X" unicode="X" horiz-adv-x="786" 
d="M22 694h339v-35l-23 -3q-44 -6 -44 -28q0 -18 86 -143q26 -39 42 -62q100 111 130 149t30 54q0 24 -46 30l-23 3v35h254v-35l-23 -3q-25 -4 -46.5 -20.5t-57.5 -56.5q-31 -34 -93 -102.5t-92 -101.5q103 -147 189 -262q30 -41 52.5 -57t51.5 -20l23 -3v-33h-343v33l23 3
q44 6 44 27q0 14 -25 53t-106 156q-107 -123 -134.5 -157t-27.5 -50q0 -23 46 -29l23 -3v-33h-257v33l23 3q26 4 48.5 20.5t58.5 56.5q69 76 187 209q-110 155 -185 257q-29 40 -51.5 56.5t-49.5 20.5l-23 3v35z" />
    <glyph glyph-name="Y" unicode="Y" horiz-adv-x="708" 
d="M-34 694h332v-35l-23 -3q-44 -6 -44 -27q0 -16 16 -44q14 -23 141 -226q82 113 150 224q16 26 16 41q0 23 -48 32l-23 4v34h245v-35l-23 -3q-26 -4 -45.5 -20t-49.5 -58q-126 -176 -194 -281q0 -152 2 -205q1 -31 11.5 -42.5t40.5 -13.5l35 -3v-33h-315v33l32 3
q32 3 43 14t12 42q3 99 3 203q-98 129 -192 284q-25 41 -47.5 57t-51.5 20l-23 3v35z" />
    <glyph glyph-name="Z" unicode="Z" horiz-adv-x="680" 
d="M80 694h553v-46q-151 -177 -429 -528q104 -3 250 -3q91 0 116.5 21t32.5 98h40l-13 -236h-594v46q200 230 439 528q-62 3 -257 3q-62 0 -82.5 -20.5t-26.5 -87.5h-40z" />
    <glyph glyph-name="bracketleft" unicode="[" horiz-adv-x="380" 
d="M100 746h268v-39h-151v-890h151v-39h-268v968z" />
    <glyph glyph-name="backslash" unicode="\" horiz-adv-x="490" 
d="M10 794h87l383 -866h-87z" />
    <glyph glyph-name="bracketright" unicode="]" horiz-adv-x="380" 
d="M12 746h268v-968h-268v39h151v890h-151v39z" />
    <glyph glyph-name="asciicircum" unicode="^" horiz-adv-x="533" 
d="M215 725h102l160 -379h-87l-124 303l-124 -303h-87z" />
    <glyph glyph-name="underscore" unicode="_" horiz-adv-x="573" 
d="M43 -60h487v-73h-487v73z" />
    <glyph glyph-name="grave" unicode="`" horiz-adv-x="338" 
d="M71 730h106l106 -176l-33 -13l-185 164q-11 8 -8.5 16.5t14.5 8.5z" />
    <glyph glyph-name="a" unicode="a" horiz-adv-x="536" 
d="M314 257q-66 -11 -107.5 -44.5t-41.5 -82.5q0 -56 53 -56q39 0 65 30t30 90q1 22 1 63zM518 99l19 -22q-54 -87 -127 -87q-44 0 -63.5 24.5t-21.5 77.5q-50 -54 -90.5 -78.5t-88.5 -24.5q-49 0 -76.5 27t-27.5 76q0 97 140 161q31 14 76 32t56 23q0 48 -1 67
q-2 41 -20 61t-57 20q-32 0 -52 -15.5t-20 -36.5q0 -7 5.5 -22t5.5 -29q0 -22 -18 -38t-46 -16q-25 0 -40.5 15.5t-15.5 43.5q0 53 72 100.5t168 47.5q72 0 108.5 -33.5t36.5 -93.5q0 -31 -4 -116t-4 -133q0 -51 40 -51q24 0 46 20z" />
    <glyph glyph-name="b" unicode="b" horiz-adv-x="607" 
d="M15 660v34q105 10 198 42l7 -3q-6 -123 -8 -308q89 81 176 81q82 0 132 -69t50 -168q0 -52 -16.5 -101.5t-47 -91t-81.5 -66.5t-114 -25q-51 0 -100.5 21.5t-60.5 21.5q-24 0 -33 -36l-46 5q18 57 18 316q0 188 -4 292q-1 31 -9.5 40t-42.5 13zM318 430q-55 0 -86.5 -55
t-31.5 -152q0 -102 29 -147t87 -45q52 0 85.5 53t33.5 148q0 89 -29.5 143.5t-87.5 54.5z" />
    <glyph glyph-name="c" unicode="c" horiz-adv-x="477" 
d="M415 182h38q-14 -100 -68.5 -149t-140.5 -49q-92 0 -150.5 71.5t-58.5 173.5q0 115 71.5 196t183.5 81q84 0 125 -33t41 -80q0 -32 -18 -49.5t-44 -17.5q-56 0 -56 61q0 38 -13.5 55t-51.5 17q-50 0 -81 -46.5t-31 -123.5q0 -91 36 -146t99 -55q99 0 119 94z" />
    <glyph glyph-name="d" unicode="d" horiz-adv-x="610" 
d="M314 694q113 11 209 42l5 -3q-8 -128 -8 -415q0 -143 2 -198q1 -31 8.5 -40t37.5 -13l24 -3v-33q-98 -13 -178 -45l-6 3v93q-86 -98 -189 -98q-82 0 -132 69t-50 169q0 112 70 198t189 86q42 0 100 -30q0 59 -2 129q-2 31 -11 40.5t-42 12.5l-27 2v34zM291 459
q-51 0 -85 -52.5t-34 -148.5q0 -89 29.5 -144t87.5 -55q54 0 86 56t32 152q0 102 -29 147t-87 45z" />
    <glyph glyph-name="e" unicode="e" horiz-adv-x="503" 
d="M161 314l163 2q16 2 23 10.5t7 29.5q0 46 -21 75.5t-64 29.5q-42 0 -72.5 -36t-35.5 -111zM468 266h-308q1 -86 41 -131.5t105 -45.5q44 0 75.5 22t42.5 61h37q-34 -188 -208 -188q-98 0 -156.5 72.5t-58.5 178.5q0 115 70.5 193t175.5 78q53 0 91 -18.5t58 -49t28.5 -62
t8.5 -64.5q0 -12 -2 -46z" />
    <glyph glyph-name="f" unicode="f" horiz-adv-x="349" 
d="M21 489h77q9 66 33 116t56 76.5t63 39t60 12.5q78 0 78 -73q0 -29 -15.5 -48t-43.5 -19q-27 0 -53 26t-46 26q-40 0 -40 -57q0 -36 14.5 -67.5t39.5 -31.5h108v-52h-127q-1 -61 -1 -158q0 -135 2 -190q1 -31 9 -40.5t38 -12.5l52 -3v-33h-298v33l21 3q32 5 41 13.5
t10 39.5q2 65 2 186q0 54 -2 162h-78v52z" />
    <glyph glyph-name="g" unicode="g" horiz-adv-x="554" 
d="M406 489h138v-52h-118q49 -38 49 -114q0 -72 -59 -117t-152 -45q-15 0 -36 3t-29 3q-22 0 -38 -13t-16 -30q0 -16 13 -22.5t49 -6.5q167 0 222 -12q102 -23 102 -123q0 -78 -76.5 -126t-206.5 -48q-97 0 -156.5 30t-59.5 83q0 31 26.5 60t59.5 40q-77 16 -77 69
q0 66 108 126q-91 44 -91 144q0 70 54.5 118.5t141.5 48.5q34 0 79.5 -8t72.5 -8zM264 461q-36 0 -55.5 -31.5t-19.5 -86.5q0 -64 23 -100t63 -36q70 0 70 119q0 135 -81 135zM192 -14q-23 0 -40 -19t-17 -51q0 -39 35.5 -61t96.5 -22q73 0 112.5 27t39.5 67q0 44 -53 52
q-55 7 -174 7z" />
    <glyph glyph-name="h" unicode="h" horiz-adv-x="628" 
d="M22 660v34q110 13 200 42l6 -3q-6 -93 -8 -319q44 36 99.5 64t102.5 28q121 0 121 -124q0 -26 -1 -83.5t-1 -87.5q0 -82 2 -124q1 -31 9 -39t38 -12l23 -3v-33h-260v33l19 3q29 5 36.5 12.5t8.5 38.5q3 61 3 121q0 54 -3 122q-2 49 -19 69t-52 20q-52 0 -86.5 -33.5
t-38.5 -97.5q-2 -39 -2 -101q0 -64 2 -100q2 -30 9 -38.5t34 -12.5l20 -3v-33h-261v33l20 3q32 5 41 13t10 39q3 90 3 241q0 120 -4 276q-2 31 -10.5 40t-42.5 13z" />
    <glyph glyph-name="i" unicode="i" horiz-adv-x="309" 
d="M29 432v35q121 18 194 42l8 -4q-6 -104 -6 -254q0 -128 2 -164q1 -29 9 -38t36 -13l23 -3v-33h-266v33l20 3q32 5 40.5 12.5t9.5 38.5q3 75 3 147q0 46 -3 145q-2 31 -10 39t-42 12zM161 711q31 0 50 -19.5t19 -49.5q0 -31 -19 -50t-50 -19q-30 0 -49.5 19t-19.5 50
q0 30 19.5 49.5t49.5 19.5z" />
    <glyph glyph-name="j" unicode="j" horiz-adv-x="307" 
d="M27 432v35q120 17 195 42l7 -4q-6 -156 -6 -279q0 -51 1 -159.5t1 -133.5q0 -70 -39.5 -107.5t-96.5 -37.5q-74 0 -118 73l23 22q22 -26 52 -26q19 0 33.5 13.5t16.5 38.5q4 55 4 300q0 121 -3 170q-2 31 -10 39t-42 12zM161 711q31 0 50 -19.5t19 -49.5q0 -31 -19 -50
t-50 -19q-30 0 -49.5 19t-19.5 50q0 30 19.5 49.5t49.5 19.5z" />
    <glyph glyph-name="k" unicode="k" horiz-adv-x="620" 
d="M20 660v34q107 12 200 42l5 -3q-8 -118 -8 -397q0 -180 3 -248q1 -30 8 -39t34 -13l22 -3v-33h-263v33l20 3q33 5 41.5 13t9.5 39q2 40 2 241q0 172 -4 276q-1 31 -9.5 40t-42.5 13zM331 489h259v-34l-23 -3q-56 -8 -96 -45q-62 -56 -126 -108q113 -118 200 -218
q33 -39 67 -45l19 -3v-33h-283v33l34 3q17 2 17 16q0 17 -44 65.5t-136 138.5q177 143 177 176q0 16 -33 20l-32 3v34z" />
    <glyph glyph-name="l" unicode="l" horiz-adv-x="306" 
d="M20 660v34q107 12 200 42l5 -3q-8 -118 -8 -397q0 -180 3 -248q1 -30 9 -39t39 -13l22 -3v-33h-269v33l20 3q33 5 41.5 13t9.5 39q2 40 2 241q0 172 -4 276q-1 31 -9.5 40t-42.5 13z" />
    <glyph glyph-name="m" unicode="m" horiz-adv-x="928" 
d="M29 432v35q127 19 192 42l6 -3v-91q112 91 193 91q100 0 113 -90q111 90 195 90q115 0 115 -124q0 -26 -1 -83.5t-1 -87.5q0 -82 2 -124q1 -31 9 -39t38 -12l23 -3v-33h-260v33l19 3q29 5 36.5 12.5t8.5 38.5q3 61 3 121q0 54 -3 122q-2 50 -17 69.5t-50 19.5
q-46 0 -80 -29.5t-35 -83.5q-2 -62 -2 -95q0 -82 2 -124q2 -31 8.5 -39t33.5 -12l20 -3v-33h-251v33l19 3q28 5 35.5 12.5t8.5 38.5q3 61 3 121q0 54 -3 122q-2 50 -17 69.5t-50 19.5q-48 0 -80 -33t-35 -98q-2 -35 -2 -101q0 -64 2 -100q1 -30 8 -38.5t34 -12.5l21 -3v-33
h-261v33l20 3q32 5 40.5 12.5t9.5 38.5q3 75 3 147t-3 145q-2 31 -10 39t-42 12z" />
    <glyph glyph-name="n" unicode="n" horiz-adv-x="634" 
d="M29 432v35q127 19 192 42l6 -3v-92q113 92 201 92q121 0 121 -124q0 -26 -1 -83.5t-1 -87.5q0 -82 2 -124q1 -31 9 -39t38 -12l23 -3v-33h-260v33l18 3q29 5 37 12.5t9 38.5q2 41 2 121q0 32 -2 122q-3 49 -20 69t-52 20q-52 0 -86.5 -33t-37.5 -98q-2 -35 -2 -101
q0 -64 2 -100q1 -30 8 -38.5t34 -12.5l21 -3v-33h-261v33l20 3q32 5 40.5 12.5t9.5 38.5q3 75 3 147t-3 145q-2 31 -10 39t-42 12z" />
    <glyph glyph-name="o" unicode="o" horiz-adv-x="577" 
d="M293 506q113 0 181 -72t68 -189q0 -115 -74.5 -188t-183.5 -73q-113 0 -181 72t-68 189q0 114 74.5 187.5t183.5 73.5zM278 459q-48 0 -76.5 -51.5t-28.5 -141.5q0 -111 35.5 -173.5t90.5 -62.5q47 0 75.5 52t28.5 139q0 115 -35 176.5t-90 61.5z" />
    <glyph glyph-name="p" unicode="p" horiz-adv-x="613" 
d="M23 431v35q103 15 179 40l6 -3v-93q86 96 188 96q82 0 132 -69t50 -168q0 -71 -28.5 -134t-89 -106t-140.5 -43q-43 0 -101 30l3 -130q1 -31 9 -40t40 -12l50 -3v-33h-298v33l20 3q33 5 41.5 13t9.5 38q1 70 1 288q0 147 -2 202q-1 31 -8.5 40t-37.5 13zM326 432
q-54 0 -85.5 -55.5t-31.5 -152.5q0 -102 29 -147.5t87 -45.5q51 0 85 53t34 149q0 89 -30 144t-88 55z" />
    <glyph glyph-name="q" unicode="q" horiz-adv-x="608" 
d="M491 499l45 -5q-18 -57 -18 -308q0 -144 4 -300q1 -30 9 -38.5t41 -13.5l20 -3v-33h-297v33l50 3q29 2 37.5 10.5t10.5 34.5q1 27 1.5 58.5t1 69.5t0.5 58q-90 -82 -176 -82q-82 0 -132 69t-50 169q0 71 27 134t87.5 107t143.5 44q51 0 101 -21.5t60 -21.5q25 0 34 36z
M291 459q-52 0 -85.5 -52.5t-33.5 -148.5q0 -89 30 -144t88 -55q54 0 85.5 56t31.5 152q0 102 -29 147t-87 45z" />
    <glyph glyph-name="r" unicode="r" horiz-adv-x="435" 
d="M13 432v34q39 4 102 17.5t90 24.5l6 -3l-1 -124q101 125 166 125q34 0 51 -21.5t17 -53.5q0 -35 -15 -58.5t-44 -23.5q-19 0 -31 8t-17 17.5t-13.5 17.5t-20.5 8q-25 0 -48 -31.5t-26 -88.5q-2 -32 -2 -90q0 -67 2 -103q2 -31 9.5 -39.5t37.5 -11.5l40 -3v-33h-285v33
l20 3q32 5 40.5 12.5t9.5 38.5q3 75 3 147t-3 145q-1 30 -13 39.5t-47 11.5z" />
    <glyph glyph-name="s" unicode="s" horiz-adv-x="441" 
d="M52 169h38q6 -74 38 -108t78 -34q84 0 84 72q0 29 -24.5 51.5t-59.5 39t-70 35t-59.5 51t-24.5 77.5q0 66 50 109.5t128 43.5q92 0 150 -49v-128h-38q-11 135 -112 135q-37 0 -56.5 -17.5t-19.5 -46.5q0 -28 25.5 -50.5t61.5 -39.5t72 -37.5t61.5 -54.5t25.5 -80
q0 -74 -53.5 -114t-135.5 -40q-99 0 -159 35v150z" />
    <glyph glyph-name="t" unicode="t" horiz-adv-x="385" 
d="M194 649l33 -3q-3 -60 -6 -157h141v-52h-141q-2 -102 -2 -166q0 -91 3 -149q3 -52 58 -52q49 0 72 37l24 -23q-32 -50 -78 -75t-93 -25q-53 0 -83 27t-30 80q0 24 0.5 85t0.5 96q0 113 -1 165h-80v39q51 11 102 55.5t80 117.5z" />
    <glyph glyph-name="u" unicode="u" horiz-adv-x="619" 
d="M19 489h199q-5 -88 -5 -188q0 -97 2 -142q2 -50 17 -69t50 -19q51 0 84 33t36 98q2 35 2 98q0 65 -2 101q-1 30 -8 38.5t-34 12.5l-21 3v34h192q-4 -114 -4 -232q0 -106 4 -170q2 -30 10 -38.5t39 -12.5l22 -3v-33h-198v77q-115 -94 -196 -94q-119 0 -119 124
q0 26 1 83.5t1 87.5q0 81 -2 123q-1 31 -9 39t-38 12l-23 3v34z" />
    <glyph glyph-name="v" unicode="v" horiz-adv-x="517" 
d="M-10 489h263v-34l-19 -2q-41 -5 -41 -31q0 -19 105 -286q106 253 106 285q0 28 -38 32l-19 2v34h181v-34l-13 -2q-16 -2 -24.5 -12.5t-23.5 -42.5q-91 -189 -175 -405h-67q-79 211 -174 416q-10 23 -19.5 31.5t-30.5 12.5l-11 2v34z" />
    <glyph glyph-name="w" unicode="w" horiz-adv-x="749" 
d="M-10 489h255v-34l-19 -2q-43 -5 -43 -32q0 -13 83 -271q79 217 111 333h67q29 -120 109 -333q88 249 88 270q0 29 -41 33l-19 2v34h176v-34l-14 -2q-16 -2 -23 -12t-21 -43q-70 -165 -149 -405h-66q-52 177 -107 319q-35 -86 -116 -319h-67q-67 220 -146 416
q-9 23 -17.5 31.5t-29.5 12.5l-11 2v34z" />
    <glyph glyph-name="x" unicode="x" horiz-adv-x="587" 
d="M18 489h286v-34l-18 -2q-33 -4 -33 -22q0 -15 71 -120q90 99 90 118t-38 24l-14 2v34h209v-34l-17 -2q-26 -3 -49 -19.5t-60 -56.5l-97 -102q34 -52 114 -164q30 -41 50 -57t45 -19l21 -2v-33h-284v33l18 2q31 4 31 22q0 13 -77 130q-86 -97 -94 -117q-3 -5 -3 -9
q0 -19 40 -26l13 -2v-33h-213v33l18 2q22 3 40 16.5t54 48.5l10 10q12 12 50.5 51t59.5 61q-50 75 -109 155q-31 43 -50 58.5t-44 17.5l-20 2v34z" />
    <glyph glyph-name="y" unicode="y" horiz-adv-x="513" 
d="M-10 489h262v-34l-19 -2q-42 -5 -42 -29q0 -33 105 -312q39 99 71.5 194.5t32.5 112.5q0 30 -38 34l-19 2v34h184v-34l-11 -2q-20 -5 -30.5 -15t-23.5 -40q-91 -207 -172 -441q-60 -167 -159 -167q-52 0 -86 40.5t-34 128.5l35 2q4 -35 29.5 -54t59.5 -19q69 0 89 71
q-67 213 -172 450q-10 23 -20 31.5t-31 12.5l-11 2v34z" />
    <glyph glyph-name="z" unicode="z" horiz-adv-x="506" 
d="M53 489h412v-35q-111 -128 -286 -359q72 -2 104 -2q85 0 116.5 19.5t34.5 84.5h32l-6 -197h-432v34q44 43 153 174.5t147 185.5q-33 2 -98 2q-88 0 -117.5 -18.5t-32.5 -85.5h-33z" />
    <glyph glyph-name="braceleft" unicode="{" horiz-adv-x="412" 
d="M403 750v-38q-50 0 -82.5 -13t-48 -38.5t-21 -52t-5.5 -63.5q0 -25 6 -79t6 -75q0 -112 -108 -125q55 -8 81 -41.5t26 -84.5q0 -21 -6 -74.5t-6 -78.5q0 -38 5.5 -66t21.5 -54t49 -40t83 -14v-38q-141 0 -206.5 57.5t-65.5 152.5q0 23 5.5 72t5.5 67q0 59 -20.5 89
t-75.5 30l-1 43q55 0 75.5 30.5t20.5 90.5q0 17 -5 65.5t-5 72.5q0 89 65 147t206 58z" />
    <glyph glyph-name="bar" unicode="|" horiz-adv-x="399" 
d="M150 694h99v-896h-99v896z" />
    <glyph glyph-name="braceright" unicode="}" horiz-adv-x="412" 
d="M8 712v38q141 0 206.5 -57.5t65.5 -152.5q0 -23 -5.5 -72t-5.5 -67q0 -59 20.5 -89.5t75.5 -30.5l1 -43q-55 0 -75.5 -30t-20.5 -90q0 -17 5 -65.5t5 -72.5q0 -89 -65 -147t-206 -58v38q50 0 82.5 13t48 38.5t21 52t5.5 63.5q0 25 -6 79t-6 75q0 112 108 125
q-55 8 -81 41.5t-26 84.5q0 21 6 74.5t6 78.5q0 38 -5.5 66t-21.5 54t-49 40t-83 14z" />
    <glyph glyph-name="asciitilde" unicode="~" horiz-adv-x="598" 
d="M191 568q34 0 68.5 -17.5t57.5 -38t54 -38t60 -17.5q68 0 106 59l31 -23q-29 -65 -66 -99.5t-90 -34.5q-35 0 -70.5 18.5t-60.5 40t-58 40t-64 18.5q-68 0 -97 -57l-35 18q68 131 164 131z" />
    <glyph glyph-name="nbspace" unicode="&#xa0;" horiz-adv-x="230" 
 />
    <glyph glyph-name="exclamdown" unicode="&#xa1;" horiz-adv-x="363" 
d="M160 295h42l53 -560h-148zM180 506q32 0 52 -20t20 -52q0 -30 -20.5 -50.5t-51.5 -20.5t-51 20.5t-20 50.5q0 31 20 51.5t51 20.5z" />
    <glyph glyph-name="cent" unicode="&#xa2;" 
d="M290 770h50v-76q77 -1 117 -33t40 -75q0 -28 -16.5 -43.5t-40.5 -15.5t-38 14t-14 41q0 33 -10.5 49t-37.5 20v-354q43 -2 75.5 21.5t42.5 68.5h37q-23 -161 -155 -185v-82h-50v79q-85 2 -139 69.5t-54 162.5t53 167.5t140 90.5v81zM290 643q-33 -11 -55 -56.5
t-22 -103.5q0 -64 21 -111t56 -63v334z" />
    <glyph glyph-name="sterling" unicode="&#xa3;" 
d="M46 390h71q-21 56 -21 107q0 97 69.5 155t179.5 58q118 0 187 -53v-173h-34q-6 95 -50 138t-106 43q-50 0 -83 -30t-33 -81q0 -60 36 -164h161v-54h-144q13 -37 13 -73q0 -88 -82 -167h153q80 0 104 19.5t29 88.5h37l-5 -204h-459v38q63 35 87.5 67.5t24.5 76.5
q0 11 -1 22t-4 23t-5.5 21t-7.5 23t-7.5 20.5t-9.5 23t-9 21.5h-91v54z" />
    <glyph glyph-name="currency" unicode="&#xa4;" 
d="M33 532l73 71l74 -72q51 32 113 32t112 -32l72 73l75 -74l-73 -72q32 -57 32 -115q0 -60 -32 -112l73 -74l-74 -72l-73 74q-53 -33 -112 -33q-61 0 -113 31l-74 -73l-74 74l72 73q-31 52 -31 112q0 58 31 115zM291 473q-54 0 -90.5 -37.5t-36.5 -93.5q0 -54 36.5 -92.5
t90.5 -38.5t90 38t36 93q0 56 -36 93.5t-90 37.5z" />
    <glyph glyph-name="yen" unicode="&#xa5;" 
d="M-14 694h270v-35l-20 -3q-37 -6 -37 -27q0 -14 14 -44q30 -60 107 -209q90 151 119 207q14 25 14 41q0 23 -40 32l-20 4v34h202v-35l-19 -3q-19 -3 -32 -18t-40 -60q-105 -176 -138 -235h122v-53h-140v-79h118v-53h-118q0 -38 2 -66q1 -31 9.5 -42.5t33.5 -13.5l30 -3
v-33h-264v33l26 3q27 3 36.5 14t10.5 42q1 20 1 66h-115v53h116v79h-138v53h116q-65 106 -132 236q-22 42 -37.5 57.5t-37.5 19.5l-19 3v35z" />
    <glyph glyph-name="brokenbar" unicode="&#xa6;" horiz-adv-x="396" 
d="M150 176h96v-375h-96v375zM150 694h96v-355h-96v355z" />
    <glyph glyph-name="section" unicode="&#xa7;" horiz-adv-x="653" 
d="M347 709q80 0 132 -36v-122h-38q-8 115 -102 115q-36 0 -57 -20.5t-21 -56.5q0 -28 12 -51.5t40 -46t48 -35t63 -37.5q37 -22 58.5 -35.5t52 -38t47 -47t29 -55t12.5 -69.5q0 -62 -36.5 -111t-94.5 -71q5 -20 5 -39q0 -74 -53.5 -121t-138.5 -47q-77 0 -133 37v121h40
q8 -114 102 -115q36 0 56.5 21t20.5 56q0 27 -10.5 50t-40.5 47t-44.5 34t-61.5 37q-12 7 -18 11q-43 25 -69.5 44t-57 48t-45 65t-14.5 79q0 62 36.5 111t93.5 71q-4 16 -4 40q0 73 53.5 120t137.5 47zM171 466q-38 -31 -38 -86q0 -58 40 -99.5t116 -85.5q5 -3 28 -17
t30 -18.5t27 -18t28 -20t23 -19.5t23 -23t17.5 -23.5t15.5 -27.5q39 30 39 87q0 32 -12 58.5t-40 51.5t-50 40t-64 40q-49 29 -75.5 46.5t-59.5 49.5t-48 65z" />
    <glyph glyph-name="dieresis" unicode="&#xa8;" horiz-adv-x="422" 
d="M50 630q0 23 16.5 39.5t38.5 16.5q24 0 40.5 -16.5t16.5 -39.5t-16.5 -40t-40.5 -17q-22 0 -38.5 17t-16.5 40zM260 630q0 23 16.5 39.5t40.5 16.5q22 0 38.5 -16.5t16.5 -39.5t-16.5 -40t-38.5 -17q-24 0 -40.5 16.5t-16.5 40.5z" />
    <glyph glyph-name="copyright" unicode="&#xa9;" horiz-adv-x="831" 
d="M435 709q150 0 248.5 -101.5t98.5 -251.5q0 -98 -54.5 -184.5t-144 -137.5t-188.5 -51q-150 0 -248 99.5t-98 250.5q0 98 54.5 185.5t144 139t187.5 51.5zM424 651q-128 0 -216.5 -86t-88.5 -213q0 -132 78.5 -220.5t207.5 -88.5q133 0 220.5 81.5t87.5 209.5
q0 135 -79.5 226t-209.5 91zM435 580q75 0 145 -28l9 -127h-35q-6 53 -39 81t-76 28q-57 0 -94.5 -48.5t-37.5 -134.5q0 -87 37.5 -136t94.5 -49q43 0 76 28.5t39 80.5h35l-9 -121q-67 -35 -149 -35q-105 0 -172 59t-67 164q0 101 71 169.5t172 68.5z" />
    <glyph glyph-name="ordfeminine" unicode="&#xaa;" horiz-adv-x="413" 
d="M226 748q115 0 115 -96q0 -24 -3 -85t-3 -96q0 -34 26 -34q16 0 35 17l18 -22q-42 -67 -100 -67q-33 0 -48.5 16.5t-19.5 51.5q-69 -69 -132 -69q-84 0 -84 80q0 70 110 120q18 8 55.5 22.5t41.5 15.5v47q-2 55 -54 55q-23 0 -37.5 -9.5t-14.5 -24.5q0 -6 4 -18t4 -22
q0 -19 -14.5 -32t-39.5 -13q-48 0 -48 50q0 41 57.5 77t131.5 36zM237 558q-43 -6 -74 -30t-31 -55q0 -39 37 -39q27 0 46 21t21 63q1 10 1 40z" />
    <glyph glyph-name="guillemotleft" unicode="&#xab;" horiz-adv-x="562" 
d="M267 288l238 212l29 -27l-140 -218l140 -213l-32 -25l-234 207q-8 8 -8 33q0 24 7 31zM34 288l238 212l29 -27l-140 -218l140 -213l-32 -25l-234 207q-8 8 -8 33q0 24 7 31z" />
    <glyph glyph-name="logicalnot" unicode="&#xac;" horiz-adv-x="716" 
d="M44 335h627v-335h-100v263h-527v72z" />
    <glyph glyph-name="registered" unicode="&#xae;" horiz-adv-x="573" 
d="M302 709q94 0 158 -63t64 -165q0 -97 -75 -171t-174 -74q-98 0 -162 65t-64 162q0 104 76.5 175t176.5 71zM289 664q-81 0 -134.5 -52.5t-53.5 -136.5q0 -80 52 -137t130 -57q83 0 135 52h-57q-19 48 -50 96q-18 26 -33 26q-13 0 -17 1q0 -65 1 -78q1 -12 4 -15.5
t13 -4.5l16 -1v-24h-132v24l16 1q11 2 14.5 5.5t4.5 14.5q1 29 1 98q0 60 -1 90q-1 18 -18 20l-17 1v25h135q55 0 81 -21.5t26 -55.5q0 -52 -56 -68q13 -6 23 -22q5 -7 42 -74q8 -12 26 -14q33 47 33 112q0 80 -52.5 137.5t-131.5 57.5zM263 582q-2 -56 -2 -95q8 -1 25 -1
q52 0 52 47q0 49 -57 49h-18z" />
    <glyph glyph-name="macron" unicode="&#xaf;" horiz-adv-x="363" 
d="M50 644h263v-57h-263v57z" />
    <glyph glyph-name="degree" unicode="&#xb0;" horiz-adv-x="437" 
d="M227 712q76 0 125 -52.5t49 -138.5q0 -90 -53.5 -151t-135.5 -61q-76 0 -126 51.5t-50 138.5q0 93 55.5 153t135.5 60zM218 652q-42 0 -66 -38t-24 -96q0 -64 24 -105.5t66 -41.5q41 0 66 36.5t25 93.5q0 66 -25 108.5t-66 42.5z" />
    <glyph glyph-name="plusminus" unicode="&#xb1;" horiz-adv-x="650" 
d="M278 688h93v-228h229v-93h-229v-229h-93v229h-228v93h228v228zM50 93h550v-93h-550v93z" />
    <glyph glyph-name="twosuperior" unicode="&#xb2;" horiz-adv-x="398" 
d="M82 673h-34q10 79 52.5 123t107.5 44q66 0 99.5 -35t33.5 -83q0 -35 -18 -70t-38.5 -58t-61.5 -64q-36 -35 -59 -63h71q49 0 64 9.5t26 47.5h33l-25 -140h-294l-3 39q99 79 155.5 143.5t56.5 117.5q0 33 -18.5 54t-56.5 21q-75 0 -91 -86z" />
    <glyph glyph-name="threesuperior" unicode="&#xb3;" horiz-adv-x="398" 
d="M84 688h-34q4 76 45 114t106 38q63 0 101.5 -32.5t38.5 -81.5q0 -33 -20 -59.5t-53 -40.5q40 -14 64 -44.5t24 -69.5q0 -62 -46.5 -101.5t-115.5 -39.5q-68 0 -108.5 36.5t-41.5 106.5h35q2 -34 27.5 -56t62.5 -22q38 0 60.5 20.5t22.5 53.5q0 82 -109 82v40
q101 0 101 71q0 29 -19 48t-55 19q-75 0 -86 -82z" />
    <glyph glyph-name="acute" unicode="&#xb4;" horiz-adv-x="338" 
d="M161 730h106q12 0 14.5 -8.5t-8.5 -16.5l-185 -164l-33 13z" />
    <glyph glyph-name="mu" unicode="&#xb5;" horiz-adv-x="619" 
d="M19 489h199q-5 -88 -5 -188q0 -97 2 -142q2 -50 17 -69t50 -19q51 0 84 33t36 98q2 35 2 98q0 65 -2 101q-1 30 -8 38.5t-34 12.5l-21 3v34h192q-4 -114 -4 -232q0 -106 4 -170q2 -30 10 -38.5t39 -12.5l22 -3v-33h-198v77q-115 -94 -196 -94q-24 0 -38 8l18 -193h-125
q28 225 28 480q0 81 -2 123q-1 31 -9 39t-38 12l-23 3v34z" />
    <glyph glyph-name="paragraph" unicode="&#xb6;" horiz-adv-x="655" 
d="M284 694h339v-35l-32 -3q-33 -3 -44.5 -14.5t-12.5 -44.5q-4 -120 -4 -309q0 -80 0.5 -152.5t0.5 -135.5h-137q1 147 1 638h-53v-361q-20 -5 -67 -5q-104 0 -161.5 54t-57.5 149q0 97 59 158t169 61z" />
    <glyph glyph-name="periodcentered" unicode="&#xb7;" horiz-adv-x="426" 
d="M212 366q35 0 58 -23t23 -58t-23 -58t-58 -23q-34 0 -57 23t-23 58t22.5 58t57.5 23z" />
    <glyph glyph-name="cedilla" unicode="&#xb8;" horiz-adv-x="329" 
d="M149 3h44l-35 -48q121 0 121 -78q0 -41 -38.5 -64t-96.5 -23q-51 0 -94 23l15 32q23 -13 66 -13q61 0 61 34q0 37 -95 37l-5 8z" />
    <glyph glyph-name="onesuperior" unicode="&#xb9;" horiz-adv-x="398" 
d="M45 701v46q109 45 213 97l14 -6q-7 -107 -7 -231q0 -128 2 -158q1 -28 27 -29l47 -3v-33h-257v33l51 2q16 2 22 8t7 22q2 47 2 154q0 56 -2 146z" />
    <glyph glyph-name="ordmasculine" unicode="&#xba;" horiz-adv-x="444" 
d="M224 748q87 0 140.5 -53.5t53.5 -140.5q0 -85 -58 -139.5t-142 -54.5q-87 0 -140 53.5t-53 140.5q0 85 58 139.5t141 54.5zM213 707q-34 0 -54.5 -37t-20.5 -100q0 -79 26 -123.5t66 -44.5q33 0 53.5 36.5t20.5 97.5q0 82 -25.5 126.5t-65.5 44.5z" />
    <glyph glyph-name="guillemotright" unicode="&#xbb;" horiz-adv-x="562" 
d="M27 475l32 25l234 -207q8 -7 8 -33q0 -25 -7 -31l-237 -212l-30 27l141 218zM260 475l32 25l234 -207q8 -7 8 -33q0 -25 -7 -31l-237 -212l-30 27l141 218z" />
    <glyph glyph-name="onequarter" unicode="&#xbc;" horiz-adv-x="901" 
d="M702 703l57 -33l-491 -694l-57 33zM69 576v43q112 47 199 90l13 -6q-7 -98 -7 -214q0 -119 2 -147q1 -14 6 -20t19 -7l44 -2v-31h-239v31l47 1q15 2 20.5 7.5t6.5 20.5q2 44 2 143q0 52 -2 136zM566 164h122v145q-61 -68 -122 -145zM724 423h60q-4 -174 -4 -259h47v-57
h-47q0 -73 2 -107h-97q2 36 2 107h-172v72q127 138 209 244z" />
    <glyph glyph-name="onehalf" unicode="&#xbd;" horiz-adv-x="939" 
d="M697 703l57 -33l-491 -694l-57 33zM69 576v43q112 47 199 90l13 -6q-7 -98 -7 -214q0 -119 2 -147q1 -14 6 -20t19 -7l44 -2v-31h-239v31l47 1q15 2 20.5 7.5t6.5 20.5q2 44 2 143q0 52 -2 136zM611 269h-31q9 73 48.5 114t99.5 41q61 0 93 -33t32 -77q0 -47 -26 -85
t-82 -93q-39 -39 -55 -59h63q46 0 60 8.5t24 45.5h31l-24 -131h-272l-3 36q92 74 144.5 134t52.5 109q0 31 -17.5 50.5t-52.5 19.5q-69 0 -85 -80z" />
    <glyph glyph-name="threequarters" unicode="&#xbe;" horiz-adv-x="864" 
d="M684 703l57 -33l-491 -694l-57 33zM532 164h122v145q-61 -68 -122 -145zM690 423h60q-4 -174 -4 -259h47v-57h-47q0 -73 2 -107h-97q2 36 2 107h-172v72q127 138 209 244zM107 565h-31q4 70 42 105t98 35q59 0 95 -30t36 -75q0 -31 -19 -56t-50 -37q37 -13 60 -41.5
t23 -64.5q0 -58 -43.5 -94.5t-107.5 -36.5t-101.5 33.5t-38.5 99.5h32q2 -32 25.5 -52.5t58.5 -20.5q36 0 57 19t21 50q0 76 -102 76v37q94 0 94 66q0 28 -17.5 45.5t-51.5 17.5q-69 0 -80 -76z" />
    <glyph glyph-name="questiondown" unicode="&#xbf;" horiz-adv-x="473" 
d="M250 293h39q0 -40 -19.5 -79t-43 -67t-43 -72t-19.5 -93q0 -50 29.5 -79t80.5 -29q52 0 86 31.5t40 92.5h33q-5 -103 -67 -158t-151 -55q-84 0 -135.5 47t-51.5 122q0 51 22 95.5t54 75t64 57.5t56 55t26 56zM261 505q31 0 51.5 -20t20.5 -51t-20.5 -51t-51.5 -20t-51 20
t-20 51t20 51t51 20z" />
    <glyph glyph-name="Agrave" unicode="&#xc0;" horiz-adv-x="683" 
d="M294 530q-31 -75 -90 -231h178q-33 89 -88 231zM298 702h72q91 -248 254 -620q12 -27 22 -36t32 -11l24 -3v-32h-307v32l27 3q42 4 42 30q0 18 -62 181h-217q-59 -157 -59 -178q0 -29 40 -33l29 -3v-32h-225v32l25 3q23 2 34.5 13.5t26.5 45.5q103 236 242 608zM191 870
h106l116 -134l-30 -13l-198 122q-11 8 -8.5 16.5t14.5 8.5z" />
    <glyph glyph-name="Aacute" unicode="&#xc1;" horiz-adv-x="683" 
d="M294 530q-31 -75 -90 -231h178q-33 89 -88 231zM298 702h72q91 -248 254 -620q12 -27 22 -36t32 -11l24 -3v-32h-307v32l27 3q42 4 42 30q0 18 -62 181h-217q-59 -157 -59 -178q0 -29 40 -33l29 -3v-32h-225v32l25 3q23 2 34.5 13.5t26.5 45.5q103 236 242 608zM363 870
h106q12 0 14.5 -8.5t-8.5 -16.5l-198 -122l-30 13z" />
    <glyph glyph-name="Acircumflex" unicode="&#xc2;" horiz-adv-x="683" 
d="M294 530q-31 -75 -90 -231h178q-33 89 -88 231zM298 702h72q91 -248 254 -620q12 -27 22 -36t32 -11l24 -3v-32h-307v32l27 3q42 4 42 30q0 18 -62 181h-217q-59 -157 -59 -178q0 -29 40 -33l29 -3v-32h-225v32l25 3q23 2 34.5 13.5t26.5 45.5q103 236 242 608zM180 744
l103 112q19 19 49 19q33 0 49 -16l106 -115l-30 -13l-126 69l-122 -69z" />
    <glyph glyph-name="Atilde" unicode="&#xc3;" horiz-adv-x="683" 
d="M294 530q-31 -75 -90 -231h178q-33 89 -88 231zM298 702h72q91 -248 254 -620q12 -27 22 -36t32 -11l24 -3v-32h-307v32l27 3q42 4 42 30q0 18 -62 181h-217q-59 -157 -59 -178q0 -29 40 -33l29 -3v-32h-225v32l25 3q23 2 34.5 13.5t26.5 45.5q103 236 242 608zM280 883
q33 0 80 -33q42 -28 58 -28q43 0 51 52l32 -11q-5 -47 -36 -82.5t-71 -35.5q-32 0 -79 31q-38 28 -58 28t-35 -13.5t-18 -41.5l-32 13q4 46 35 83.5t73 37.5z" />
    <glyph glyph-name="Adieresis" unicode="&#xc4;" horiz-adv-x="683" 
d="M294 530q-31 -75 -90 -231h178q-33 89 -88 231zM298 702h72q91 -248 254 -620q12 -27 22 -36t32 -11l24 -3v-32h-307v32l27 3q42 4 42 30q0 18 -62 181h-217q-59 -157 -59 -178q0 -29 40 -33l29 -3v-32h-225v32l25 3q23 2 34.5 13.5t26.5 45.5q103 236 242 608zM174 812
q0 22 17 39t39 17q23 0 40 -16.5t17 -39.5t-17 -40t-40 -17t-39.5 17t-16.5 40zM384 812q0 23 16.5 39.5t40.5 16.5q23 0 39.5 -17t16.5 -39q0 -23 -16.5 -40t-39.5 -17q-24 0 -40.5 17t-16.5 40z" />
    <glyph glyph-name="Aring" unicode="&#xc5;" horiz-adv-x="683" 
d="M294 530q-31 -75 -90 -231h178q-33 89 -88 231zM298 702h72q91 -248 254 -620q12 -27 22 -36t32 -11l24 -3v-32h-307v32l27 3q42 4 42 30q0 18 -62 181h-217q-59 -157 -59 -178q0 -29 40 -33l29 -3v-32h-225v32l25 3q23 2 34.5 13.5t26.5 45.5q103 236 242 608zM227 825
q0 40 31 68t74 28t74.5 -28t31.5 -68q0 -42 -31 -69.5t-75 -27.5q-43 0 -74 27.5t-31 69.5zM281 822q0 -22 14 -36.5t36 -14.5q24 0 39 14.5t15 36.5t-14.5 35t-39.5 13q-22 0 -36 -13t-14 -35z" />
    <glyph glyph-name="AE" unicode="&#xc6;" horiz-adv-x="935" 
d="M316 694h545v-202h-34q-5 86 -35 117.5t-110 31.5q-95 0 -135 -2q-4 -73 -6 -249h74q53 0 71.5 16.5t21.5 75.5h37v-231h-37q-3 55 -21.5 73.5t-69.5 18.5h-76q0 -187 2 -238q1 -29 30 -40t112 -11q78 0 108 28.5t34 112.5h34v-195h-545v33l32 3q32 3 43 14t12 42
q2 104 2 154h-238q-87 -108 -123 -162q-15 -23 -11 -35t29 -14l26 -3v-32h-233l1 32l26 3q24 2 40.5 13.5t45.5 45.5q26 32 190 226t243 295q-2 24 -13.5 31.5t-39.5 9.5l-32 3v35zM207 299h199v49q0 78 -2 198q-52 -64 -197 -247z" />
    <glyph glyph-name="Ccedilla" unicode="&#xc7;" horiz-adv-x="707" 
d="M632 666l14 -188h-35q-10 87 -66 134t-130 47q-92 0 -157.5 -83.5t-65.5 -226.5q0 -147 65.5 -229.5t157.5 -82.5q74 0 130 47t66 133h35l-14 -185q-109 -47 -220 -48l-21 -29q121 0 121 -78q0 -41 -38.5 -64t-96.5 -23q-51 0 -94 23l15 32q23 -13 66 -13q61 0 61 34
q0 37 -95 37l-5 8l46 74q-152 9 -243 98t-91 248q0 163 107 271t265 108q112 0 223 -44z" />
    <glyph glyph-name="Egrave" unicode="&#xc8;" horiz-adv-x="642" 
d="M25 694h545v-202h-34q-5 86 -35 117.5t-110 31.5q-95 0 -135 -2q-4 -73 -6 -249h74q53 0 71.5 16.5t21.5 75.5h37v-231h-37q-3 55 -21.5 73.5t-69.5 18.5h-76q0 -187 2 -238q1 -29 30 -40t112 -11q78 0 108 28.5t34 112.5h34v-195h-545v33l32 3q32 3 43 14t12 42
q3 132 3 256q0 125 -3 254q-1 31 -12 41.5t-43 12.5l-32 3v35zM207 870h106l116 -134l-30 -13l-198 122q-11 8 -8.5 16.5t14.5 8.5z" />
    <glyph glyph-name="Eacute" unicode="&#xc9;" horiz-adv-x="642" 
d="M25 694h545v-202h-34q-5 86 -35 117.5t-110 31.5q-95 0 -135 -2q-4 -73 -6 -249h74q53 0 71.5 16.5t21.5 75.5h37v-231h-37q-3 55 -21.5 73.5t-69.5 18.5h-76q0 -187 2 -238q1 -29 30 -40t112 -11q78 0 108 28.5t34 112.5h34v-195h-545v33l32 3q32 3 43 14t12 42
q3 132 3 256q0 125 -3 254q-1 31 -12 41.5t-43 12.5l-32 3v35zM358 870h106q12 0 14.5 -8.5t-8.5 -16.5l-198 -122l-30 13z" />
    <glyph glyph-name="Ecircumflex" unicode="&#xca;" horiz-adv-x="642" 
d="M25 694h545v-202h-34q-5 86 -35 117.5t-110 31.5q-95 0 -135 -2q-4 -73 -6 -249h74q53 0 71.5 16.5t21.5 75.5h37v-231h-37q-3 55 -21.5 73.5t-69.5 18.5h-76q0 -187 2 -238q1 -29 30 -40t112 -11q78 0 108 28.5t34 112.5h34v-195h-545v33l32 3q32 3 43 14t12 42
q3 132 3 256q0 125 -3 254q-1 31 -12 41.5t-43 12.5l-32 3v35zM174 744l103 112q19 19 49 19q33 0 49 -16l106 -115l-30 -13l-126 69l-122 -69z" />
    <glyph glyph-name="Edieresis" unicode="&#xcb;" horiz-adv-x="642" 
d="M25 694h545v-202h-34q-5 86 -35 117.5t-110 31.5q-95 0 -135 -2q-4 -73 -6 -249h74q53 0 71.5 16.5t21.5 75.5h37v-231h-37q-3 55 -21.5 73.5t-69.5 18.5h-76q0 -187 2 -238q1 -29 30 -40t112 -11q78 0 108 28.5t34 112.5h34v-195h-545v33l32 3q32 3 43 14t12 42
q3 132 3 256q0 125 -3 254q-1 31 -12 41.5t-43 12.5l-32 3v35zM178 812q0 23 16.5 39.5t38.5 16.5q24 0 40.5 -16.5t16.5 -39.5t-16.5 -40t-40.5 -17q-22 0 -38.5 17t-16.5 40zM388 812q0 23 16.5 39.5t40.5 16.5q22 0 38.5 -16.5t16.5 -39.5t-16.5 -40t-38.5 -17
q-24 0 -40.5 16.5t-16.5 40.5z" />
    <glyph glyph-name="Igrave" unicode="&#xcc;" horiz-adv-x="368" 
d="M25 694h318v-35l-35 -3q-30 -2 -40 -13.5t-12 -42.5q-6 -144 -6 -254q0 -206 2 -254q1 -31 11.5 -42.5t40.5 -13.5l35 -3v-33h-314v33l32 3q32 3 43 14t12 42q3 132 3 256q0 123 -3 252q-1 31 -12 42t-43 14l-32 3v35zM88 870h106l116 -134l-30 -13l-198 122
q-11 8 -8.5 16.5t14.5 8.5z" />
    <glyph glyph-name="Iacute" unicode="&#xcd;" horiz-adv-x="368" 
d="M25 694h318v-35l-35 -3q-30 -2 -40 -13.5t-12 -42.5q-6 -144 -6 -254q0 -206 2 -254q1 -31 11.5 -42.5t40.5 -13.5l35 -3v-33h-314v33l32 3q32 3 43 14t12 42q3 132 3 256q0 123 -3 252q-1 31 -12 42t-43 14l-32 3v35zM198 870h106q12 0 14.5 -8.5t-8.5 -16.5l-198 -122
l-30 13z" />
    <glyph glyph-name="Icircumflex" unicode="&#xce;" horiz-adv-x="368" 
d="M25 694h318v-35l-35 -3q-30 -2 -40 -13.5t-12 -42.5q-6 -144 -6 -254q0 -206 2 -254q1 -31 11.5 -42.5t40.5 -13.5l35 -3v-33h-314v33l32 3q32 3 43 14t12 42q3 132 3 256q0 123 -3 252q-1 31 -12 42t-43 14l-32 3v35zM30 744l103 112q19 19 49 19q33 0 49 -16l106 -115
l-30 -13l-126 69l-122 -69z" />
    <glyph glyph-name="Idieresis" unicode="&#xcf;" horiz-adv-x="368" 
d="M25 694h318v-35l-35 -3q-30 -2 -40 -13.5t-12 -42.5q-6 -144 -6 -254q0 -206 2 -254q1 -31 11.5 -42.5t40.5 -13.5l35 -3v-33h-314v33l32 3q32 3 43 14t12 42q3 132 3 256q0 123 -3 252q-1 31 -12 42t-43 14l-32 3v35zM23 812q0 23 16.5 39.5t38.5 16.5q24 0 40.5 -16.5
t16.5 -39.5t-16.5 -40t-40.5 -17q-22 0 -38.5 17t-16.5 40zM233 812q0 23 16.5 39.5t40.5 16.5q22 0 38.5 -16.5t16.5 -39.5t-16.5 -40t-38.5 -17q-24 0 -40.5 16.5t-16.5 40.5z" />
    <glyph glyph-name="Eth" unicode="&#xd0;" horiz-adv-x="793" 
d="M36 694h305q212 0 316.5 -87.5t104.5 -240.5q0 -166 -115.5 -266t-317.5 -100h-293v33l32 3q32 3 43 14t12 42q3 124 3 246h-101v55h101q0 11 -1 88.5t-2 118.5q-1 32 -12 42.5t-43 13.5l-32 3v35zM262 393h130v-55h-130q0 -164 2 -226q1 -37 18 -48.5t71 -11.5
q110 0 185 82t75 223q0 149 -66.5 217t-210.5 68q-39 0 -69 -5q-3 -81 -5 -244z" />
    <glyph glyph-name="Ntilde" unicode="&#xd1;" horiz-adv-x="798" 
d="M25 694h276q100 -163 156 -249q132 -199 158 -237q2 106 2 165q0 181 -2 227q-1 31 -11.5 42.5t-40.5 13.5l-35 3v35h240v-35l-32 -3q-32 -3 -43 -14t-12 -42q-3 -132 -3 -355v-252h-88q-18 28 -221 335q-15 22 -83 125.5t-105 157.5q-5 -138 -5 -265q0 -206 2 -254
q1 -31 11.5 -42.5t40.5 -13.5l35 -3v-33h-240v33l32 3q32 3 43 14t12 42q3 132 3 256q0 123 -3 252q-1 31 -12 42t-43 14l-32 3v35zM348 883q33 0 80 -33q42 -28 58 -28q43 0 51 52l32 -11q-5 -47 -36 -82.5t-71 -35.5q-32 0 -79 31q-38 28 -58 28t-35 -13.5t-18 -41.5
l-32 13q4 46 35 83.5t73 37.5z" />
    <glyph glyph-name="Ograve" unicode="&#xd2;" horiz-adv-x="801" 
d="M37 347q0 151 108.5 257t272.5 106q103 0 183.5 -52.5t121 -134.5t40.5 -176q0 -151 -107 -257t-267 -106q-155 0 -253.5 104.5t-98.5 258.5zM403 659q-91 0 -150 -88t-59 -224q0 -134 58 -223.5t151 -89.5q91 0 150 86.5t59 226.5q0 130 -55 221t-154 91zM304 870h106
l116 -134l-30 -13l-198 122q-11 8 -8.5 16.5t14.5 8.5z" />
    <glyph glyph-name="Oacute" unicode="&#xd3;" horiz-adv-x="801" 
d="M37 347q0 151 108.5 257t272.5 106q103 0 183.5 -52.5t121 -134.5t40.5 -176q0 -151 -107 -257t-267 -106q-155 0 -253.5 104.5t-98.5 258.5zM403 659q-91 0 -150 -88t-59 -224q0 -134 58 -223.5t151 -89.5q91 0 150 86.5t59 226.5q0 130 -55 221t-154 91zM429 870h106
q12 0 14.5 -8.5t-8.5 -16.5l-198 -122l-30 13z" />
    <glyph glyph-name="Ocircumflex" unicode="&#xd4;" horiz-adv-x="801" 
d="M37 347q0 151 108.5 257t272.5 106q103 0 183.5 -52.5t121 -134.5t40.5 -176q0 -151 -107 -257t-267 -106q-155 0 -253.5 104.5t-98.5 258.5zM403 659q-91 0 -150 -88t-59 -224q0 -134 58 -223.5t151 -89.5q91 0 150 86.5t59 226.5q0 130 -55 221t-154 91zM249 744
l103 112q19 19 49 19q33 0 49 -16l106 -115l-30 -13l-126 69l-122 -69z" />
    <glyph glyph-name="Otilde" unicode="&#xd5;" horiz-adv-x="801" 
d="M37 347q0 151 108.5 257t272.5 106q103 0 183.5 -52.5t121 -134.5t40.5 -176q0 -151 -107 -257t-267 -106q-155 0 -253.5 104.5t-98.5 258.5zM403 659q-91 0 -150 -88t-59 -224q0 -134 58 -223.5t151 -89.5q91 0 150 86.5t59 226.5q0 130 -55 221t-154 91zM344 883
q33 0 80 -33q42 -28 58 -28q43 0 51 52l32 -11q-5 -47 -36 -82.5t-71 -35.5q-32 0 -79 31q-38 28 -58 28t-35 -13.5t-18 -41.5l-32 13q4 46 35 83.5t73 37.5z" />
    <glyph glyph-name="Odieresis" unicode="&#xd6;" horiz-adv-x="801" 
d="M37 347q0 151 108.5 257t272.5 106q103 0 183.5 -52.5t121 -134.5t40.5 -176q0 -151 -107 -257t-267 -106q-155 0 -253.5 104.5t-98.5 258.5zM403 659q-91 0 -150 -88t-59 -224q0 -134 58 -223.5t151 -89.5q91 0 150 86.5t59 226.5q0 130 -55 221t-154 91zM240 812
q0 22 17 39t39 17q23 0 40 -16.5t17 -39.5t-17 -40t-40 -17t-39.5 17t-16.5 40zM450 812q0 23 16.5 39.5t40.5 16.5q23 0 39.5 -17t16.5 -39q0 -23 -16.5 -40t-39.5 -17q-24 0 -40.5 17t-16.5 40z" />
    <glyph glyph-name="multiply" unicode="&#xd7;" horiz-adv-x="595" 
d="M116 510l181 -181l182 181l65 -65l-181 -182l182 -182l-66 -65l-182 181l-182 -181l-65 65l181 182l-181 182z" />
    <glyph glyph-name="Oslash" unicode="&#xd8;" horiz-adv-x="801" 
d="M686 741l54 -25l-85 -103q52 -50 80 -120t28 -146q0 -151 -107 -256t-267 -105q-114 0 -201 60l-74 -90l-53 25l82 101q-106 103 -106 265q0 151 108.5 256t272.5 105q109 0 192 -59zM579 520l-327 -396q58 -88 151 -88q91 0 150 86t59 225q0 97 -33 173zM224 180
l327 396q-57 81 -148 81t-150 -87t-59 -223q0 -95 30 -167z" />
    <glyph glyph-name="Ugrave" unicode="&#xd9;" horiz-adv-x="759" 
d="M19 694h319v-35l-35 -3q-30 -2 -40 -13.5t-12 -42.5q-7 -170 -7 -306v-60q0 -89 51.5 -133t126.5 -44q70 0 121 41t51 122v115q0 179 -2 265q-1 31 -12 42t-43 14l-32 3v35h243v-35l-35 -3q-30 -2 -40 -13.5t-12 -42.5q-6 -146 -6 -256v-145q0 -70 -40 -120.5t-99.5 -73
t-128.5 -22.5q-72 0 -134 23.5t-103.5 74t-41.5 118.5q0 24 0.5 71.5t0.5 75.5q0 125 -3 254q-1 31 -12 42t-43 14l-32 3v35zM276 870h106l116 -134l-30 -13l-198 122q-11 8 -8.5 16.5t14.5 8.5z" />
    <glyph glyph-name="Uacute" unicode="&#xda;" horiz-adv-x="759" 
d="M19 694h319v-35l-35 -3q-30 -2 -40 -13.5t-12 -42.5q-7 -170 -7 -306v-60q0 -89 51.5 -133t126.5 -44q70 0 121 41t51 122v115q0 179 -2 265q-1 31 -12 42t-43 14l-32 3v35h243v-35l-35 -3q-30 -2 -40 -13.5t-12 -42.5q-6 -146 -6 -256v-145q0 -70 -40 -120.5t-99.5 -73
t-128.5 -22.5q-72 0 -134 23.5t-103.5 74t-41.5 118.5q0 24 0.5 71.5t0.5 75.5q0 125 -3 254q-1 31 -12 42t-43 14l-32 3v35zM440 870h106q12 0 14.5 -8.5t-8.5 -16.5l-198 -122l-30 13z" />
    <glyph glyph-name="Ucircumflex" unicode="&#xdb;" horiz-adv-x="759" 
d="M19 694h319v-35l-35 -3q-30 -2 -40 -13.5t-12 -42.5q-7 -170 -7 -306v-60q0 -89 51.5 -133t126.5 -44q70 0 121 41t51 122v115q0 179 -2 265q-1 31 -12 42t-43 14l-32 3v35h243v-35l-35 -3q-30 -2 -40 -13.5t-12 -42.5q-6 -146 -6 -256v-145q0 -70 -40 -120.5t-99.5 -73
t-128.5 -22.5q-72 0 -134 23.5t-103.5 74t-41.5 118.5q0 24 0.5 71.5t0.5 75.5q0 125 -3 254q-1 31 -12 42t-43 14l-32 3v35zM252 744l103 112q19 19 49 19q33 0 49 -16l106 -115l-30 -13l-126 69l-122 -69z" />
    <glyph glyph-name="Udieresis" unicode="&#xdc;" horiz-adv-x="759" 
d="M19 694h319v-35l-35 -3q-30 -2 -40 -13.5t-12 -42.5q-7 -170 -7 -306v-60q0 -89 51.5 -133t126.5 -44q70 0 121 41t51 122v115q0 179 -2 265q-1 31 -12 42t-43 14l-32 3v35h243v-35l-35 -3q-30 -2 -40 -13.5t-12 -42.5q-6 -146 -6 -256v-145q0 -70 -40 -120.5t-99.5 -73
t-128.5 -22.5q-72 0 -134 23.5t-103.5 74t-41.5 118.5q0 24 0.5 71.5t0.5 75.5q0 125 -3 254q-1 31 -12 42t-43 14l-32 3v35zM462 812q0 23 16.5 39.5t40.5 16.5q23 0 39.5 -17t16.5 -39q0 -23 -16.5 -40t-39.5 -17q-24 0 -40.5 17t-16.5 40zM252 812q0 22 17 39t39 17
q23 0 40 -16.5t17 -39.5t-17 -40t-40 -17t-39.5 17t-16.5 40z" />
    <glyph glyph-name="Yacute" unicode="&#xdd;" horiz-adv-x="708" 
d="M-34 694h332v-35l-23 -3q-44 -6 -44 -27q0 -16 16 -44q14 -23 141 -226q82 113 150 224q16 26 16 41q0 23 -48 32l-23 4v34h245v-35l-23 -3q-26 -4 -45.5 -20t-49.5 -58q-126 -176 -194 -281q0 -152 2 -205q1 -31 11.5 -42.5t40.5 -13.5l35 -3v-33h-315v33l32 3
q32 3 43 14t12 42q3 99 3 203q-98 129 -192 284q-25 41 -47.5 57t-51.5 20l-23 3v35zM420 870h106q12 0 14.5 -8.5t-8.5 -16.5l-198 -122l-30 13z" />
    <glyph glyph-name="Thorn" unicode="&#xde;" horiz-adv-x="661" 
d="M25 694h318v-35l-35 -3q-30 -2 -40 -13.5t-12 -42.5q-1 -10 -1 -32h98q144 0 216.5 -57t72.5 -146q0 -88 -71 -148.5t-194 -60.5q-63 0 -127 12q0 -13 0.5 -40t1.5 -36q1 -31 11.5 -42.5t40.5 -13.5l35 -3v-33h-314v33l32 3q32 3 43 14t12 42q3 132 3 256q0 123 -3 252
q-1 31 -12 42t-43 14l-32 3v35zM250 346v-126q39 -9 80 -9q79 0 120 41.5t41 110.5q0 72 -41 115.5t-133 43.5q-39 0 -64 -5q-3 -89 -3 -171z" />
    <glyph glyph-name="germandbls" unicode="&#xdf;" horiz-adv-x="626" 
d="M331 705q102 0 152 -43t50 -108q0 -54 -29.5 -97.5t-82.5 -61.5q84 -14 126.5 -65.5t42.5 -132.5q0 -89 -51 -151t-141 -62q-66 0 -101.5 37.5t-38.5 130.5h32q4 -51 23 -71.5t58 -20.5q42 0 63 37.5t21 95.5q0 155 -151 156v40q52 0 77.5 41.5t25.5 96.5q0 54 -21 92
t-64 38q-48 0 -74.5 -31.5t-29.5 -85.5q-5 -116 -5 -261q0 -224 2 -279h-198v33l21 3q32 5 41 13.5t10 39.5q2 65 2 186q0 27 -1 97t-1 97q0 115 72 175.5t170 60.5z" />
    <glyph glyph-name="agrave" unicode="&#xe0;" horiz-adv-x="536" 
d="M314 257q-66 -11 -107.5 -44.5t-41.5 -82.5q0 -56 53 -56q39 0 65 30t30 90q1 22 1 63zM518 99l19 -22q-54 -87 -127 -87q-44 0 -63.5 24.5t-21.5 77.5q-50 -54 -90.5 -78.5t-88.5 -24.5q-49 0 -76.5 27t-27.5 76q0 97 140 161q31 14 76 32t56 23q0 48 -1 67
q-2 41 -20 61t-57 20q-32 0 -52 -15.5t-20 -36.5q0 -7 5.5 -22t5.5 -29q0 -22 -18 -38t-46 -16q-25 0 -40.5 15.5t-15.5 43.5q0 53 72 100.5t168 47.5q72 0 108.5 -33.5t36.5 -93.5q0 -31 -4 -116t-4 -133q0 -51 40 -51q24 0 46 20zM156 730h106l106 -176l-33 -13l-185 164
q-11 8 -8.5 16.5t14.5 8.5z" />
    <glyph glyph-name="aacute" unicode="&#xe1;" horiz-adv-x="536" 
d="M314 257q-66 -11 -107.5 -44.5t-41.5 -82.5q0 -56 53 -56q39 0 65 30t30 90q1 22 1 63zM518 99l19 -22q-54 -87 -127 -87q-44 0 -63.5 24.5t-21.5 77.5q-50 -54 -90.5 -78.5t-88.5 -24.5q-49 0 -76.5 27t-27.5 76q0 97 140 161q31 14 76 32t56 23q0 48 -1 67
q-2 41 -20 61t-57 20q-32 0 -52 -15.5t-20 -36.5q0 -7 5.5 -22t5.5 -29q0 -22 -18 -38t-46 -16q-25 0 -40.5 15.5t-15.5 43.5q0 53 72 100.5t168 47.5q72 0 108.5 -33.5t36.5 -93.5q0 -31 -4 -116t-4 -133q0 -51 40 -51q24 0 46 20zM291 730h106q12 0 14.5 -8.5t-8.5 -16.5
l-185 -164l-33 13z" />
    <glyph glyph-name="acircumflex" unicode="&#xe2;" horiz-adv-x="536" 
d="M314 257q-66 -11 -107.5 -44.5t-41.5 -82.5q0 -56 53 -56q39 0 65 30t30 90q1 22 1 63zM518 99l19 -22q-54 -87 -127 -87q-44 0 -63.5 24.5t-21.5 77.5q-50 -54 -90.5 -78.5t-88.5 -24.5q-49 0 -76.5 27t-27.5 76q0 97 140 161q31 14 76 32t56 23q0 48 -1 67
q-2 41 -20 61t-57 20q-32 0 -52 -15.5t-20 -36.5q0 -7 5.5 -22t5.5 -29q0 -22 -18 -38t-46 -16q-25 0 -40.5 15.5t-15.5 43.5q0 53 72 100.5t168 47.5q72 0 108.5 -33.5t36.5 -93.5q0 -31 -4 -116t-4 -133q0 -51 40 -51q24 0 46 20zM124 554l101 163q13 19 44 19
q34 0 44 -16l103 -166l-27 -13l-121 103l-117 -103z" />
    <glyph glyph-name="atilde" unicode="&#xe3;" horiz-adv-x="536" 
d="M314 257q-66 -11 -107.5 -44.5t-41.5 -82.5q0 -56 53 -56q39 0 65 30t30 90q1 22 1 63zM518 99l19 -22q-54 -87 -127 -87q-44 0 -63.5 24.5t-21.5 77.5q-50 -54 -90.5 -78.5t-88.5 -24.5q-49 0 -76.5 27t-27.5 76q0 97 140 161q31 14 76 32t56 23q0 48 -1 67
q-2 41 -20 61t-57 20q-32 0 -52 -15.5t-20 -36.5q0 -7 5.5 -22t5.5 -29q0 -22 -18 -38t-46 -16q-25 0 -40.5 15.5t-15.5 43.5q0 53 72 100.5t168 47.5q72 0 108.5 -33.5t36.5 -93.5q0 -31 -4 -116t-4 -133q0 -51 40 -51q24 0 46 20zM147 558l-34 8q1 59 28.5 101t70.5 42
q30 0 75 -33.5t63 -33.5q22 0 36 16t15 49l33 -4q-1 -60 -26.5 -100t-68.5 -40q-36 0 -77 32.5t-60 32.5q-53 0 -55 -70z" />
    <glyph glyph-name="adieresis" unicode="&#xe4;" horiz-adv-x="536" 
d="M314 257q-66 -11 -107.5 -44.5t-41.5 -82.5q0 -56 53 -56q39 0 65 30t30 90q1 22 1 63zM518 99l19 -22q-54 -87 -127 -87q-44 0 -63.5 24.5t-21.5 77.5q-50 -54 -90.5 -78.5t-88.5 -24.5q-49 0 -76.5 27t-27.5 76q0 97 140 161q31 14 76 32t56 23q0 48 -1 67
q-2 41 -20 61t-57 20q-32 0 -52 -15.5t-20 -36.5q0 -7 5.5 -22t5.5 -29q0 -22 -18 -38t-46 -16q-25 0 -40.5 15.5t-15.5 43.5q0 53 72 100.5t168 47.5q72 0 108.5 -33.5t36.5 -93.5q0 -31 -4 -116t-4 -133q0 -51 40 -51q24 0 46 20zM123 630q0 23 16.5 39.5t38.5 16.5
q24 0 40.5 -16.5t16.5 -39.5t-16.5 -40t-40.5 -17q-22 0 -38.5 17t-16.5 40zM333 630q0 23 16.5 39.5t40.5 16.5q22 0 38.5 -16.5t16.5 -39.5t-16.5 -40t-38.5 -17q-24 0 -40.5 16.5t-16.5 40.5z" />
    <glyph glyph-name="aring" unicode="&#xe5;" horiz-adv-x="536" 
d="M314 257q-66 -11 -107.5 -44.5t-41.5 -82.5q0 -56 53 -56q39 0 65 30t30 90q1 22 1 63zM518 99l19 -22q-54 -87 -127 -87q-44 0 -63.5 24.5t-21.5 77.5q-50 -54 -90.5 -78.5t-88.5 -24.5q-49 0 -76.5 27t-27.5 76q0 97 140 161q31 14 76 32t56 23q0 48 -1 67
q-2 41 -20 61t-57 20q-32 0 -52 -15.5t-20 -36.5q0 -7 5.5 -22t5.5 -29q0 -22 -18 -38t-46 -16q-25 0 -40.5 15.5t-15.5 43.5q0 53 72 100.5t168 47.5q72 0 108.5 -33.5t36.5 -93.5q0 -31 -4 -116t-4 -133q0 -51 40 -51q24 0 46 20zM170 636q0 42 31.5 72.5t73.5 30.5
q43 0 74.5 -30.5t31.5 -72.5q0 -45 -31 -75t-75 -30q-43 0 -74 30t-31 75zM274 685q-22 0 -36 -15t-14 -38t14.5 -39.5t35.5 -16.5q24 0 39 16.5t15 39.5q0 24 -15 38.5t-39 14.5z" />
    <glyph glyph-name="ae" unicode="&#xe6;" horiz-adv-x="775" 
d="M740 266h-308q1 -86 41 -131.5t105 -45.5q44 0 75.5 22.5t42.5 61.5h37q-34 -189 -208 -189q-66 0 -111.5 36t-67.5 98q-55 -68 -102.5 -98.5t-97.5 -30.5q-49 0 -76.5 26.5t-27.5 76.5q0 96 140 161q31 14 76 32t56 23q0 48 -1 67q-2 41 -20 61t-57 20q-32 0 -52.5 -15
t-20.5 -37q0 -8 6 -24t6 -31q0 -23 -18.5 -39.5t-47.5 -16.5q-27 0 -43 16t-16 46q0 54 74 102.5t171 48.5q87 0 108 -65q60 65 153 65q53 0 91 -18.5t58 -49t28.5 -62t8.5 -64.5q0 -12 -2 -46zM433 314l163 2q16 2 23 10.5t7 29.5q0 46 -21 75.5t-64 29.5q-42 0 -72.5 -36
t-35.5 -111zM314 257q-67 -11 -108 -45t-41 -81q0 -57 54 -57q38 0 64 30.5t29 90.5q2 42 2 62z" />
    <glyph glyph-name="ccedilla" unicode="&#xe7;" horiz-adv-x="477" 
d="M415 182h38q-26 -181 -183 -196l-22 -31q121 0 121 -78q0 -41 -38.5 -64t-96.5 -23q-51 0 -94 23l15 32q23 -13 66 -13q61 0 61 34q0 37 -95 37l-5 8l45 74q-85 7 -138.5 77t-53.5 167q0 115 71.5 196t183.5 81q84 0 125 -33t41 -80q0 -32 -18 -49.5t-44 -17.5
q-56 0 -56 61q0 38 -13.5 55t-51.5 17q-50 0 -81 -46.5t-31 -123.5q0 -91 36 -146t99 -55q99 0 119 94z" />
    <glyph glyph-name="egrave" unicode="&#xe8;" horiz-adv-x="503" 
d="M161 314l163 2q16 2 23 10.5t7 29.5q0 46 -21 75.5t-64 29.5q-42 0 -72.5 -36t-35.5 -111zM468 266h-308q1 -86 41 -131.5t105 -45.5q44 0 75.5 22t42.5 61h37q-34 -188 -208 -188q-98 0 -156.5 72.5t-58.5 178.5q0 115 70.5 193t175.5 78q53 0 91 -18.5t58 -49t28.5 -62
t8.5 -64.5q0 -12 -2 -46zM166 730h106l106 -176l-33 -13l-185 164q-11 8 -8.5 16.5t14.5 8.5z" />
    <glyph glyph-name="eacute" unicode="&#xe9;" horiz-adv-x="503" 
d="M161 314l163 2q16 2 23 10.5t7 29.5q0 46 -21 75.5t-64 29.5q-42 0 -72.5 -36t-35.5 -111zM468 266h-308q1 -86 41 -131.5t105 -45.5q44 0 75.5 22t42.5 61h37q-34 -188 -208 -188q-98 0 -156.5 72.5t-58.5 178.5q0 115 70.5 193t175.5 78q53 0 91 -18.5t58 -49t28.5 -62
t8.5 -64.5q0 -12 -2 -46zM302 730h106q12 0 14.5 -8.5t-8.5 -16.5l-185 -164l-33 13z" />
    <glyph glyph-name="ecircumflex" unicode="&#xea;" horiz-adv-x="503" 
d="M161 314l163 2q16 2 23 10.5t7 29.5q0 46 -21 75.5t-64 29.5q-42 0 -72.5 -36t-35.5 -111zM468 266h-308q1 -86 41 -131.5t105 -45.5q44 0 75.5 22t42.5 61h37q-34 -188 -208 -188q-98 0 -156.5 72.5t-58.5 178.5q0 115 70.5 193t175.5 78q53 0 91 -18.5t58 -49t28.5 -62
t8.5 -64.5q0 -12 -2 -46zM132 554l101 163q13 19 44 19q34 0 44 -16l103 -166l-27 -13l-121 103l-117 -103z" />
    <glyph glyph-name="edieresis" unicode="&#xeb;" horiz-adv-x="503" 
d="M161 314l163 2q16 2 23 10.5t7 29.5q0 46 -21 75.5t-64 29.5q-42 0 -72.5 -36t-35.5 -111zM468 266h-308q1 -86 41 -131.5t105 -45.5q44 0 75.5 22t42.5 61h37q-34 -188 -208 -188q-98 0 -156.5 72.5t-58.5 178.5q0 115 70.5 193t175.5 78q53 0 91 -18.5t58 -49t28.5 -62
t8.5 -64.5q0 -12 -2 -46zM114 630q0 23 16.5 39.5t38.5 16.5q24 0 40.5 -16.5t16.5 -39.5t-16.5 -40t-40.5 -17q-22 0 -38.5 17t-16.5 40zM324 630q0 23 16.5 39.5t40.5 16.5q22 0 38.5 -16.5t16.5 -39.5t-16.5 -40t-38.5 -17q-24 0 -40.5 16.5t-16.5 40.5z" />
    <glyph glyph-name="igrave" unicode="&#xec;" horiz-adv-x="309" 
d="M25 730h106l106 -176l-33 -13l-185 164q-11 8 -8.5 16.5t14.5 8.5zM29 432v35q121 18 194 42l8 -4q-6 -104 -6 -254q0 -128 2 -164q1 -29 9 -38t36 -13l23 -3v-33h-266v33l20 3q32 5 40.5 12.5t9.5 38.5q3 75 3 147q0 46 -3 145q-2 31 -10 39t-42 12z" />
    <glyph glyph-name="iacute" unicode="&#xed;" horiz-adv-x="309" 
d="M169 730h106q12 0 14.5 -8.5t-8.5 -16.5l-185 -164l-33 13zM29 432v35q121 18 194 42l8 -4q-6 -104 -6 -254q0 -128 2 -164q1 -29 9 -38t36 -13l23 -3v-33h-266v33l20 3q32 5 40.5 12.5t9.5 38.5q3 75 3 147q0 46 -3 145q-2 31 -10 39t-42 12z" />
    <glyph glyph-name="icircumflex" unicode="&#xee;" horiz-adv-x="309" 
d="M29 432v35q121 18 194 42l8 -4q-6 -104 -6 -254q0 -128 2 -164q1 -29 9 -38t36 -13l23 -3v-33h-266v33l20 3q32 5 40.5 12.5t9.5 38.5q3 75 3 147q0 46 -3 145q-2 31 -10 39t-42 12zM20 554l101 163q13 19 44 19q34 0 44 -16l103 -166l-27 -13l-121 103l-117 -103z" />
    <glyph glyph-name="idieresis" unicode="&#xef;" horiz-adv-x="309" 
d="M-3 630q0 23 16.5 39.5t38.5 16.5q24 0 40.5 -16.5t16.5 -39.5t-16.5 -40t-40.5 -17q-22 0 -38.5 17t-16.5 40zM207 630q0 23 16.5 39.5t40.5 16.5q22 0 38.5 -16.5t16.5 -39.5t-16.5 -40t-38.5 -17q-24 0 -40.5 16.5t-16.5 40.5zM29 432v35q121 18 194 42l8 -4
q-6 -104 -6 -254q0 -128 2 -164q1 -29 9 -38t36 -13l23 -3v-33h-266v33l20 3q32 5 40.5 12.5t9.5 38.5q3 75 3 147q0 46 -3 145q-2 31 -10 39t-42 12z" />
    <glyph glyph-name="eth" unicode="&#xf0;" horiz-adv-x="570" 
d="M116 686l2 38q112 0 220 -50l87 40l22 -36l-68 -32q73 -52 113 -144.5t40 -202.5q0 -146 -77.5 -230.5t-196.5 -84.5q-104 0 -163.5 68.5t-59.5 178.5q0 113 69 192.5t185 79.5q64 0 106 -47q-8 44 -32 84.5t-59 67.5l-110 -50l-22 37l91 42q-75 44 -147 49zM278 458
q-51 0 -80 -48.5t-29 -144.5q0 -103 33.5 -162t90.5 -59q50 0 79 54t29 147q0 213 -123 213z" />
    <glyph glyph-name="ntilde" unicode="&#xf1;" horiz-adv-x="634" 
d="M29 432v35q127 19 192 42l6 -3v-92q113 92 201 92q121 0 121 -124q0 -26 -1 -83.5t-1 -87.5q0 -82 2 -124q1 -31 9 -39t38 -12l23 -3v-33h-260v33l18 3q29 5 37 12.5t9 38.5q2 41 2 121q0 32 -2 122q-3 49 -20 69t-52 20q-52 0 -86.5 -33t-37.5 -98q-2 -35 -2 -101
q0 -64 2 -100q1 -30 8 -38.5t34 -12.5l21 -3v-33h-261v33l20 3q32 5 40.5 12.5t9.5 38.5q3 75 3 147t-3 145q-2 31 -10 39t-42 12zM197 558l-34 8q1 59 28.5 101t70.5 42q30 0 75 -33.5t63 -33.5q22 0 36 16t15 49l33 -4q-1 -60 -26.5 -100t-68.5 -40q-36 0 -77 32.5
t-60 32.5q-53 0 -55 -70z" />
    <glyph glyph-name="ograve" unicode="&#xf2;" horiz-adv-x="577" 
d="M293 506q113 0 181 -72t68 -189q0 -115 -74.5 -188t-183.5 -73q-113 0 -181 72t-68 189q0 114 74.5 187.5t183.5 73.5zM278 459q-48 0 -76.5 -51.5t-28.5 -141.5q0 -111 35.5 -173.5t90.5 -62.5q47 0 75.5 52t28.5 139q0 115 -35 176.5t-90 61.5zM183 730h106l106 -176
l-33 -13l-185 164q-11 8 -8.5 16.5t14.5 8.5z" />
    <glyph glyph-name="oacute" unicode="&#xf3;" horiz-adv-x="577" 
d="M293 506q113 0 181 -72t68 -189q0 -115 -74.5 -188t-183.5 -73q-113 0 -181 72t-68 189q0 114 74.5 187.5t183.5 73.5zM278 459q-48 0 -76.5 -51.5t-28.5 -141.5q0 -111 35.5 -173.5t90.5 -62.5q47 0 75.5 52t28.5 139q0 115 -35 176.5t-90 61.5zM311 730h106
q12 0 14.5 -8.5t-8.5 -16.5l-185 -164l-33 13z" />
    <glyph glyph-name="ocircumflex" unicode="&#xf4;" horiz-adv-x="577" 
d="M293 506q113 0 181 -72t68 -189q0 -115 -74.5 -188t-183.5 -73q-113 0 -181 72t-68 189q0 114 74.5 187.5t183.5 73.5zM278 459q-48 0 -76.5 -51.5t-28.5 -141.5q0 -111 35.5 -173.5t90.5 -62.5q47 0 75.5 52t28.5 139q0 115 -35 176.5t-90 61.5zM142 554l101 163
q13 19 44 19q34 0 44 -16l103 -166l-27 -13l-121 103l-117 -103z" />
    <glyph glyph-name="otilde" unicode="&#xf5;" horiz-adv-x="577" 
d="M293 506q113 0 181 -72t68 -189q0 -115 -74.5 -188t-183.5 -73q-113 0 -181 72t-68 189q0 114 74.5 187.5t183.5 73.5zM278 459q-48 0 -76.5 -51.5t-28.5 -141.5q0 -111 35.5 -173.5t90.5 -62.5q47 0 75.5 52t28.5 139q0 115 -35 176.5t-90 61.5zM162 558l-34 8
q1 59 28.5 101t70.5 42q30 0 75 -33.5t63 -33.5q22 0 36 16t15 49l33 -4q-1 -60 -26.5 -100t-68.5 -40q-36 0 -77 32.5t-60 32.5q-53 0 -55 -70z" />
    <glyph glyph-name="odieresis" unicode="&#xf6;" horiz-adv-x="577" 
d="M293 506q113 0 181 -72t68 -189q0 -115 -74.5 -188t-183.5 -73q-113 0 -181 72t-68 189q0 114 74.5 187.5t183.5 73.5zM278 459q-48 0 -76.5 -51.5t-28.5 -141.5q0 -111 35.5 -173.5t90.5 -62.5q47 0 75.5 52t28.5 139q0 115 -35 176.5t-90 61.5zM127 630q0 23 16.5 39.5
t38.5 16.5q24 0 40.5 -16.5t16.5 -39.5t-16.5 -40t-40.5 -17q-22 0 -38.5 17t-16.5 40zM337 630q0 23 16.5 39.5t40.5 16.5q22 0 38.5 -16.5t16.5 -39.5t-16.5 -40t-38.5 -17q-24 0 -40.5 16.5t-16.5 40.5z" />
    <glyph glyph-name="divide" unicode="&#xf7;" horiz-adv-x="650" 
d="M324 147q34 0 56 -22t22 -56q0 -33 -22 -55.5t-56 -22.5q-33 0 -55 22.5t-22 55.5q0 34 22 56t55 22zM324 568q34 0 56 -22.5t22 -56.5q0 -33 -22 -55t-56 -22q-33 0 -55.5 22t-22.5 55q0 34 22.5 56.5t55.5 22.5zM50 325h550v-93h-550v93z" />
    <glyph glyph-name="oslash" unicode="&#xf8;" horiz-adv-x="577" 
d="M472 535l46 -28l-52 -66q76 -73 76 -196q0 -115 -74.5 -188t-183.5 -73q-76 0 -137 36l-52 -72l-46 28l57 77q-71 69 -71 192q0 114 74.5 187.5t183.5 73.5q73 0 130 -34zM388 339l-181 -241q33 -68 92 -68q47 0 75.5 52t28.5 139q0 70 -15 118zM187 160l180 239
q-33 60 -89 60q-48 0 -76.5 -51.5t-28.5 -141.5q0 -61 14 -106z" />
    <glyph glyph-name="ugrave" unicode="&#xf9;" horiz-adv-x="619" 
d="M19 489h199q-5 -88 -5 -188q0 -97 2 -142q2 -50 17 -69t50 -19q51 0 84 33t36 98q2 35 2 98q0 65 -2 101q-1 30 -8 38.5t-34 12.5l-21 3v34h192q-4 -114 -4 -232q0 -106 4 -170q2 -30 10 -38.5t39 -12.5l22 -3v-33h-198v77q-115 -94 -196 -94q-119 0 -119 124
q0 26 1 83.5t1 87.5q0 81 -2 123q-1 31 -9 39t-38 12l-23 3v34zM179 730h106l106 -176l-33 -13l-185 164q-11 8 -8.5 16.5t14.5 8.5z" />
    <glyph glyph-name="uacute" unicode="&#xfa;" horiz-adv-x="619" 
d="M19 489h199q-5 -88 -5 -188q0 -97 2 -142q2 -50 17 -69t50 -19q51 0 84 33t36 98q2 35 2 98q0 65 -2 101q-1 30 -8 38.5t-34 12.5l-21 3v34h192q-4 -114 -4 -232q0 -106 4 -170q2 -30 10 -38.5t39 -12.5l22 -3v-33h-198v77q-115 -94 -196 -94q-119 0 -119 124
q0 26 1 83.5t1 87.5q0 81 -2 123q-1 31 -9 39t-38 12l-23 3v34zM343 730h106q12 0 14.5 -8.5t-8.5 -16.5l-185 -164l-33 13z" />
    <glyph glyph-name="ucircumflex" unicode="&#xfb;" horiz-adv-x="619" 
d="M19 489h199q-5 -88 -5 -188q0 -97 2 -142q2 -50 17 -69t50 -19q51 0 84 33t36 98q2 35 2 98q0 65 -2 101q-1 30 -8 38.5t-34 12.5l-21 3v34h192q-4 -114 -4 -232q0 -106 4 -170q2 -30 10 -38.5t39 -12.5l22 -3v-33h-198v77q-115 -94 -196 -94q-119 0 -119 124
q0 26 1 83.5t1 87.5q0 81 -2 123q-1 31 -9 39t-38 12l-23 3v34zM149 554l101 163q13 19 44 19q34 0 44 -16l103 -166l-27 -13l-121 103l-117 -103z" />
    <glyph glyph-name="udieresis" unicode="&#xfc;" horiz-adv-x="619" 
d="M19 489h199q-5 -88 -5 -188q0 -97 2 -142q2 -50 17 -69t50 -19q51 0 84 33t36 98q2 35 2 98q0 65 -2 101q-1 30 -8 38.5t-34 12.5l-21 3v34h192q-4 -114 -4 -232q0 -106 4 -170q2 -30 10 -38.5t39 -12.5l22 -3v-33h-198v77q-115 -94 -196 -94q-119 0 -119 124
q0 26 1 83.5t1 87.5q0 81 -2 123q-1 31 -9 39t-38 12l-23 3v34zM140 630q0 23 16.5 39.5t38.5 16.5q24 0 40.5 -16.5t16.5 -39.5t-16.5 -40t-40.5 -17q-22 0 -38.5 17t-16.5 40zM350 630q0 23 16.5 39.5t40.5 16.5q22 0 38.5 -16.5t16.5 -39.5t-16.5 -40t-38.5 -17
q-24 0 -40.5 16.5t-16.5 40.5z" />
    <glyph glyph-name="yacute" unicode="&#xfd;" horiz-adv-x="513" 
d="M-10 489h262v-34l-19 -2q-42 -5 -42 -29q0 -33 105 -312q39 99 71.5 194.5t32.5 112.5q0 30 -38 34l-19 2v34h184v-34l-11 -2q-20 -5 -30.5 -15t-23.5 -40q-91 -207 -172 -441q-60 -167 -159 -167q-52 0 -86 40.5t-34 128.5l35 2q4 -35 29.5 -54t59.5 -19q69 0 89 71
q-67 213 -172 450q-10 23 -20 31.5t-31 12.5l-11 2v34zM317 730h106q12 0 14.5 -8.5t-8.5 -16.5l-185 -164l-33 13z" />
    <glyph glyph-name="thorn" unicode="&#xfe;" horiz-adv-x="613" 
d="M326 432q-54 0 -85.5 -55.5t-31.5 -152.5q0 -102 29 -147.5t87 -45.5q51 0 85 53t34 149q0 89 -30 144t-88 55zM20 660v34q107 12 200 42l5 -3q-9 -132 -9 -319q85 92 180 92q82 0 132 -69t50 -168q0 -71 -28.5 -134t-89 -106t-140.5 -43q-43 0 -101 30q0 -79 3 -130
q2 -31 9.5 -40t39.5 -12l50 -3v-33h-298v33l20 3q33 5 41.5 13t9.5 38v394q0 222 -4 326q-1 31 -9.5 40t-42.5 13z" />
    <glyph glyph-name="ydieresis" unicode="&#xff;" horiz-adv-x="513" 
d="M-10 489h262v-34l-19 -2q-42 -5 -42 -29q0 -33 105 -312q39 99 71.5 194.5t32.5 112.5q0 30 -38 34l-19 2v34h184v-34l-11 -2q-20 -5 -30.5 -15t-23.5 -40q-91 -207 -172 -441q-60 -167 -159 -167q-52 0 -86 40.5t-34 128.5l35 2q4 -35 29.5 -54t59.5 -19q69 0 89 71
q-67 213 -172 450q-10 23 -20 31.5t-31 12.5l-11 2v34zM125 630q0 23 16.5 39.5t38.5 16.5q24 0 40.5 -16.5t16.5 -39.5t-16.5 -40t-40.5 -17q-22 0 -38.5 17t-16.5 40zM335 630q0 23 16.5 39.5t40.5 16.5q22 0 38.5 -16.5t16.5 -39.5t-16.5 -40t-38.5 -17q-24 0 -40.5 16.5
t-16.5 40.5z" />
    <glyph glyph-name="Amacron" unicode="&#x100;" horiz-adv-x="683" 
d="M294 530q-31 -75 -90 -231h178q-33 89 -88 231zM298 702h72q91 -248 254 -620q12 -27 22 -36t32 -11l24 -3v-32h-307v32l27 3q42 4 42 30q0 18 -62 181h-217q-59 -157 -59 -178q0 -29 40 -33l29 -3v-32h-225v32l25 3q23 2 34.5 13.5t26.5 45.5q103 236 242 608zM200 832
h263v-60h-263v60z" />
    <glyph glyph-name="amacron" unicode="&#x101;" horiz-adv-x="536" 
d="M314 257q-66 -11 -107.5 -44.5t-41.5 -82.5q0 -56 53 -56q39 0 65 30t30 90q1 22 1 63zM518 99l19 -22q-54 -87 -127 -87q-44 0 -63.5 24.5t-21.5 77.5q-50 -54 -90.5 -78.5t-88.5 -24.5q-49 0 -76.5 27t-27.5 76q0 97 140 161q31 14 76 32t56 23q0 48 -1 67
q-2 41 -20 61t-57 20q-32 0 -52 -15.5t-20 -36.5q0 -7 5.5 -22t5.5 -29q0 -22 -18 -38t-46 -16q-25 0 -40.5 15.5t-15.5 43.5q0 53 72 100.5t168 47.5q72 0 108.5 -33.5t36.5 -93.5q0 -31 -4 -116t-4 -133q0 -51 40 -51q24 0 46 20zM145 644h263v-57h-263v57z" />
    <glyph glyph-name="Abreve" unicode="&#x102;" horiz-adv-x="683" 
d="M294 530q-31 -75 -90 -231h178q-33 89 -88 231zM298 702h72q91 -248 254 -620q12 -27 22 -36t32 -11l24 -3v-32h-307v32l27 3q42 4 42 30q0 18 -62 181h-217q-59 -157 -59 -178q0 -29 40 -33l29 -3v-32h-225v32l25 3q23 2 34.5 13.5t26.5 45.5q103 236 242 608zM188 855
l30 12q10 -38 38 -51t77 -13q104 0 119 64l31 -12q-31 -127 -149 -127q-111 0 -146 127z" />
    <glyph glyph-name="abreve" unicode="&#x103;" horiz-adv-x="536" 
d="M314 257q-66 -11 -107.5 -44.5t-41.5 -82.5q0 -56 53 -56q39 0 65 30t30 90q1 22 1 63zM518 99l19 -22q-54 -87 -127 -87q-44 0 -63.5 24.5t-21.5 77.5q-50 -54 -90.5 -78.5t-88.5 -24.5q-49 0 -76.5 27t-27.5 76q0 97 140 161q31 14 76 32t56 23q0 48 -1 67
q-2 41 -20 61t-57 20q-32 0 -52 -15.5t-20 -36.5q0 -7 5.5 -22t5.5 -29q0 -22 -18 -38t-46 -16q-25 0 -40.5 15.5t-15.5 43.5q0 53 72 100.5t168 47.5q72 0 108.5 -33.5t36.5 -93.5q0 -31 -4 -116t-4 -133q0 -51 40 -51q24 0 46 20zM133 716l29 9q17 -44 39 -58t66 -14
t68.5 14.5t40.5 57.5l30 -9q-27 -147 -138 -147q-52 0 -85 34.5t-50 112.5z" />
    <glyph glyph-name="Aogonek" unicode="&#x104;" horiz-adv-x="683" 
d="M298 702h72q91 -248 254 -620q12 -27 22 -36t32 -11l24 -3v-32h-93q-76 -33 -76 -108q0 -54 54 -54q35 0 60 24l20 -24q-45 -50 -115 -50q-107 0 -107 83t104 129h-154v32l27 3q42 4 42 30q0 18 -62 181h-217q-59 -157 -59 -178q0 -29 40 -33l29 -3v-32h-225v32l25 3
q23 2 34.5 13.5t26.5 45.5q103 236 242 608zM294 530q-31 -75 -90 -231h178q-33 89 -88 231z" />
    <glyph glyph-name="aogonek" unicode="&#x105;" horiz-adv-x="536" 
d="M518 99l19 -22q-46 -73 -104 -84q-61 -36 -61 -101q0 -54 54 -54q35 0 60 24l20 -24q-45 -50 -115 -50q-107 0 -107 83q0 77 93 124q-49 15 -52 97q-50 -54 -90.5 -78.5t-88.5 -24.5q-49 0 -76.5 27t-27.5 76q0 97 140 161q31 14 76 32t56 23q0 48 -1 67q-2 41 -20 61
t-57 20q-32 0 -52 -15.5t-20 -36.5q0 -7 5.5 -22t5.5 -29q0 -22 -18 -38t-46 -16q-25 0 -40.5 15.5t-15.5 43.5q0 53 72 100.5t168 47.5q72 0 108.5 -33.5t36.5 -93.5q0 -31 -4 -116t-4 -133q0 -51 40 -51q24 0 46 20zM314 257q-66 -11 -107.5 -44.5t-41.5 -82.5
q0 -56 53 -56q39 0 65 30t30 90q1 22 1 63z" />
    <glyph glyph-name="Cacute" unicode="&#x106;" horiz-adv-x="707" 
d="M632 666l14 -188h-35q-10 87 -66 134t-130 47q-92 0 -157.5 -83.5t-65.5 -226.5q0 -147 65.5 -229.5t157.5 -82.5q74 0 130 47t66 133h35l-14 -185q-110 -48 -230 -48q-164 0 -264.5 90t-100.5 257q0 163 107 271t265 108q112 0 223 -44zM414 870h106q12 0 14.5 -8.5
t-8.5 -16.5l-198 -122l-30 13z" />
    <glyph glyph-name="cacute" unicode="&#x107;" horiz-adv-x="477" 
d="M415 182h38q-14 -100 -68.5 -149t-140.5 -49q-92 0 -150.5 71.5t-58.5 173.5q0 115 71.5 196t183.5 81q84 0 125 -33t41 -80q0 -32 -18 -49.5t-44 -17.5q-56 0 -56 61q0 38 -13.5 55t-51.5 17q-50 0 -81 -46.5t-31 -123.5q0 -91 36 -146t99 -55q99 0 119 94zM301 730h106
q12 0 14.5 -8.5t-8.5 -16.5l-185 -164l-33 13z" />
    <glyph glyph-name="Ccircumflex" unicode="&#x108;" horiz-adv-x="707" 
d="M632 666l14 -188h-35q-10 87 -66 134t-130 47q-92 0 -157.5 -83.5t-65.5 -226.5q0 -147 65.5 -229.5t157.5 -82.5q74 0 130 47t66 133h35l-14 -185q-110 -48 -230 -48q-164 0 -264.5 90t-100.5 257q0 163 107 271t265 108q112 0 223 -44zM256 744l103 112q19 19 49 19
q33 0 49 -16l106 -115l-30 -13l-126 69l-122 -69z" />
    <glyph glyph-name="ccircumflex" unicode="&#x109;" horiz-adv-x="477" 
d="M415 182h38q-14 -100 -68.5 -149t-140.5 -49q-92 0 -150.5 71.5t-58.5 173.5q0 115 71.5 196t183.5 81q84 0 125 -33t41 -80q0 -32 -18 -49.5t-44 -17.5q-56 0 -56 61q0 38 -13.5 55t-51.5 17q-50 0 -81 -46.5t-31 -123.5q0 -91 36 -146t99 -55q99 0 119 94zM132 554
l101 163q13 19 44 19q34 0 44 -16l103 -166l-27 -13l-121 103l-117 -103z" />
    <glyph glyph-name="Cdotaccent" unicode="&#x10a;" horiz-adv-x="707" 
d="M632 666l14 -188h-35q-10 87 -66 134t-130 47q-92 0 -157.5 -83.5t-65.5 -226.5q0 -147 65.5 -229.5t157.5 -82.5q74 0 130 47t66 133h35l-14 -185q-110 -48 -230 -48q-164 0 -264.5 90t-100.5 257q0 163 107 271t265 108q112 0 223 -44zM409 868q25 0 42.5 -17.5
t17.5 -41.5q0 -25 -17.5 -42.5t-42.5 -17.5q-24 0 -41.5 17.5t-17.5 42.5q0 24 17.5 41.5t41.5 17.5z" />
    <glyph glyph-name="cdotaccent" unicode="&#x10b;" horiz-adv-x="477" 
d="M415 182h38q-14 -100 -68.5 -149t-140.5 -49q-92 0 -150.5 71.5t-58.5 173.5q0 115 71.5 196t183.5 81q84 0 125 -33t41 -80q0 -32 -18 -49.5t-44 -17.5q-56 0 -56 61q0 38 -13.5 55t-51.5 17q-50 0 -81 -46.5t-31 -123.5q0 -91 36 -146t99 -55q99 0 119 94zM269 687
q25 0 43 -17.5t18 -41.5q0 -26 -18 -43.5t-43 -17.5q-24 0 -41.5 18t-17.5 43q0 24 17.5 41.5t41.5 17.5z" />
    <glyph glyph-name="Ccaron" unicode="&#x10c;" horiz-adv-x="707" 
d="M632 666l14 -188h-35q-10 87 -66 134t-130 47q-92 0 -157.5 -83.5t-65.5 -226.5q0 -147 65.5 -229.5t157.5 -82.5q74 0 130 47t66 133h35l-14 -185q-110 -48 -230 -48q-164 0 -264.5 90t-100.5 257q0 163 107 271t265 108q112 0 223 -44zM245 864l29 13l126 -69l122 69
l30 -13l-104 -112q-19 -19 -49 -19q-33 0 -49 16z" />
    <glyph glyph-name="ccaron" unicode="&#x10d;" horiz-adv-x="477" 
d="M415 182h38q-14 -100 -68.5 -149t-140.5 -49q-92 0 -150.5 71.5t-58.5 173.5q0 115 71.5 196t183.5 81q84 0 125 -33t41 -80q0 -32 -18 -49.5t-44 -17.5q-56 0 -56 61q0 38 -13.5 55t-51.5 17q-50 0 -81 -46.5t-31 -123.5q0 -91 36 -146t99 -55q99 0 119 94zM134 727
l27 13l121 -103l117 103l27 -13l-101 -163q-13 -19 -44 -19q-34 0 -44 16z" />
    <glyph glyph-name="Dcaron" unicode="&#x10e;" horiz-adv-x="788" 
d="M25 694h305q212 0 316.5 -87.5t104.5 -240.5q0 -166 -115.5 -266t-317.5 -100h-293v33l32 3q32 3 43 14t12 42q3 132 3 258q0 121 -3 250q-1 31 -12 42t-43 14l-32 3v35zM256 637q-6 -201 -6 -286q0 -107 2 -239q1 -37 18.5 -48.5t71.5 -11.5q110 0 184.5 82t74.5 223
q0 149 -66 217t-210 68q-41 0 -69 -5zM206 864l29 13l126 -69l122 69l30 -13l-104 -112q-19 -19 -49 -19q-33 0 -49 16z" />
    <glyph glyph-name="dcaron" unicode="&#x10f;" horiz-adv-x="632" 
d="M314 694q113 11 209 42l5 -3q-8 -128 -8 -415q0 -143 2 -198q1 -31 8.5 -40t37.5 -13l24 -3v-33q-98 -13 -178 -45l-6 3v93q-86 -98 -189 -98q-82 0 -132 69t-50 169q0 112 70 198t189 86q42 0 100 -30q0 59 -2 129q-2 31 -11 40.5t-42 12.5l-27 2v34zM291 459
q-51 0 -85 -52.5t-34 -148.5q0 -89 29.5 -144t87.5 -55q54 0 86 56t32 152q0 102 -29 147t-87 45zM584 525l-22 21q41 34 41 68q0 20 -18 42t-18 46q0 19 14 33t41 14q58 0 58 -71q0 -87 -96 -153z" />
    <glyph glyph-name="Dcroat" unicode="&#x110;" horiz-adv-x="793" 
d="M36 694h305q212 0 316.5 -87.5t104.5 -240.5q0 -166 -115.5 -266t-317.5 -100h-293v33l32 3q32 3 43 14t12 42q3 124 3 246h-101v55h101q0 11 -1 88.5t-2 118.5q-1 32 -12 42.5t-43 13.5l-32 3v35zM262 393h130v-55h-130q0 -164 2 -226q1 -37 18 -48.5t71 -11.5
q110 0 185 82t75 223q0 149 -66.5 217t-210.5 68q-39 0 -69 -5q-3 -81 -5 -244z" />
    <glyph glyph-name="dcroat" unicode="&#x111;" horiz-adv-x="610" 
d="M309 605h85q-2 31 -11 40.5t-42 12.5l-27 2v34q113 11 209 42l5 -3q-4 -55 -6 -128h72v-47h-73q-1 -83 -1 -240q0 -143 2 -198q1 -31 8.5 -40t37.5 -13l24 -3v-33q-98 -13 -178 -45l-6 3v93q-86 -98 -189 -98q-82 0 -132 69t-50 169q0 112 70 198t189 86q42 0 100 -30
q0 54 -1 82h-86v47zM291 459q-51 0 -85 -52.5t-34 -148.5q0 -89 29.5 -144t87.5 -55q54 0 86 56t32 152q0 102 -29 147t-87 45z" />
    <glyph glyph-name="Emacron" unicode="&#x112;" horiz-adv-x="642" 
d="M25 694h545v-202h-34q-5 86 -35 117.5t-110 31.5q-95 0 -135 -2q-4 -73 -6 -249h74q53 0 71.5 16.5t21.5 75.5h37v-231h-37q-3 55 -21.5 73.5t-69.5 18.5h-76q0 -187 2 -238q1 -29 30 -40t112 -11q78 0 108 28.5t34 112.5h34v-195h-545v33l32 3q32 3 43 14t12 42
q3 132 3 256q0 125 -3 254q-1 31 -12 41.5t-43 12.5l-32 3v35zM208 832h263v-60h-263v60z" />
    <glyph glyph-name="emacron" unicode="&#x113;" horiz-adv-x="503" 
d="M161 314l163 2q16 2 23 10.5t7 29.5q0 46 -21 75.5t-64 29.5q-42 0 -72.5 -36t-35.5 -111zM468 266h-308q1 -86 41 -131.5t105 -45.5q44 0 75.5 22t42.5 61h37q-34 -188 -208 -188q-98 0 -156.5 72.5t-58.5 178.5q0 115 70.5 193t175.5 78q53 0 91 -18.5t58 -49t28.5 -62
t8.5 -64.5q0 -12 -2 -46zM142 644h263v-57h-263v57z" />
    <glyph glyph-name="Ebreve" unicode="&#x114;" horiz-adv-x="642" 
d="M25 694h545v-202h-34q-5 86 -35 117.5t-110 31.5q-95 0 -135 -2q-4 -73 -6 -249h74q53 0 71.5 16.5t21.5 75.5h37v-231h-37q-3 55 -21.5 73.5t-69.5 18.5h-76q0 -187 2 -238q1 -29 30 -40t112 -11q78 0 108 28.5t34 112.5h34v-195h-545v33l32 3q32 3 43 14t12 42
q3 132 3 256q0 125 -3 254q-1 31 -12 41.5t-43 12.5l-32 3v35zM183 855l30 12q10 -38 38 -51t77 -13q104 0 119 64l31 -12q-31 -127 -149 -127q-111 0 -146 127z" />
    <glyph glyph-name="ebreve" unicode="&#x115;" horiz-adv-x="503" 
d="M161 314l163 2q16 2 23 10.5t7 29.5q0 46 -21 75.5t-64 29.5q-42 0 -72.5 -36t-35.5 -111zM468 266h-308q1 -86 41 -131.5t105 -45.5q44 0 75.5 22t42.5 61h37q-34 -188 -208 -188q-98 0 -156.5 72.5t-58.5 178.5q0 115 70.5 193t175.5 78q53 0 91 -18.5t58 -49t28.5 -62
t8.5 -64.5q0 -12 -2 -46zM140 716l29 9q17 -44 39 -58t66 -14t68.5 14.5t40.5 57.5l30 -9q-27 -147 -138 -147q-52 0 -85 34.5t-50 112.5z" />
    <glyph glyph-name="Edotaccent" unicode="&#x116;" horiz-adv-x="642" 
d="M25 694h545v-202h-34q-5 86 -35 117.5t-110 31.5q-95 0 -135 -2q-4 -73 -6 -249h74q53 0 71.5 16.5t21.5 75.5h37v-231h-37q-3 55 -21.5 73.5t-69.5 18.5h-76q0 -187 2 -238q1 -29 30 -40t112 -11q78 0 108 28.5t34 112.5h34v-195h-545v33l32 3q32 3 43 14t12 42
q3 132 3 256q0 125 -3 254q-1 31 -12 41.5t-43 12.5l-32 3v35zM338 868q25 0 42.5 -17.5t17.5 -41.5q0 -25 -17.5 -42.5t-42.5 -17.5q-24 0 -41.5 17.5t-17.5 42.5q0 24 17.5 41.5t41.5 17.5z" />
    <glyph glyph-name="edotaccent" unicode="&#x117;" horiz-adv-x="503" 
d="M161 314l163 2q16 2 23 10.5t7 29.5q0 46 -21 75.5t-64 29.5q-42 0 -72.5 -36t-35.5 -111zM468 266h-308q1 -86 41 -131.5t105 -45.5q44 0 75.5 22t42.5 61h37q-34 -188 -208 -188q-98 0 -156.5 72.5t-58.5 178.5q0 115 70.5 193t175.5 78q53 0 91 -18.5t58 -49t28.5 -62
t8.5 -64.5q0 -12 -2 -46zM277 687q25 0 43 -17.5t18 -41.5q0 -26 -18 -43.5t-43 -17.5q-24 0 -41.5 18t-17.5 43q0 24 17.5 41.5t41.5 17.5z" />
    <glyph glyph-name="Eogonek" unicode="&#x118;" horiz-adv-x="642" 
d="M25 694h545v-202h-34q-5 86 -35 117.5t-110 31.5q-95 0 -135 -2q-4 -73 -6 -249h74q53 0 71.5 16.5t21.5 75.5h37v-231h-37q-3 55 -21.5 73.5t-69.5 18.5h-76q0 -187 2 -238q1 -29 30 -40t112 -11q78 0 108 28.5t34 112.5h34v-195h-55q-76 -33 -76 -108q0 -54 54 -54
q35 0 60 24l20 -24q-45 -50 -115 -50q-107 0 -107 83t104 129h-430v33l32 3q32 3 43 14t12 42q3 132 3 256q0 125 -3 254q-1 31 -12 41.5t-43 12.5l-32 3v35z" />
    <glyph glyph-name="eogonek" unicode="&#x119;" horiz-adv-x="503" 
d="M468 266h-308q1 -86 41 -131.5t105 -45.5q44 0 75.5 22t42.5 61h37q-27 -152 -149 -181q-57 -36 -57 -99q0 -54 54 -54q35 0 60 24l20 -24q-45 -50 -115 -50q-107 0 -107 83q0 68 74 113q-93 5 -148 76.5t-55 174.5q0 115 70.5 193t175.5 78q53 0 91 -18.5t58 -49
t28.5 -62t8.5 -64.5q0 -12 -2 -46zM161 314l163 2q16 2 23 10.5t7 29.5q0 46 -21 75.5t-64 29.5q-42 0 -72.5 -36t-35.5 -111z" />
    <glyph glyph-name="Ecaron" unicode="&#x11a;" horiz-adv-x="642" 
d="M25 694h545v-202h-34q-5 86 -35 117.5t-110 31.5q-95 0 -135 -2q-4 -73 -6 -249h74q53 0 71.5 16.5t21.5 75.5h37v-231h-37q-3 55 -21.5 73.5t-69.5 18.5h-76q0 -187 2 -238q1 -29 30 -40t112 -11q78 0 108 28.5t34 112.5h34v-195h-545v33l32 3q32 3 43 14t12 42
q3 132 3 256q0 125 -3 254q-1 31 -12 41.5t-43 12.5l-32 3v35zM172 864l29 13l126 -69l122 69l30 -13l-104 -112q-19 -19 -49 -19q-33 0 -49 16z" />
    <glyph glyph-name="ecaron" unicode="&#x11b;" horiz-adv-x="503" 
d="M161 314l163 2q16 2 23 10.5t7 29.5q0 46 -21 75.5t-64 29.5q-42 0 -72.5 -36t-35.5 -111zM468 266h-308q1 -86 41 -131.5t105 -45.5q44 0 75.5 22t42.5 61h37q-34 -188 -208 -188q-98 0 -156.5 72.5t-58.5 178.5q0 115 70.5 193t175.5 78q53 0 91 -18.5t58 -49t28.5 -62
t8.5 -64.5q0 -12 -2 -46zM133 727l27 13l121 -103l117 103l27 -13l-101 -163q-13 -19 -44 -19q-34 0 -44 16z" />
    <glyph glyph-name="Gcircumflex" unicode="&#x11c;" horiz-adv-x="780" 
d="M641 666l14 -188h-35q-10 87 -66 134t-130 47q-98 0 -165 -81t-67 -229t66.5 -230.5t162.5 -82.5q113 0 113 61v79q0 52 -17.5 70t-79.5 22v34h315v-36q-48 -5 -62.5 -21t-14.5 -67v-138q-121 -56 -273 -56q-164 0 -264.5 90t-100.5 257q0 166 110 272.5t271 106.5
q112 0 223 -44zM265 744l103 112q19 19 49 19q33 0 49 -16l106 -115l-30 -13l-126 69l-122 -69z" />
    <glyph glyph-name="gcircumflex" unicode="&#x11d;" horiz-adv-x="554" 
d="M406 489h138v-52h-118q49 -38 49 -114q0 -72 -59 -117t-152 -45q-15 0 -36 3t-29 3q-22 0 -38 -13t-16 -30q0 -16 13 -22.5t49 -6.5q167 0 222 -12q102 -23 102 -123q0 -78 -76.5 -126t-206.5 -48q-97 0 -156.5 30t-59.5 83q0 31 26.5 60t59.5 40q-77 16 -77 69
q0 66 108 126q-91 44 -91 144q0 70 54.5 118.5t141.5 48.5q34 0 79.5 -8t72.5 -8zM264 461q-36 0 -55.5 -31.5t-19.5 -86.5q0 -64 23 -100t63 -36q70 0 70 119q0 135 -81 135zM192 -14q-23 0 -40 -19t-17 -51q0 -39 35.5 -61t96.5 -22q73 0 112.5 27t39.5 67q0 44 -53 52
q-55 7 -174 7zM127 554l101 163q13 19 44 19q34 0 44 -16l103 -166l-27 -13l-121 103l-117 -103z" />
    <glyph glyph-name="Gbreve" unicode="&#x11e;" horiz-adv-x="780" 
d="M641 666l14 -188h-35q-10 87 -66 134t-130 47q-98 0 -165 -81t-67 -229t66.5 -230.5t162.5 -82.5q113 0 113 61v79q0 52 -17.5 70t-79.5 22v34h315v-36q-48 -5 -62.5 -21t-14.5 -67v-138q-121 -56 -273 -56q-164 0 -264.5 90t-100.5 257q0 166 110 272.5t271 106.5
q112 0 223 -44zM269 855l30 12q10 -38 38 -51t77 -13q104 0 119 64l31 -12q-31 -127 -149 -127q-111 0 -146 127z" />
    <glyph glyph-name="gbreve" unicode="&#x11f;" horiz-adv-x="554" 
d="M406 489h138v-52h-118q49 -38 49 -114q0 -72 -59 -117t-152 -45q-15 0 -36 3t-29 3q-22 0 -38 -13t-16 -30q0 -16 13 -22.5t49 -6.5q167 0 222 -12q102 -23 102 -123q0 -78 -76.5 -126t-206.5 -48q-97 0 -156.5 30t-59.5 83q0 31 26.5 60t59.5 40q-77 16 -77 69
q0 66 108 126q-91 44 -91 144q0 70 54.5 118.5t141.5 48.5q34 0 79.5 -8t72.5 -8zM264 461q-36 0 -55.5 -31.5t-19.5 -86.5q0 -64 23 -100t63 -36q70 0 70 119q0 135 -81 135zM192 -14q-23 0 -40 -19t-17 -51q0 -39 35.5 -61t96.5 -22q73 0 112.5 27t39.5 67q0 44 -53 52
q-55 7 -174 7zM140 716l29 9q17 -44 39 -58t66 -14t68.5 14.5t40.5 57.5l30 -9q-27 -147 -138 -147q-52 0 -85 34.5t-50 112.5z" />
    <glyph glyph-name="Gdotaccent" unicode="&#x120;" horiz-adv-x="780" 
d="M641 666l14 -188h-35q-10 87 -66 134t-130 47q-98 0 -165 -81t-67 -229t66.5 -230.5t162.5 -82.5q113 0 113 61v79q0 52 -17.5 70t-79.5 22v34h315v-36q-48 -5 -62.5 -21t-14.5 -67v-138q-121 -56 -273 -56q-164 0 -264.5 90t-100.5 257q0 166 110 272.5t271 106.5
q112 0 223 -44zM423 868q25 0 43 -17.5t18 -41.5q0 -25 -18 -42.5t-43 -17.5q-24 0 -41 17.5t-17 42.5q0 24 17 41.5t41 17.5z" />
    <glyph glyph-name="gdotaccent" unicode="&#x121;" horiz-adv-x="554" 
d="M406 489h138v-52h-118q49 -38 49 -114q0 -72 -59 -117t-152 -45q-15 0 -36 3t-29 3q-22 0 -38 -13t-16 -30q0 -16 13 -22.5t49 -6.5q167 0 222 -12q102 -23 102 -123q0 -78 -76.5 -126t-206.5 -48q-97 0 -156.5 30t-59.5 83q0 31 26.5 60t59.5 40q-77 16 -77 69
q0 66 108 126q-91 44 -91 144q0 70 54.5 118.5t141.5 48.5q34 0 79.5 -8t72.5 -8zM264 461q-36 0 -55.5 -31.5t-19.5 -86.5q0 -64 23 -100t63 -36q70 0 70 119q0 135 -81 135zM192 -14q-23 0 -40 -19t-17 -51q0 -39 35.5 -61t96.5 -22q73 0 112.5 27t39.5 67q0 44 -53 52
q-55 7 -174 7zM274 687q25 0 43 -17.5t18 -41.5q0 -26 -17.5 -43.5t-43.5 -17.5q-24 0 -41.5 18t-17.5 43q0 24 17.5 41.5t41.5 17.5z" />
    <glyph glyph-name="Gcommaaccent" unicode="&#x122;" horiz-adv-x="780" 
d="M641 666l14 -188h-35q-10 87 -66 134t-130 47q-98 0 -165 -81t-67 -229t66.5 -230.5t162.5 -82.5q113 0 113 61v79q0 52 -17.5 70t-79.5 22v34h315v-36q-48 -5 -62.5 -21t-14.5 -67v-138q-121 -56 -273 -56q-164 0 -264.5 90t-100.5 257q0 166 110 272.5t271 106.5
q112 0 223 -44zM378 -301l-15 27q64 21 64 70q0 31 -26 31q-27 0 -42.5 15.5t-15.5 40.5q0 26 17 43t45 17q43 0 67 -28t24 -71q0 -47 -30.5 -88t-87.5 -57z" />
    <glyph glyph-name="gcommaaccent" unicode="&#x123;" horiz-adv-x="554" 
d="M316 790l15 -27q-65 -22 -65 -70q0 -13 7.5 -22t19.5 -9q27 0 42.5 -16t15.5 -40q0 -26 -17 -43t-46 -17q-42 0 -66 28t-24 71q0 47 30 88t88 57zM406 489h138v-52h-118q49 -38 49 -114q0 -72 -59 -117t-152 -45q-15 0 -36 3t-29 3q-22 0 -38 -13t-16 -30q0 -16 13 -22.5
t49 -6.5q167 0 222 -12q102 -23 102 -123q0 -78 -76.5 -126t-206.5 -48q-97 0 -156.5 30t-59.5 83q0 31 26.5 60t59.5 40q-77 16 -77 69q0 66 108 126q-91 44 -91 144q0 70 54.5 118.5t141.5 48.5q34 0 79.5 -8t72.5 -8zM264 461q-36 0 -55.5 -31.5t-19.5 -86.5
q0 -64 23 -100t63 -36q70 0 70 119q0 135 -81 135zM192 -14q-23 0 -40 -19t-17 -51q0 -39 35.5 -61t96.5 -22q73 0 112.5 27t39.5 67q0 44 -53 52q-55 7 -174 7z" />
    <glyph glyph-name="Hcircumflex" unicode="&#x124;" horiz-adv-x="817" 
d="M25 694h318v-35l-35 -3q-30 -2 -40 -13.5t-12 -42.5q-5 -154 -6 -206h313q0 100 -3 206q-1 31 -12 42t-43 14l-32 3v35h319v-35l-35 -3q-30 -2 -40 -13.5t-12 -42.5q-6 -144 -6 -254q0 -206 2 -254q1 -31 11.5 -42.5t40.5 -13.5l35 -3v-33h-315v33l32 3q32 3 43 14t12 42
q3 128 3 247h-313q0 -200 2 -247q1 -31 11.5 -42.5t40.5 -13.5l35 -3v-33h-314v33l32 3q32 3 43 14t12 42q3 132 3 256q0 123 -3 252q-1 31 -12 42t-43 14l-32 3v35zM254 744l103 112q19 19 49 19q33 0 49 -16l106 -115l-30 -13l-126 69l-122 -69z" />
    <glyph glyph-name="hcircumflex" unicode="&#x125;" horiz-adv-x="628" 
d="M22 660v34q110 13 200 42l6 -3q-6 -93 -8 -319q44 36 99.5 64t102.5 28q121 0 121 -124q0 -26 -1 -83.5t-1 -87.5q0 -82 2 -124q1 -31 9 -39t38 -12l23 -3v-33h-260v33l19 3q29 5 36.5 12.5t8.5 38.5q3 61 3 121q0 54 -3 122q-2 49 -19 69t-52 20q-52 0 -86.5 -33.5
t-38.5 -97.5q-2 -39 -2 -101q0 -64 2 -100q2 -30 9 -38.5t34 -12.5l20 -3v-33h-261v33l20 3q32 5 41 13t10 39q3 90 3 241q0 120 -4 276q-2 31 -10.5 40t-42.5 13zM52 744l103 112q19 19 49 19q33 0 49 -16l106 -115l-30 -13l-126 69l-122 -69z" />
    <glyph glyph-name="Hbar" unicode="&#x126;" horiz-adv-x="827" 
d="M30 694h318v-35l-35 -3q-30 -2 -40 -13.5t-12 -42.5q0 -4 -1 -18t-1 -18h307q0 5 -0.5 17.5t-0.5 18.5q-1 31 -12 42t-43 14l-32 3v35h319v-35l-35 -3q-30 -2 -40 -13.5t-12 -42.5l-2 -36h89v-50h-90q-3 -87 -3 -168q0 -206 2 -254q1 -31 11.5 -42.5t40.5 -13.5l35 -3
v-33h-315v33l32 3q32 3 43 14t12 42q3 128 3 247h-313q0 -200 2 -247q1 -31 11.5 -42.5t40.5 -13.5l35 -3v-33h-314v33l32 3q32 3 43 14t12 42q3 132 3 256q0 111 -1 166h-91v50h90q-1 11 -1 36q-1 31 -12 42t-43 14l-32 3v35zM255 394h313q0 21 -0.5 61t-0.5 59h-309
q0 -13 -1 -38.5t-1.5 -45.5t-0.5 -36z" />
    <glyph glyph-name="hbar" unicode="&#x127;" horiz-adv-x="628" 
d="M20 601h73v4q-2 31 -10.5 40t-42.5 13l-18 2v34q110 13 200 42l6 -3q-4 -61 -6 -132h83v-47h-84q-1 -48 -1 -140q44 36 99.5 64t102.5 28q121 0 121 -124q0 -26 -1 -83.5t-1 -87.5q0 -82 2 -124q1 -31 9 -39t38 -12l23 -3v-33h-260v33l19 3q29 5 36.5 12.5t8.5 38.5
q3 61 3 121q0 54 -3 122q-2 49 -19 69t-52 20q-52 0 -86.5 -33.5t-38.5 -97.5q-2 -39 -2 -101q0 -64 2 -100q2 -30 9 -38.5t34 -12.5l20 -3v-33h-261v33l20 3q32 5 41 13t10 39q3 90 3 241q0 123 -3 225h-74v47z" />
    <glyph glyph-name="Itilde" unicode="&#x128;" horiz-adv-x="368" 
d="M25 694h318v-35l-35 -3q-30 -2 -40 -13.5t-12 -42.5q-6 -144 -6 -254q0 -206 2 -254q1 -31 11.5 -42.5t40.5 -13.5l35 -3v-33h-314v33l32 3q32 3 43 14t12 42q3 132 3 256q0 123 -3 252q-1 31 -12 42t-43 14l-32 3v35zM127 883q33 0 80 -33q42 -28 58 -28q43 0 51 52
l32 -11q-5 -47 -36 -82.5t-71 -35.5q-33 0 -79 31q-38 28 -58 28t-35 -13.5t-18 -41.5l-32 13q4 46 35 83.5t73 37.5z" />
    <glyph glyph-name="itilde" unicode="&#x129;" horiz-adv-x="309" 
d="M22 558l-34 8q1 59 28.5 101t70.5 42q30 0 75 -33.5t63 -33.5q22 0 36 16t15 49l33 -4q-1 -60 -26.5 -100t-68.5 -40q-36 0 -77 32.5t-60 32.5q-53 0 -55 -70zM29 432v35q121 18 194 42l8 -4q-6 -104 -6 -254q0 -128 2 -164q1 -29 9 -38t36 -13l23 -3v-33h-266v33l20 3
q32 5 40.5 12.5t9.5 38.5q3 75 3 147q0 46 -3 145q-2 31 -10 39t-42 12z" />
    <glyph glyph-name="Imacron" unicode="&#x12a;" horiz-adv-x="368" 
d="M25 694h318v-35l-35 -3q-30 -2 -40 -13.5t-12 -42.5q-6 -144 -6 -254q0 -206 2 -254q1 -31 11.5 -42.5t40.5 -13.5l35 -3v-33h-314v33l32 3q32 3 43 14t12 42q3 132 3 256q0 123 -3 252q-1 31 -12 42t-43 14l-32 3v35zM53 832h263v-60h-263v60z" />
    <glyph glyph-name="imacron" unicode="&#x12b;" horiz-adv-x="309" 
d="M24 644h263v-57h-263v57zM29 432v35q121 18 194 42l8 -4q-6 -104 -6 -254q0 -128 2 -164q1 -29 9 -38t36 -13l23 -3v-33h-266v33l20 3q32 5 40.5 12.5t9.5 38.5q3 75 3 147q0 46 -3 145q-2 31 -10 39t-42 12z" />
    <glyph glyph-name="Ibreve" unicode="&#x12c;" horiz-adv-x="368" 
d="M25 694h318v-35l-35 -3q-30 -2 -40 -13.5t-12 -42.5q-6 -144 -6 -254q0 -206 2 -254q1 -31 11.5 -42.5t40.5 -13.5l35 -3v-33h-314v33l32 3q32 3 43 14t12 42q3 132 3 256q0 123 -3 252q-1 31 -12 42t-43 14l-32 3v35zM36 855l30 12q10 -38 38 -51t77 -13q104 0 119 64
l31 -12q-31 -127 -149 -127q-111 0 -146 127z" />
    <glyph glyph-name="ibreve" unicode="&#x12d;" horiz-adv-x="309" 
d="M19 716l29 9q17 -44 39 -58t66 -14t68.5 14.5t40.5 57.5l30 -9q-27 -147 -138 -147q-52 0 -85 34.5t-50 112.5zM29 432v35q121 18 194 42l8 -4q-6 -104 -6 -254q0 -128 2 -164q1 -29 9 -38t36 -13l23 -3v-33h-266v33l20 3q32 5 40.5 12.5t9.5 38.5q3 75 3 147
q0 46 -3 145q-2 31 -10 39t-42 12z" />
    <glyph glyph-name="Iogonek" unicode="&#x12e;" horiz-adv-x="368" 
d="M25 694h318v-35l-35 -3q-30 -2 -40 -13.5t-12 -42.5q-6 -144 -6 -254q0 -206 2 -254q1 -31 11.5 -42.5t40.5 -13.5l35 -3v-33h-93q-76 -33 -76 -108q0 -54 54 -54q35 0 60 24l20 -24q-45 -50 -115 -50q-107 0 -107 83t104 129h-161v33l32 3q32 3 43 14t12 42q3 132 3 256
q0 123 -3 252q-1 31 -12 42t-43 14l-32 3v35z" />
    <glyph glyph-name="iogonek" unicode="&#x12f;" horiz-adv-x="309" 
d="M29 432v35q121 18 194 42l8 -4q-6 -104 -6 -254q0 -128 2 -164q1 -29 9 -38t36 -13l23 -3v-33h-69q-76 -33 -76 -108q0 -54 54 -54q35 0 60 24l20 -24q-45 -50 -115 -50q-107 0 -107 83t104 129h-137v33l20 3q32 5 40.5 12.5t9.5 38.5q3 75 3 147q0 46 -3 145
q-2 31 -10 39t-42 12zM161 711q31 0 50 -19.5t19 -49.5q0 -31 -19 -50t-50 -19q-30 0 -49.5 19t-19.5 50q0 30 19.5 49.5t49.5 19.5z" />
    <glyph glyph-name="Idotaccent" unicode="&#x130;" horiz-adv-x="368" 
d="M25 694h318v-35l-35 -3q-30 -2 -40 -13.5t-12 -42.5q-6 -144 -6 -254q0 -206 2 -254q1 -31 11.5 -42.5t40.5 -13.5l35 -3v-33h-314v33l32 3q32 3 43 14t12 42q3 132 3 256q0 123 -3 252q-1 31 -12 42t-43 14l-32 3v35zM183 868q25 0 42.5 -17.5t17.5 -41.5
q0 -25 -17.5 -42.5t-42.5 -17.5q-24 0 -41.5 17.5t-17.5 42.5q0 24 17.5 41.5t41.5 17.5z" />
    <glyph glyph-name="dotlessi" unicode="&#x131;" horiz-adv-x="309" 
d="M29 432v35q121 18 194 42l8 -4q-6 -104 -6 -254q0 -128 2 -164q1 -29 9 -38t36 -13l23 -3v-33h-266v33l20 3q32 5 40.5 12.5t9.5 38.5q3 75 3 147q0 46 -3 145q-2 31 -10 39t-42 12z" />
    <glyph glyph-name="IJ" unicode="&#x132;" horiz-adv-x="739" 
d="M25 694h318v-35l-35 -3q-30 -2 -40 -13.5t-12 -42.5q-6 -144 -6 -254q0 -206 2 -254q1 -31 11.5 -42.5t40.5 -13.5l35 -3v-33h-314v33l32 3q32 3 43 14t12 42q3 132 3 256q0 123 -3 252q-1 31 -12 42t-43 14l-32 3v35zM405 694h319v-35l-35 -3q-30 -2 -40 -13.5
t-12 -42.5q-6 -148 -6 -254q0 -47 1 -163.5t1 -140.5q0 -81 -52.5 -129t-125.5 -48q-79 0 -130 57l20 27q25 -20 57 -20q38 0 64 26t27 84q2 180 2 309q0 123 -3 252q-1 31 -12 42t-43 14l-32 3v35z" />
    <glyph glyph-name="ij" unicode="&#x133;" horiz-adv-x="614" 
d="M29 432v35q121 18 194 42l8 -4q-6 -104 -6 -254q0 -128 2 -164q1 -29 9 -38t36 -13l23 -3v-33h-266v33l20 3q32 5 40.5 12.5t9.5 38.5q3 75 3 147q0 46 -3 145q-2 31 -10 39t-42 12zM161 717q33 0 54 -21t21 -54t-21 -54t-54 -21t-54 21t-21 54t21 54t54 21zM339 432v35
q120 17 195 42l7 -4q-6 -156 -6 -279q0 -51 1 -159.5t1 -133.5q0 -70 -39.5 -107.5t-96.5 -37.5q-74 0 -118 73l23 22q22 -26 52 -26q19 0 33.5 13.5t16.5 38.5q4 55 4 300q0 121 -3 170q-2 31 -10 39t-42 12zM472 717q33 0 54 -21t21 -54t-21 -54t-54 -21t-54 21t-21 54
t21 54t54 21z" />
    <glyph glyph-name="Jcircumflex" unicode="&#x134;" horiz-adv-x="353" 
d="M15 694h318v-35l-35 -3q-30 -2 -40 -13.5t-12 -42.5q-6 -148 -6 -261q0 -47 1 -178t1 -156q0 -80 -52.5 -128t-124.5 -48q-78 0 -131 56l21 28q25 -20 58 -20q38 0 63 25.5t26 83.5q3 136 3 339q0 130 -3 259q-1 31 -12 42t-43 14l-32 3v35zM22 744l103 112q19 19 49 19
q33 0 49 -16l106 -115l-30 -13l-126 69l-122 -69z" />
    <glyph glyph-name="jcircumflex" unicode="&#x135;" horiz-adv-x="307" 
d="M27 432v35q120 17 195 42l7 -4q-6 -156 -6 -279q0 -51 1 -157t1 -132q0 -70 -39.5 -107t-96.5 -37q-74 0 -118 72l23 23q21 -26 52 -26q19 0 33.5 13t16.5 38q4 55 4 296q0 121 -3 170q-2 31 -10 39t-42 12zM11 554l101 163q13 19 44 19q34 0 44 -16l103 -166l-27 -13
l-121 103l-117 -103z" />
    <glyph glyph-name="Kcommaaccent" unicode="&#x136;" horiz-adv-x="784" 
d="M464 694h277v-35l-27 -3q-24 -3 -51 -20.5t-89 -70.5q-23 -19 -60.5 -51t-67 -57.5t-55.5 -46.5q139 -144 298 -329q33 -40 73 -45l24 -3v-33h-353v33l34 3q39 3 39 31q0 13 -17 35q-108 129 -236 257q147 121 256 227q23 22 23 38q0 27 -45 32l-23 3v35zM25 694h318v-35
l-35 -3q-30 -2 -40 -13.5t-12 -42.5q-6 -146 -6 -254q0 -206 2 -254q1 -31 11.5 -42.5t40.5 -13.5l35 -3v-33h-314v33l32 3q32 3 43 14t12 42q3 132 3 256q0 123 -3 252q-1 31 -12 42t-43 14l-32 3v35zM321 -301l-15 27q64 21 64 70q0 31 -26 31q-27 0 -42.5 15.5
t-15.5 40.5q0 26 17 43t45 17q43 0 67 -28t24 -71q0 -47 -30.5 -88t-87.5 -57z" />
    <glyph glyph-name="kcommaaccent" unicode="&#x137;" horiz-adv-x="620" 
d="M20 660v34q107 12 200 42l5 -3q-8 -118 -8 -397q0 -180 3 -248q1 -30 8 -39t34 -13l22 -3v-33h-263v33l20 3q33 5 41.5 13t9.5 39q2 40 2 241q0 172 -4 276q-1 31 -9.5 40t-42.5 13zM331 489h259v-34l-23 -3q-56 -8 -96 -45q-62 -56 -126 -108q113 -118 200 -218
q33 -39 67 -45l19 -3v-33h-283v33l34 3q17 2 17 16q0 17 -44 65.5t-136 138.5q177 143 177 176q0 16 -33 20l-32 3v34zM276 -301l-15 27q64 21 64 70q0 31 -26 31q-27 0 -42.5 15.5t-15.5 40.5q0 26 17 43t45 17q43 0 67 -28t24 -71q0 -47 -30.5 -88t-87.5 -57z" />
    <glyph glyph-name="Lacute" unicode="&#x139;" horiz-adv-x="625" 
d="M25 694h321v-35l-38 -3q-30 -2 -40 -13.5t-12 -42.5q-6 -144 -6 -254q0 -183 2 -238q1 -28 35 -39t118 -11q85 0 124.5 35t46.5 138h35v-231h-586v33l32 3q32 3 43 14t12 42q3 132 3 256q0 123 -3 252q-1 31 -12 42t-43 14l-32 3v35zM231 870h106q12 0 14.5 -8.5
t-8.5 -16.5l-198 -122l-30 13z" />
    <glyph glyph-name="lacute" unicode="&#x13a;" horiz-adv-x="306" 
d="M20 660v34q107 12 200 42l5 -3q-8 -118 -8 -397q0 -180 3 -248q1 -30 9 -39t39 -13l22 -3v-33h-269v33l20 3q33 5 41.5 13t9.5 39q2 40 2 241q0 172 -4 276q-1 31 -9.5 40t-42.5 13zM166 870h106q12 0 14.5 -8.5t-8.5 -16.5l-198 -122l-30 13z" />
    <glyph glyph-name="Lcommaaccent" unicode="&#x13b;" horiz-adv-x="625" 
d="M25 694h321v-35l-38 -3q-30 -2 -40 -13.5t-12 -42.5q-6 -144 -6 -254q0 -183 2 -238q1 -28 35 -39t118 -11q85 0 124.5 35t46.5 138h35v-231h-586v33l32 3q32 3 43 14t12 42q3 132 3 256q0 123 -3 252q-1 31 -12 42t-43 14l-32 3v35zM266 -301l-15 27q64 21 64 70
q0 31 -26 31q-27 0 -42.5 15.5t-15.5 40.5q0 26 17 43t45 17q43 0 67 -28t24 -71q0 -47 -30.5 -88t-87.5 -57z" />
    <glyph glyph-name="lcommaaccent" unicode="&#x13c;" horiz-adv-x="306" 
d="M20 660v34q107 12 200 42l5 -3q-8 -118 -8 -397q0 -180 3 -248q1 -30 9 -39t39 -13l22 -3v-33h-269v33l20 3q33 5 41.5 13t9.5 39q2 40 2 241q0 172 -4 276q-1 31 -9.5 40t-42.5 13zM101 -301l-15 27q64 21 64 70q0 31 -26 31q-27 0 -42.5 15.5t-15.5 40.5q0 26 17 43
t45 17q43 0 67 -28t24 -71q0 -47 -30.5 -88t-87.5 -57z" />
    <glyph glyph-name="Lcaron" unicode="&#x13d;" horiz-adv-x="625" 
d="M25 694h321v-35l-38 -3q-30 -2 -40 -13.5t-12 -42.5q-6 -144 -6 -254q0 -183 2 -238q1 -28 35 -39t118 -11q85 0 124.5 35t46.5 138h35v-231h-586v33l32 3q32 3 43 14t12 42q3 132 3 256q0 123 -3 252q-1 31 -12 42t-43 14l-32 3v35zM402 525l-22 21q41 34 41 68
q0 20 -18 42t-18 46q0 19 14 33t41 14q58 0 58 -71q0 -87 -96 -153z" />
    <glyph glyph-name="lcaron" unicode="&#x13e;" horiz-adv-x="306" 
d="M20 660v34q107 12 200 42l5 -3q-8 -118 -8 -397q0 -180 3 -248q1 -30 9 -39t39 -13l22 -3v-33h-269v33l20 3q33 5 41.5 13t9.5 39q2 40 2 241q0 172 -4 276q-1 31 -9.5 40t-42.5 13zM284 525l-22 21q41 34 41 68q0 20 -18 42t-18 46q0 19 14 33t41 14q58 0 58 -71
q0 -87 -96 -153z" />
    <glyph glyph-name="Ldot" unicode="&#x13f;" horiz-adv-x="625" 
d="M25 694h321v-35l-38 -3q-30 -2 -40 -13.5t-12 -42.5q-6 -144 -6 -254q0 -183 2 -238q1 -28 35 -39t118 -11q85 0 124.5 35t46.5 138h35v-231h-586v33l32 3q32 3 43 14t12 42q3 132 3 256q0 123 -3 252q-1 31 -12 42t-43 14l-32 3v35zM405 453q26 0 45 -18.5t19 -43.5
q0 -26 -19 -44.5t-45 -18.5q-25 0 -43 18.5t-18 44.5q0 25 18 43.5t43 18.5z" />
    <glyph glyph-name="ldot" unicode="&#x140;" horiz-adv-x="306" 
d="M20 660v34q107 12 200 42l5 -3q-8 -118 -8 -397q0 -180 3 -248q1 -30 9 -39t39 -13l22 -3v-33h-269v33l20 3q33 5 41.5 13t9.5 39q2 40 2 241q0 172 -4 276q-1 31 -9.5 40t-42.5 13zM325 468q25 0 43 -17.5t18 -42.5t-18 -43t-43 -18q-24 0 -41.5 18t-17.5 43t17.5 42.5
t41.5 17.5z" />
    <glyph glyph-name="Lslash" unicode="&#x141;" horiz-adv-x="640" 
d="M39 694h321v-35l-38 -3q-30 -2 -40 -13.5t-12 -42.5q-5 -128 -6 -174l147 103l18 -48l-165 -117v-18q0 -183 2 -238q1 -28 35 -39t118 -11q85 0 124.5 35t46.5 138h35v-231h-586v33l32 3q32 3 43 14t12 42l3 177l-89 -62l-18 49l107 75v17q0 123 -3 252q-1 31 -12 42
t-43 14l-32 3v35z" />
    <glyph glyph-name="lslash" unicode="&#x142;" horiz-adv-x="316" 
d="M25 660v34q107 12 200 42l5 -3q-5 -68 -7 -195l63 62l21 -37l-85 -83v-144q0 -180 3 -248q1 -30 9 -39t39 -13l22 -3v-33h-269v33l20 3q33 5 41.5 13t9.5 39q2 40 2 241v30l-70 -68l-20 38l90 88q-2 131 -4 188q-1 31 -9.5 40t-42.5 13z" />
    <glyph glyph-name="Nacute" unicode="&#x143;" horiz-adv-x="798" 
d="M25 694h276q100 -163 156 -249q132 -199 158 -237q2 106 2 165q0 181 -2 227q-1 31 -11.5 42.5t-40.5 13.5l-35 3v35h240v-35l-32 -3q-32 -3 -43 -14t-12 -42q-3 -132 -3 -355v-252h-88q-18 28 -221 335q-15 22 -83 125.5t-105 157.5q-5 -138 -5 -265q0 -206 2 -254
q1 -31 11.5 -42.5t40.5 -13.5l35 -3v-33h-240v33l32 3q32 3 43 14t12 42q3 132 3 256q0 123 -3 252q-1 31 -12 42t-43 14l-32 3v35zM460 870h106q12 0 14.5 -8.5t-8.5 -16.5l-198 -122l-30 13z" />
    <glyph glyph-name="nacute" unicode="&#x144;" horiz-adv-x="634" 
d="M29 432v35q127 19 192 42l6 -3v-92q113 92 201 92q121 0 121 -124q0 -26 -1 -83.5t-1 -87.5q0 -82 2 -124q1 -31 9 -39t38 -12l23 -3v-33h-260v33l18 3q29 5 37 12.5t9 38.5q2 41 2 121q0 32 -2 122q-3 49 -20 69t-52 20q-52 0 -86.5 -33t-37.5 -98q-2 -35 -2 -101
q0 -64 2 -100q1 -30 8 -38.5t34 -12.5l21 -3v-33h-261v33l20 3q32 5 40.5 12.5t9.5 38.5q3 75 3 147t-3 145q-2 31 -10 39t-42 12zM364 730h106q12 0 14.5 -8.5t-8.5 -16.5l-185 -164l-33 13z" />
    <glyph glyph-name="Ncommaaccent" unicode="&#x145;" horiz-adv-x="798" 
d="M25 694h276q100 -163 156 -249q132 -199 158 -237q2 106 2 165q0 181 -2 227q-1 31 -11.5 42.5t-40.5 13.5l-35 3v35h240v-35l-32 -3q-32 -3 -43 -14t-12 -42q-3 -132 -3 -355v-252h-88q-18 28 -221 335q-15 22 -83 125.5t-105 157.5q-5 -138 -5 -265q0 -206 2 -254
q1 -31 11.5 -42.5t40.5 -13.5l35 -3v-33h-240v33l32 3q32 3 43 14t12 42q3 132 3 256q0 123 -3 252q-1 31 -12 42t-43 14l-32 3v35zM375 -301l-15 27q64 21 64 70q0 31 -26 31q-27 0 -42.5 15.5t-15.5 40.5q0 26 17 43t45 17q43 0 67 -28t24 -71q0 -47 -30.5 -88t-87.5 -57z
" />
    <glyph glyph-name="ncommaaccent" unicode="&#x146;" horiz-adv-x="634" 
d="M29 432v35q127 19 192 42l6 -3v-92q113 92 201 92q121 0 121 -124q0 -26 -1 -83.5t-1 -87.5q0 -82 2 -124q1 -31 9 -39t38 -12l23 -3v-33h-260v33l18 3q29 5 37 12.5t9 38.5q2 41 2 121q0 32 -2 122q-3 49 -20 69t-52 20q-52 0 -86.5 -33t-37.5 -98q-2 -35 -2 -101
q0 -64 2 -100q1 -30 8 -38.5t34 -12.5l21 -3v-33h-261v33l20 3q32 5 40.5 12.5t9.5 38.5q3 75 3 147t-3 145q-2 31 -10 39t-42 12zM288 -301l-15 27q64 21 64 70q0 31 -26 31q-27 0 -42.5 15.5t-15.5 40.5q0 26 17 43t45 17q43 0 67 -28t24 -71q0 -47 -30.5 -88t-87.5 -57z
" />
    <glyph glyph-name="Ncaron" unicode="&#x147;" horiz-adv-x="798" 
d="M25 694h276q100 -163 156 -249q132 -199 158 -237q2 106 2 165q0 181 -2 227q-1 31 -11.5 42.5t-40.5 13.5l-35 3v35h240v-35l-32 -3q-32 -3 -43 -14t-12 -42q-3 -132 -3 -355v-252h-88q-18 28 -221 335q-15 22 -83 125.5t-105 157.5q-5 -138 -5 -265q0 -206 2 -254
q1 -31 11.5 -42.5t40.5 -13.5l35 -3v-33h-240v33l32 3q32 3 43 14t12 42q3 132 3 256q0 123 -3 252q-1 31 -12 42t-43 14l-32 3v35zM249 864l29 13l126 -69l122 69l30 -13l-104 -112q-19 -19 -49 -19q-33 0 -49 16z" />
    <glyph glyph-name="ncaron" unicode="&#x148;" horiz-adv-x="634" 
d="M29 432v35q127 19 192 42l6 -3v-92q113 92 201 92q121 0 121 -124q0 -26 -1 -83.5t-1 -87.5q0 -82 2 -124q1 -31 9 -39t38 -12l23 -3v-33h-260v33l18 3q29 5 37 12.5t9 38.5q2 41 2 121q0 32 -2 122q-3 49 -20 69t-52 20q-52 0 -86.5 -33t-37.5 -98q-2 -35 -2 -101
q0 -64 2 -100q1 -30 8 -38.5t34 -12.5l21 -3v-33h-261v33l20 3q32 5 40.5 12.5t9.5 38.5q3 75 3 147t-3 145q-2 31 -10 39t-42 12zM183 727l27 13l121 -103l117 103l27 -13l-101 -163q-13 -19 -44 -19q-34 0 -44 16z" />
    <glyph glyph-name="napostrophe" unicode="&#x149;" horiz-adv-x="634" 
d="M29 432v35q127 19 192 42l6 -3v-92q113 92 201 92q121 0 121 -124q0 -26 -1 -83.5t-1 -87.5q0 -82 2 -124q1 -31 9 -39t38 -12l23 -3v-33h-260v33l18 3q29 5 37 12.5t9 38.5q2 41 2 121q0 32 -2 122q-3 49 -20 69t-52 20q-52 0 -86.5 -33t-37.5 -98q-2 -35 -2 -101
q0 -64 2 -100q1 -30 8 -38.5t34 -12.5l21 -3v-33h-261v33l20 3q32 5 40.5 12.5t9.5 38.5q3 75 3 147t-3 145q-2 31 -10 39t-42 12zM92 525l-22 21q41 34 41 68q0 20 -18 42t-18 46q0 19 14 33t41 14q58 0 58 -71q0 -87 -96 -153z" />
    <glyph glyph-name="Eng" unicode="&#x14a;" horiz-adv-x="798" 
d="M25 694h276q100 -163 156 -249q132 -199 158 -237q2 106 2 165q0 181 -2 227q-1 31 -11.5 42.5t-40.5 13.5l-35 3v35h240v-35l-32 -3q-32 -3 -43 -14t-12 -42q-3 -132 -3 -355q0 -51 1 -168t1 -143q0 -71 -33 -107.5t-88 -36.5q-74 0 -118 72l23 23q21 -26 52 -26
q41 0 55.5 35t15.5 99q-12 18 -96 148t-122 187q-15 22 -83 125.5t-105 157.5q-5 -138 -5 -265q0 -206 2 -254q1 -31 11.5 -42.5t40.5 -13.5l35 -3v-33h-240v33l32 3q32 3 43 14t12 42q3 132 3 256q0 123 -3 252q-1 31 -12 42t-43 14l-32 3v35z" />
    <glyph glyph-name="eng" unicode="&#x14b;" horiz-adv-x="629" 
d="M29 432v35q127 19 192 42l6 -3v-92q113 92 201 92q121 0 121 -124q0 -26 -1 -83.5t-1 -87.5q0 -50 0.5 -151.5t0.5 -126.5q0 -70 -38.5 -107.5t-94.5 -37.5q-75 0 -119 73l24 22q22 -26 51 -26q20 0 34.5 13.5t15.5 38.5q4 62 4 299q0 54 -3 122q-2 49 -19 69t-52 20
q-52 0 -86.5 -33t-37.5 -98q-2 -35 -2 -101q0 -64 2 -100q1 -30 8 -38.5t34 -12.5l21 -3v-33h-261v33l20 3q32 5 40.5 12.5t9.5 38.5q3 75 3 147t-3 145q-2 31 -10 39t-42 12z" />
    <glyph glyph-name="Omacron" unicode="&#x14c;" horiz-adv-x="801" 
d="M37 347q0 151 108.5 257t272.5 106q103 0 183.5 -52.5t121 -134.5t40.5 -176q0 -151 -107 -257t-267 -106q-155 0 -253.5 104.5t-98.5 258.5zM403 659q-91 0 -150 -88t-59 -224q0 -134 58 -223.5t151 -89.5q91 0 150 86.5t59 226.5q0 130 -55 221t-154 91zM269 832h263
v-60h-263v60z" />
    <glyph glyph-name="omacron" unicode="&#x14d;" horiz-adv-x="577" 
d="M293 506q113 0 181 -72t68 -189q0 -115 -74.5 -188t-183.5 -73q-113 0 -181 72t-68 189q0 114 74.5 187.5t183.5 73.5zM278 459q-48 0 -76.5 -51.5t-28.5 -141.5q0 -111 35.5 -173.5t90.5 -62.5q47 0 75.5 52t28.5 139q0 115 -35 176.5t-90 61.5zM158 644h263v-57h-263
v57z" />
    <glyph glyph-name="Obreve" unicode="&#x14e;" horiz-adv-x="801" 
d="M37 347q0 151 108.5 257t272.5 106q103 0 183.5 -52.5t121 -134.5t40.5 -176q0 -151 -107 -257t-267 -106q-155 0 -253.5 104.5t-98.5 258.5zM403 659q-91 0 -150 -88t-59 -224q0 -134 58 -223.5t151 -89.5q91 0 150 86.5t59 226.5q0 130 -55 221t-154 91zM258 855l30 12
q10 -38 38 -51t77 -13q104 0 119 64l31 -12q-31 -127 -149 -127q-111 0 -146 127z" />
    <glyph glyph-name="obreve" unicode="&#x14f;" horiz-adv-x="577" 
d="M293 506q113 0 181 -72t68 -189q0 -115 -74.5 -188t-183.5 -73q-113 0 -181 72t-68 189q0 114 74.5 187.5t183.5 73.5zM278 459q-48 0 -76.5 -51.5t-28.5 -141.5q0 -111 35.5 -173.5t90.5 -62.5q47 0 75.5 52t28.5 139q0 115 -35 176.5t-90 61.5zM152 716l29 9
q17 -44 39 -58t66 -14t68.5 14.5t40.5 57.5l30 -9q-27 -147 -138 -147q-52 0 -85 34.5t-50 112.5z" />
    <glyph glyph-name="Ohungarumlaut" unicode="&#x150;" horiz-adv-x="801" 
d="M37 347q0 151 108.5 257t272.5 106q103 0 183.5 -52.5t121 -134.5t40.5 -176q0 -151 -107 -257t-267 -106q-155 0 -253.5 104.5t-98.5 258.5zM403 659q-91 0 -150 -88t-59 -224q0 -134 58 -223.5t151 -89.5q91 0 150 86.5t59 226.5q0 130 -55 221t-154 91zM353 870h87
q10 0 12.5 -8.5t-6.5 -16.5l-164 -117l-26 13zM524 870h88q10 0 12.5 -8.5t-7.5 -16.5l-163 -117l-26 13z" />
    <glyph glyph-name="ohungarumlaut" unicode="&#x151;" horiz-adv-x="577" 
d="M293 506q113 0 181 -72t68 -189q0 -115 -74.5 -188t-183.5 -73q-113 0 -181 72t-68 189q0 114 74.5 187.5t183.5 73.5zM278 459q-48 0 -76.5 -51.5t-28.5 -141.5q0 -111 35.5 -173.5t90.5 -62.5q47 0 75.5 52t28.5 139q0 115 -35 176.5t-90 61.5zM258 730h86
q10 0 12.5 -8.5t-6.5 -16.5l-170 -164l-25 13zM419 730h86q10 0 12.5 -8.5t-7.5 -16.5l-170 -164l-24 13z" />
    <glyph glyph-name="OE" unicode="&#x152;" horiz-adv-x="1120" 
d="M506 694h539v-202h-34q-5 87 -34.5 118t-109.5 31q-183 0 -256 -1q112 -88 130 -250h58q53 0 71.5 16.5t21.5 75.5h37v-231h-37q-3 55 -21.5 73.5t-69.5 18.5h-58q-2 -165 -118 -267q59 -22 195 -22q110 0 148.5 28t42.5 113h34v-195h-560q-51 -14 -106 -14
q-154 0 -248 103t-94 258q0 152 104 256.5t267 104.5q51 0 98 -14zM393 657q-90 0 -144.5 -86t-54.5 -224q0 -136 53 -223.5t146 -87.5q90 0 144.5 85t54.5 226q0 132 -50.5 221t-148.5 89z" />
    <glyph glyph-name="oe" unicode="&#x153;" horiz-adv-x="871" 
d="M837 266h-308q1 -86 41 -131.5t104 -45.5q44 0 76 22t42 61h38q-35 -188 -209 -188q-101 0 -160 80q-64 -80 -177 -80t-181 72t-68 189q0 114 74.5 187.5t183.5 73.5q118 0 179 -86q71 86 180 86q53 0 91.5 -18.5t58 -49t28.5 -62t9 -64.5q0 -12 -2 -46zM278 459
q-48 0 -76.5 -51.5t-28.5 -141.5q0 -111 35.5 -173.5t90.5 -62.5q47 0 75.5 52t28.5 139q0 115 -35 176.5t-90 61.5zM529 314l164 2q16 2 22.5 10.5t6.5 29.5q0 46 -21 75.5t-63 29.5t-73 -36t-36 -111z" />
    <glyph glyph-name="Racute" unicode="&#x154;" horiz-adv-x="739" 
d="M24 694h330q141 0 211 -49.5t70 -132.5q0 -72 -50 -118.5t-137 -57.5q55 -20 95 -74q22 -29 62.5 -94.5t55.5 -85.5q19 -26 31.5 -34.5t32.5 -11.5l20 -3v-33h-204q-68 138 -136 238q-50 75 -96 78q-29 2 -59 6q0 -186 2 -230q1 -31 11.5 -42.5t40.5 -13.5l35 -3v-33
h-315v33l32 3q32 3 43 14t12 42q3 132 3 256q0 123 -3 252q-1 31 -12 42t-43 14l-32 3v35zM255 643q-5 -103 -5 -272q44 -6 80 -6q72 0 112.5 37t40.5 101q0 65 -40 105t-125 40q-38 0 -63 -5zM369 870h106q12 0 14.5 -8.5t-8.5 -16.5l-198 -122l-30 13z" />
    <glyph glyph-name="racute" unicode="&#x155;" horiz-adv-x="435" 
d="M13 432v34q39 4 102 17.5t90 24.5l6 -3l-1 -124q101 125 166 125q34 0 51 -21.5t17 -53.5q0 -35 -15 -58.5t-44 -23.5q-19 0 -31 8t-17 17.5t-13.5 17.5t-20.5 8q-25 0 -48 -31.5t-26 -88.5q-2 -32 -2 -90q0 -67 2 -103q2 -31 9.5 -39.5t37.5 -11.5l40 -3v-33h-285v33
l20 3q32 5 40.5 12.5t9.5 38.5q3 75 3 147t-3 145q-1 30 -13 39.5t-47 11.5zM296 730h106q12 0 14.5 -8.5t-8.5 -16.5l-185 -164l-33 13z" />
    <glyph glyph-name="Rcommaaccent" unicode="&#x156;" horiz-adv-x="739" 
d="M24 694h330q141 0 211 -49.5t70 -132.5q0 -72 -50 -118.5t-137 -57.5q55 -20 95 -74q22 -29 62.5 -94.5t55.5 -85.5q19 -26 31.5 -34.5t32.5 -11.5l20 -3v-33h-204q-68 138 -136 238q-50 75 -96 78q-29 2 -59 6q0 -186 2 -230q1 -31 11.5 -42.5t40.5 -13.5l35 -3v-33
h-315v33l32 3q32 3 43 14t12 42q3 132 3 256q0 123 -3 252q-1 31 -12 42t-43 14l-32 3v35zM255 643q-5 -103 -5 -272q44 -6 80 -6q72 0 112.5 37t40.5 101q0 65 -40 105t-125 40q-38 0 -63 -5zM324 -301l-15 27q64 21 64 70q0 31 -26 31q-27 0 -42.5 15.5t-15.5 40.5
q0 26 17 43t45 17q43 0 67 -28t24 -71q0 -47 -30.5 -88t-87.5 -57z" />
    <glyph glyph-name="rcommaaccent" unicode="&#x157;" horiz-adv-x="435" 
d="M13 432v34q39 4 102 17.5t90 24.5l6 -3l-1 -124q101 125 166 125q34 0 51 -21.5t17 -53.5q0 -35 -15 -58.5t-44 -23.5q-19 0 -31 8t-17 17.5t-13.5 17.5t-20.5 8q-25 0 -48 -31.5t-26 -88.5q-2 -32 -2 -90q0 -67 2 -103q2 -31 9.5 -39.5t37.5 -11.5l40 -3v-33h-285v33
l20 3q32 5 40.5 12.5t9.5 38.5q3 75 3 147t-3 145q-1 30 -13 39.5t-47 11.5zM119 -301l-15 27q64 21 64 70q0 31 -26 31q-27 0 -42.5 15.5t-15.5 40.5q0 26 17 43t45 17q43 0 67 -28t24 -71q0 -47 -30.5 -88t-87.5 -57z" />
    <glyph glyph-name="Rcaron" unicode="&#x158;" horiz-adv-x="739" 
d="M24 694h330q141 0 211 -49.5t70 -132.5q0 -72 -50 -118.5t-137 -57.5q55 -20 95 -74q22 -29 62.5 -94.5t55.5 -85.5q19 -26 31.5 -34.5t32.5 -11.5l20 -3v-33h-204q-68 138 -136 238q-50 75 -96 78q-29 2 -59 6q0 -186 2 -230q1 -31 11.5 -42.5t40.5 -13.5l35 -3v-33
h-315v33l32 3q32 3 43 14t12 42q3 132 3 256q0 123 -3 252q-1 31 -12 42t-43 14l-32 3v35zM255 643q-5 -103 -5 -272q44 -6 80 -6q72 0 112.5 37t40.5 101q0 65 -40 105t-125 40q-38 0 -63 -5zM189 864l29 13l126 -69l122 69l30 -13l-104 -112q-19 -19 -49 -19q-33 0 -49 16
z" />
    <glyph glyph-name="rcaron" unicode="&#x159;" horiz-adv-x="435" 
d="M13 432v34q39 4 102 17.5t90 24.5l6 -3l-1 -124q101 125 166 125q34 0 51 -21.5t17 -53.5q0 -35 -15 -58.5t-44 -23.5q-19 0 -31 8t-17 17.5t-13.5 17.5t-20.5 8q-25 0 -48 -31.5t-26 -88.5q-2 -32 -2 -90q0 -67 2 -103q2 -31 9.5 -39.5t37.5 -11.5l40 -3v-33h-285v33
l20 3q32 5 40.5 12.5t9.5 38.5q3 75 3 147t-3 145q-1 30 -13 39.5t-47 11.5zM103 727l27 13l121 -103l117 103l27 -13l-101 -163q-13 -19 -44 -19q-34 0 -44 16z" />
    <glyph glyph-name="Sacute" unicode="&#x15a;" horiz-adv-x="602" 
d="M313 710q126 0 195 -53v-173h-34q-6 95 -50.5 138t-108.5 43q-45 0 -78 -27t-33 -74q0 -34 25 -63.5t62 -49.5t81 -46t81 -52t62 -68t25 -93q0 -96 -77.5 -152.5t-184.5 -56.5q-131 0 -210 45v185h35q8 -97 56.5 -139t113.5 -42q57 0 94.5 28t37.5 79q0 31 -18.5 58.5
t-47.5 48t-64 40.5t-70.5 42t-64.5 46.5t-47.5 59.5t-18.5 76q0 87 67 143.5t172 56.5zM327 870h106q12 0 14.5 -8.5t-8.5 -16.5l-198 -122l-30 13z" />
    <glyph glyph-name="sacute" unicode="&#x15b;" horiz-adv-x="441" 
d="M52 169h38q6 -74 38 -108t78 -34q84 0 84 72q0 29 -24.5 51.5t-59.5 39t-70 35t-59.5 51t-24.5 77.5q0 66 50 109.5t128 43.5q92 0 150 -49v-128h-38q-11 135 -112 135q-37 0 -56.5 -17.5t-19.5 -46.5q0 -28 25.5 -50.5t61.5 -39.5t72 -37.5t61.5 -54.5t25.5 -80
q0 -74 -53.5 -114t-135.5 -40q-99 0 -159 35v150zM251 730h106q12 0 14.5 -8.5t-8.5 -16.5l-185 -164l-33 13z" />
    <glyph glyph-name="Scircumflex" unicode="&#x15c;" horiz-adv-x="602" 
d="M313 710q126 0 195 -53v-173h-34q-6 95 -50.5 138t-108.5 43q-45 0 -78 -27t-33 -74q0 -34 25 -63.5t62 -49.5t81 -46t81 -52t62 -68t25 -93q0 -96 -77.5 -152.5t-184.5 -56.5q-131 0 -210 45v185h35q8 -97 56.5 -139t113.5 -42q57 0 94.5 28t37.5 79q0 31 -18.5 58.5
t-47.5 48t-64 40.5t-70.5 42t-64.5 46.5t-47.5 59.5t-18.5 76q0 87 67 143.5t172 56.5zM159 744l103 112q19 19 49 19q33 0 49 -16l106 -115l-30 -13l-126 69l-122 -69z" />
    <glyph glyph-name="scircumflex" unicode="&#x15d;" horiz-adv-x="441" 
d="M52 169h38q6 -74 38 -108t78 -34q84 0 84 72q0 29 -24.5 51.5t-59.5 39t-70 35t-59.5 51t-24.5 77.5q0 66 50 109.5t128 43.5q92 0 150 -49v-128h-38q-11 135 -112 135q-37 0 -56.5 -17.5t-19.5 -46.5q0 -28 25.5 -50.5t61.5 -39.5t72 -37.5t61.5 -54.5t25.5 -80
q0 -74 -53.5 -114t-135.5 -40q-99 0 -159 35v150zM88 554l101 163q13 19 44 19q34 0 44 -16l103 -166l-27 -13l-121 103l-117 -103z" />
    <glyph glyph-name="Scedilla" unicode="&#x15e;" horiz-adv-x="602" 
d="M313 710q126 0 195 -53v-173h-34q-6 95 -50.5 138t-108.5 43q-45 0 -78 -27t-33 -74q0 -34 25 -63.5t62 -49.5t81 -46t81 -52t62 -68t25 -93q0 -89 -67.5 -144.5t-165.5 -63.5l-21 -29q121 0 121 -78q0 -41 -38.5 -64t-96.5 -23q-51 0 -94 23l15 32q23 -13 66 -13
q61 0 61 34q0 37 -95 37l-5 8l44 72q-125 3 -196 45v185h35q8 -97 56.5 -139t113.5 -42q57 0 94.5 28t37.5 79q0 31 -18.5 58.5t-47.5 48t-64 40.5t-70.5 42t-64.5 46.5t-47.5 59.5t-18.5 76q0 87 67 143.5t172 56.5z" />
    <glyph glyph-name="scedilla" unicode="&#x15f;" horiz-adv-x="441" 
d="M52 169h38q6 -74 38 -108t78 -34q84 0 84 72q0 29 -24.5 51.5t-59.5 39t-70 35t-59.5 51t-24.5 77.5q0 66 50 109.5t128 43.5q92 0 150 -49v-128h-38q-11 135 -112 135q-37 0 -56.5 -17.5t-19.5 -46.5q0 -28 25.5 -50.5t61.5 -39.5t72 -37.5t61.5 -54.5t25.5 -80
q0 -71 -49 -110.5t-126 -42.5l-21 -30q121 0 121 -78q0 -41 -38.5 -64t-96.5 -23q-51 0 -94 23l15 32q23 -13 66 -13q61 0 61 34q0 37 -95 37l-5 8l45 74q-80 5 -131 34v150z" />
    <glyph glyph-name="Scaron" unicode="&#x160;" horiz-adv-x="602" 
d="M313 710q126 0 195 -53v-173h-34q-6 95 -50.5 138t-108.5 43q-45 0 -78 -27t-33 -74q0 -34 25 -63.5t62 -49.5t81 -46t81 -52t62 -68t25 -93q0 -96 -77.5 -152.5t-184.5 -56.5q-131 0 -210 45v185h35q8 -97 56.5 -139t113.5 -42q57 0 94.5 28t37.5 79q0 31 -18.5 58.5
t-47.5 48t-64 40.5t-70.5 42t-64.5 46.5t-47.5 59.5t-18.5 76q0 87 67 143.5t172 56.5zM152 864l29 13l126 -69l122 69l30 -13l-104 -112q-19 -19 -49 -19q-33 0 -49 16z" />
    <glyph glyph-name="scaron" unicode="&#x161;" horiz-adv-x="441" 
d="M52 169h38q6 -74 38 -108t78 -34q84 0 84 72q0 29 -24.5 51.5t-59.5 39t-70 35t-59.5 51t-24.5 77.5q0 66 50 109.5t128 43.5q92 0 150 -49v-128h-38q-11 135 -112 135q-37 0 -56.5 -17.5t-19.5 -46.5q0 -28 25.5 -50.5t61.5 -39.5t72 -37.5t61.5 -54.5t25.5 -80
q0 -74 -53.5 -114t-135.5 -40q-99 0 -159 35v150zM80 727l27 13l121 -103l117 103l27 -13l-101 -163q-13 -19 -44 -19q-34 0 -44 16z" />
    <glyph glyph-name="Tcommaaccent" unicode="&#x162;" horiz-adv-x="654" 
d="M8 694h639v-199h-36q-4 83 -32 110t-110 32q-48 2 -71 2q-5 -197 -5 -293q0 -206 2 -254q1 -31 11.5 -42.5t40.5 -13.5l35 -3v-33h-314v33l32 3q32 3 43 14t12 42q3 132 3 256q0 160 -3 291l-69 -2q-84 -5 -110 -30.5t-31 -111.5h-37v199zM286 -301l-15 27q64 21 64 70
q0 31 -26 31q-27 0 -42.5 15.5t-15.5 40.5q0 26 17 43t45 17q43 0 67 -28t24 -71q0 -47 -30.5 -88t-87.5 -57z" />
    <glyph glyph-name="tcommaaccent" unicode="&#x163;" horiz-adv-x="385" 
d="M194 649l33 -3q-3 -60 -6 -157h141v-52h-141q-2 -102 -2 -166q0 -91 3 -149q3 -52 58 -52q49 0 72 37l24 -23q-32 -50 -78 -75t-93 -25q-53 0 -83 27t-30 80q0 24 0.5 85t0.5 96q0 113 -1 165h-80v39q51 11 102 55.5t80 117.5zM149 -301l-15 27q64 21 64 70q0 31 -26 31
q-27 0 -42.5 15.5t-15.5 40.5q0 26 17 43t45 17q43 0 67 -28t24 -71q0 -47 -30.5 -88t-87.5 -57z" />
    <glyph glyph-name="Tcaron" unicode="&#x164;" horiz-adv-x="654" 
d="M8 694h639v-199h-36q-4 83 -32 110t-110 32q-48 2 -71 2q-5 -197 -5 -293q0 -206 2 -254q1 -31 11.5 -42.5t40.5 -13.5l35 -3v-33h-314v33l32 3q32 3 43 14t12 42q3 132 3 256q0 160 -3 291l-69 -2q-84 -5 -110 -30.5t-31 -111.5h-37v199zM173 864l29 13l126 -69l122 69
l30 -13l-104 -112q-19 -19 -49 -19q-33 0 -49 16z" />
    <glyph glyph-name="tcaron" unicode="&#x165;" horiz-adv-x="385" 
d="M194 649l33 -3q-3 -60 -6 -157h141v-52h-141q-2 -102 -2 -166q0 -91 3 -149q3 -52 58 -52q49 0 72 37l24 -23q-32 -50 -78 -75t-93 -25q-53 0 -83 27t-30 80q0 24 0.5 85t0.5 96q0 113 -1 165h-80v39q51 11 102 55.5t80 117.5zM308 525l-22 21q41 34 41 68q0 20 -18 42
t-18 46q0 19 14 33t41 14q58 0 58 -71q0 -87 -96 -153z" />
    <glyph glyph-name="Tbar" unicode="&#x166;" horiz-adv-x="680" 
d="M10 694h639v-199h-36q-4 83 -32 110t-110 32q-48 2 -71 2q-5 -193 -5 -288h100v-62h-100q0 -159 2 -197q1 -31 11.5 -42.5t40.5 -13.5l35 -3v-33h-314v33l32 3q32 3 43 14t12 42l3 197h-106v62h106q0 157 -3 288q-39 0 -69 -2q-84 -5 -110 -30.5t-31 -111.5h-37v199z" />
    <glyph glyph-name="tbar" unicode="&#x167;" horiz-adv-x="385" 
d="M194 649l33 -3q-3 -60 -6 -157h141v-52h-141q-2 -80 -2 -131h118v-51h-118q0 -79 3 -133q3 -52 58 -52q49 0 72 37l24 -23q-32 -50 -78 -75t-93 -25q-53 0 -83 27t-30 80q0 22 0.5 77t0.5 87h-69v51h69q0 90 -1 131h-80v39q51 11 102 55.5t80 117.5z" />
    <glyph glyph-name="Utilde" unicode="&#x168;" horiz-adv-x="759" 
d="M19 694h319v-35l-35 -3q-30 -2 -40 -13.5t-12 -42.5q-7 -170 -7 -306v-60q0 -89 51.5 -133t126.5 -44q70 0 121 41t51 122v115q0 179 -2 265q-1 31 -12 42t-43 14l-32 3v35h243v-35l-35 -3q-30 -2 -40 -13.5t-12 -42.5q-6 -146 -6 -256v-145q0 -70 -40 -120.5t-99.5 -73
t-128.5 -22.5q-72 0 -134 23.5t-103.5 74t-41.5 118.5q0 24 0.5 71.5t0.5 75.5q0 125 -3 254q-1 31 -12 42t-43 14l-32 3v35zM350 883q33 0 80 -33q42 -28 58 -28q43 0 51 52l32 -11q-5 -47 -36 -82.5t-71 -35.5q-32 0 -79 31q-38 28 -58 28t-35 -13.5t-18 -41.5l-32 13
q4 46 35 83.5t73 37.5z" />
    <glyph glyph-name="utilde" unicode="&#x169;" horiz-adv-x="619" 
d="M19 489h199q-5 -88 -5 -188q0 -97 2 -142q2 -50 17 -69t50 -19q51 0 84 33t36 98q2 35 2 98q0 65 -2 101q-1 30 -8 38.5t-34 12.5l-21 3v34h192q-4 -114 -4 -232q0 -106 4 -170q2 -30 10 -38.5t39 -12.5l22 -3v-33h-198v77q-115 -94 -196 -94q-119 0 -119 124
q0 26 1 83.5t1 87.5q0 81 -2 123q-1 31 -9 39t-38 12l-23 3v34zM181 558l-34 8q1 59 28.5 101t70.5 42q30 0 75 -33.5t63 -33.5q22 0 36 16t15 49l33 -4q-1 -60 -26.5 -100t-68.5 -40q-36 0 -77 32.5t-60 32.5q-53 0 -55 -70z" />
    <glyph glyph-name="Umacron" unicode="&#x16a;" horiz-adv-x="759" 
d="M19 694h319v-35l-35 -3q-30 -2 -40 -13.5t-12 -42.5q-7 -170 -7 -306v-60q0 -89 51.5 -133t126.5 -44q70 0 121 41t51 122v115q0 179 -2 265q-1 31 -12 42t-43 14l-32 3v35h243v-35l-35 -3q-30 -2 -40 -13.5t-12 -42.5q-6 -146 -6 -256v-145q0 -70 -40 -120.5t-99.5 -73
t-128.5 -22.5q-72 0 -134 23.5t-103.5 74t-41.5 118.5q0 24 0.5 71.5t0.5 75.5q0 125 -3 254q-1 31 -12 42t-43 14l-32 3v35zM274 832h263v-60h-263v60z" />
    <glyph glyph-name="umacron" unicode="&#x16b;" horiz-adv-x="619" 
d="M19 489h199q-5 -88 -5 -188q0 -97 2 -142q2 -50 17 -69t50 -19q51 0 84 33t36 98q2 35 2 98q0 65 -2 101q-1 30 -8 38.5t-34 12.5l-21 3v34h192q-4 -114 -4 -232q0 -106 4 -170q2 -30 10 -38.5t39 -12.5l22 -3v-33h-198v77q-115 -94 -196 -94q-119 0 -119 124
q0 26 1 83.5t1 87.5q0 81 -2 123q-1 31 -9 39t-38 12l-23 3v34zM169 644h263v-57h-263v57z" />
    <glyph glyph-name="Ubreve" unicode="&#x16c;" horiz-adv-x="759" 
d="M19 694h319v-35l-35 -3q-30 -2 -40 -13.5t-12 -42.5q-7 -170 -7 -306v-60q0 -89 51.5 -133t126.5 -44q70 0 121 41t51 122v115q0 179 -2 265q-1 31 -12 42t-43 14l-32 3v35h243v-35l-35 -3q-30 -2 -40 -13.5t-12 -42.5q-6 -146 -6 -256v-145q0 -70 -40 -120.5t-99.5 -73
t-128.5 -22.5q-72 0 -134 23.5t-103.5 74t-41.5 118.5q0 24 0.5 71.5t0.5 75.5q0 125 -3 254q-1 31 -12 42t-43 14l-32 3v35zM262 855l30 12q10 -38 38 -51t77 -13q104 0 119 64l31 -12q-31 -127 -149 -127q-111 0 -146 127z" />
    <glyph glyph-name="ubreve" unicode="&#x16d;" horiz-adv-x="619" 
d="M19 489h199q-5 -88 -5 -188q0 -97 2 -142q2 -50 17 -69t50 -19q51 0 84 33t36 98q2 35 2 98q0 65 -2 101q-1 30 -8 38.5t-34 12.5l-21 3v34h192q-4 -114 -4 -232q0 -106 4 -170q2 -30 10 -38.5t39 -12.5l22 -3v-33h-198v77q-115 -94 -196 -94q-119 0 -119 124
q0 26 1 83.5t1 87.5q0 81 -2 123q-1 31 -9 39t-38 12l-23 3v34zM157 716l29 9q17 -44 39 -58t66 -14t68.5 14.5t40.5 57.5l30 -9q-27 -147 -138 -147q-52 0 -85 34.5t-50 112.5z" />
    <glyph glyph-name="Uring" unicode="&#x16e;" horiz-adv-x="759" 
d="M19 694h319v-35l-35 -3q-30 -2 -40 -13.5t-12 -42.5q-7 -170 -7 -306v-60q0 -89 51.5 -133t126.5 -44q70 0 121 41t51 122v115q0 179 -2 265q-1 31 -12 42t-43 14l-32 3v35h243v-35l-35 -3q-30 -2 -40 -13.5t-12 -42.5q-6 -146 -6 -256v-145q0 -70 -40 -120.5t-99.5 -73
t-128.5 -22.5q-72 0 -134 23.5t-103.5 74t-41.5 118.5q0 24 0.5 71.5t0.5 75.5q0 125 -3 254q-1 31 -12 42t-43 14l-32 3v35zM300 825q0 40 31 68t74 28t74.5 -28t31.5 -68q0 -42 -31 -69.5t-75 -27.5q-43 0 -74 27.5t-31 69.5zM354 822q0 -22 14 -36.5t36 -14.5
q24 0 39 14.5t15 36.5t-14.5 35t-39.5 13q-22 0 -36 -13t-14 -35z" />
    <glyph glyph-name="uring" unicode="&#x16f;" horiz-adv-x="619" 
d="M19 489h199q-5 -88 -5 -188q0 -97 2 -142q2 -50 17 -69t50 -19q51 0 84 33t36 98q2 35 2 98q0 65 -2 101q-1 30 -8 38.5t-34 12.5l-21 3v34h192q-4 -114 -4 -232q0 -106 4 -170q2 -30 10 -38.5t39 -12.5l22 -3v-33h-198v77q-115 -94 -196 -94q-119 0 -119 124
q0 26 1 83.5t1 87.5q0 81 -2 123q-1 31 -9 39t-38 12l-23 3v34zM197 636q0 42 31.5 72.5t73.5 30.5q43 0 74.5 -30.5t31.5 -72.5q0 -45 -31 -75t-75 -30q-43 0 -74 30t-31 75zM301 685q-22 0 -36 -15t-14 -38t14.5 -39.5t35.5 -16.5q24 0 39 16.5t15 39.5q0 24 -14.5 38.5
t-39.5 14.5z" />
    <glyph glyph-name="Uhungarumlaut" unicode="&#x170;" horiz-adv-x="759" 
d="M19 694h319v-35l-35 -3q-30 -2 -40 -13.5t-12 -42.5q-7 -170 -7 -306v-60q0 -89 51.5 -133t126.5 -44q70 0 121 41t51 122v115q0 179 -2 265q-1 31 -12 42t-43 14l-32 3v35h243v-35l-35 -3q-30 -2 -40 -13.5t-12 -42.5q-6 -146 -6 -256v-145q0 -70 -40 -120.5t-99.5 -73
t-128.5 -22.5q-72 0 -134 23.5t-103.5 74t-41.5 118.5q0 24 0.5 71.5t0.5 75.5q0 125 -3 254q-1 31 -12 42t-43 14l-32 3v35zM346 870h87q10 0 12.5 -8.5t-6.5 -16.5l-164 -117l-26 13zM517 870h88q10 0 12.5 -8.5t-7.5 -16.5l-163 -117l-26 13z" />
    <glyph glyph-name="uhungarumlaut" unicode="&#x171;" horiz-adv-x="619" 
d="M19 489h199q-5 -88 -5 -188q0 -97 2 -142q2 -50 17 -69t50 -19q51 0 84 33t36 98q2 35 2 98q0 65 -2 101q-1 30 -8 38.5t-34 12.5l-21 3v34h192q-4 -114 -4 -232q0 -106 4 -170q2 -30 10 -38.5t39 -12.5l22 -3v-33h-198v77q-115 -94 -196 -94q-119 0 -119 124
q0 26 1 83.5t1 87.5q0 81 -2 123q-1 31 -9 39t-38 12l-23 3v34zM258 730h86q10 0 12.5 -8.5t-6.5 -16.5l-170 -164l-25 13zM419 730h86q10 0 12.5 -8.5t-7.5 -16.5l-170 -164l-24 13z" />
    <glyph glyph-name="Uogonek" unicode="&#x172;" horiz-adv-x="759" 
d="M19 694h319v-35l-35 -3q-30 -2 -40 -13.5t-12 -42.5q-7 -170 -7 -306v-60q0 -89 51.5 -133t126.5 -44q70 0 121 41t51 122v115q0 179 -2 265q-1 31 -12 42t-43 14l-32 3v35h243v-35l-35 -3q-30 -2 -40 -13.5t-12 -42.5q-6 -146 -6 -256v-145q0 -87 -56.5 -140.5
t-143.5 -68.5q-55 -36 -55 -98q0 -54 54 -54q35 0 60 24l20 -24q-45 -50 -115 -50q-107 0 -107 83q0 67 72 112q-112 1 -194 58.5t-82 157.5q0 24 0.5 71.5t0.5 75.5q0 125 -3 254q-1 31 -12 42t-43 14l-32 3v35z" />
    <glyph glyph-name="uogonek" unicode="&#x173;" horiz-adv-x="619" 
d="M19 489h199q-5 -88 -5 -188q0 -97 2 -142q2 -50 17 -69t50 -19q51 0 84 33t36 98q2 35 2 98q0 65 -2 101q-1 30 -8 38.5t-34 12.5l-21 3v34h192q-4 -114 -4 -232q0 -106 4 -170q2 -30 10 -38.5t39 -12.5l22 -3v-33h-86q-76 -33 -76 -108q0 -54 54 -54q35 0 60 24l20 -24
q-45 -50 -115 -50q-107 0 -107 83t104 129h-52v77q-115 -94 -196 -94q-119 0 -119 124q0 26 1 83.5t1 87.5q0 81 -2 123q-1 31 -9 39t-38 12l-23 3v34z" />
    <glyph glyph-name="Wcircumflex" unicode="&#x174;" horiz-adv-x="1016" 
d="M-2 694h287v-34l-28 -2q-44 -4 -38 -41q33 -130 126 -443q79 222 163 520h63q75 -246 175 -520q85 269 122 433q5 26 -5 37t-37 14l-26 2v34h220v-34l-26 -2q-19 -2 -30.5 -14.5t-23.5 -46.5q-57 -160 -188 -606h-80q-53 166 -169 479q-50 -139 -157 -479h-80
q-89 310 -199 619q-9 26 -18 35.5t-29 12.5l-22 2v34zM385 744l103 112q19 19 49 19q33 0 49 -16l106 -115l-30 -13l-126 69l-122 -69z" />
    <glyph glyph-name="wcircumflex" unicode="&#x175;" horiz-adv-x="749" 
d="M-10 489h255v-34l-19 -2q-43 -5 -43 -32q0 -13 83 -271q79 217 111 333h67q29 -120 109 -333q88 249 88 270q0 29 -41 33l-19 2v34h176v-34l-14 -2q-16 -2 -23 -12t-21 -43q-70 -165 -149 -405h-66q-52 177 -107 319q-35 -86 -116 -319h-67q-67 220 -146 416
q-9 23 -17.5 31.5t-29.5 12.5l-11 2v34zM254 554l101 163q13 19 44 19q34 0 44 -16l103 -166l-27 -13l-121 103l-117 -103z" />
    <glyph glyph-name="Ycircumflex" unicode="&#x176;" horiz-adv-x="708" 
d="M-34 694h332v-35l-23 -3q-44 -6 -44 -27q0 -16 16 -44q14 -23 141 -226q82 113 150 224q16 26 16 41q0 23 -48 32l-23 4v34h245v-35l-23 -3q-26 -4 -45.5 -20t-49.5 -58q-126 -176 -194 -281q0 -152 2 -205q1 -31 11.5 -42.5t40.5 -13.5l35 -3v-33h-315v33l32 3
q32 3 43 14t12 42q3 99 3 203q-98 129 -192 284q-25 41 -47.5 57t-51.5 20l-23 3v35zM214 744l103 112q19 19 49 19q33 0 49 -16l106 -115l-30 -13l-126 69l-122 -69z" />
    <glyph glyph-name="ycircumflex" unicode="&#x177;" horiz-adv-x="513" 
d="M-10 489h262v-34l-19 -2q-42 -5 -42 -29q0 -33 105 -312q39 99 71.5 194.5t32.5 112.5q0 30 -38 34l-19 2v34h184v-34l-11 -2q-20 -5 -30.5 -15t-23.5 -40q-91 -207 -172 -441q-60 -167 -159 -167q-52 0 -86 40.5t-34 128.5l35 2q4 -35 29.5 -54t59.5 -19q69 0 89 71
q-67 213 -172 450q-10 23 -20 31.5t-31 12.5l-11 2v34zM133 554l101 163q13 19 44 19q34 0 44 -16l103 -166l-27 -13l-121 103l-117 -103z" />
    <glyph glyph-name="Ydieresis" unicode="&#x178;" horiz-adv-x="708" 
d="M-34 694h332v-35l-23 -3q-44 -6 -44 -27q0 -16 16 -44q14 -23 141 -226q82 113 150 224q16 26 16 41q0 23 -48 32l-23 4v34h245v-35l-23 -3q-26 -4 -45.5 -20t-49.5 -58q-126 -176 -194 -281q0 -152 2 -205q1 -31 11.5 -42.5t40.5 -13.5l35 -3v-33h-315v33l32 3
q32 3 43 14t12 42q3 99 3 203q-98 129 -192 284q-25 41 -47.5 57t-51.5 20l-23 3v35zM208 812q0 23 16.5 39.5t38.5 16.5q24 0 40.5 -16.5t16.5 -39.5t-16.5 -40t-40.5 -17q-22 0 -38.5 17t-16.5 40zM418 812q0 23 16.5 39.5t40.5 16.5q22 0 38.5 -16.5t16.5 -39.5
t-16.5 -40t-38.5 -17q-24 0 -40.5 16.5t-16.5 40.5z" />
    <glyph glyph-name="Zacute" unicode="&#x179;" horiz-adv-x="680" 
d="M80 694h553v-46q-151 -177 -429 -528q104 -3 250 -3q91 0 116.5 21t32.5 98h40l-13 -236h-594v46q200 230 439 528q-62 3 -257 3q-62 0 -82.5 -20.5t-26.5 -87.5h-40zM393 870h106q12 0 14.5 -8.5t-8.5 -16.5l-198 -122l-30 13z" />
    <glyph glyph-name="zacute" unicode="&#x17a;" horiz-adv-x="506" 
d="M53 489h412v-35q-111 -128 -286 -359q72 -2 104 -2q85 0 116.5 19.5t34.5 84.5h32l-6 -197h-432v34q44 43 153 174.5t147 185.5q-33 2 -98 2q-88 0 -117.5 -18.5t-32.5 -85.5h-33zM285 730h106q12 0 14.5 -8.5t-8.5 -16.5l-185 -164l-33 13z" />
    <glyph glyph-name="Zdotaccent" unicode="&#x17b;" horiz-adv-x="680" 
d="M80 694h553v-46q-151 -177 -429 -528q104 -3 250 -3q91 0 116.5 21t32.5 98h40l-13 -236h-594v46q200 230 439 528q-62 3 -257 3q-62 0 -82.5 -20.5t-26.5 -87.5h-40zM350 868q25 0 43 -17.5t18 -41.5q0 -25 -18 -42.5t-43 -17.5q-24 0 -41 17.5t-17 42.5q0 24 17 41.5
t41 17.5z" />
    <glyph glyph-name="zdotaccent" unicode="&#x17c;" horiz-adv-x="506" 
d="M53 489h412v-35q-111 -128 -286 -359q72 -2 104 -2q85 0 116.5 19.5t34.5 84.5h32l-6 -197h-432v34q44 43 153 174.5t147 185.5q-33 2 -98 2q-88 0 -117.5 -18.5t-32.5 -85.5h-33zM255 687q25 0 43 -17.5t18 -41.5q0 -26 -18 -43.5t-43 -17.5q-24 0 -41.5 18t-17.5 43
q0 24 17.5 41.5t41.5 17.5z" />
    <glyph glyph-name="Zcaron" unicode="&#x17d;" horiz-adv-x="680" 
d="M80 694h553v-46q-151 -177 -429 -528q104 -3 250 -3q91 0 116.5 21t32.5 98h40l-13 -236h-594v46q200 230 439 528q-62 3 -257 3q-62 0 -82.5 -20.5t-26.5 -87.5h-40zM212 864l29 13l126 -69l122 69l30 -13l-104 -112q-19 -19 -49 -19q-33 0 -49 16z" />
    <glyph glyph-name="zcaron" unicode="&#x17e;" horiz-adv-x="506" 
d="M53 489h412v-35q-111 -128 -286 -359q72 -2 104 -2q85 0 116.5 19.5t34.5 84.5h32l-6 -197h-432v34q44 43 153 174.5t147 185.5q-33 2 -98 2q-88 0 -117.5 -18.5t-32.5 -85.5h-33zM116 727l27 13l121 -103l117 103l27 -13l-101 -163q-13 -19 -44 -19q-34 0 -44 16z" />
    <glyph glyph-name="longs" unicode="&#x17f;" horiz-adv-x="342" 
d="M308 736q78 0 78 -73q0 -29 -15.5 -48t-43.5 -19q-27 0 -53 26t-46 26q-40 0 -40 -59q0 -13 16 -54t16 -72q-1 -60 -1 -184q0 -135 2 -190q1 -31 9 -40.5t38 -12.5l42 -3v-33h-288v33l21 3q32 5 41 13.5t10 39.5q2 65 2 186q0 27 -0.5 112t-0.5 112q0 58 23 105.5
t57.5 75t69.5 42t63 14.5z" />
    <glyph glyph-name="florin" unicode="&#x192;" 
d="M151 489h77q11 63 35.5 111t55 74.5t61 39t58.5 12.5q78 0 78 -73q0 -29 -15.5 -48t-43.5 -19q-27 0 -53.5 26t-46.5 26q-39 0 -39 -57q0 -34 15 -63t41 -29h108v-52h-127q-1 -31 -1 -211q0 -51 0.5 -159.5t0.5 -133.5q0 -70 -39.5 -107.5t-95.5 -37.5q-75 0 -119 73
l24 22q22 -26 51 -26q20 0 34.5 13.5t15.5 38.5q5 55 5 324q0 96 -2 204h-78v52z" />
    <glyph glyph-name="gacute" unicode="&#x1f5;" horiz-adv-x="554" 
d="M406 489h138v-52h-118q49 -38 49 -114q0 -72 -59 -117t-152 -45q-15 0 -36 3t-29 3q-22 0 -38 -13t-16 -30q0 -16 13 -22.5t49 -6.5q167 0 222 -12q102 -23 102 -123q0 -78 -76.5 -126t-206.5 -48q-97 0 -156.5 30t-59.5 83q0 31 26.5 60t59.5 40q-77 16 -77 69
q0 66 108 126q-91 44 -91 144q0 70 54.5 118.5t141.5 48.5q34 0 79.5 -8t72.5 -8zM264 461q-36 0 -55.5 -31.5t-19.5 -86.5q0 -64 23 -100t63 -36q70 0 70 119q0 135 -81 135zM192 -14q-23 0 -40 -19t-17 -51q0 -39 35.5 -61t96.5 -22q73 0 112.5 27t39.5 67q0 44 -53 52
q-55 7 -174 7zM316 730h106q12 0 14.5 -8.5t-8.5 -16.5l-185 -164l-33 13z" />
    <glyph glyph-name="AEacute" unicode="&#x1fc;" horiz-adv-x="935" 
d="M316 694h545v-202h-34q-5 86 -35 117.5t-110 31.5q-95 0 -135 -2q-4 -73 -6 -249h74q53 0 71.5 16.5t21.5 75.5h37v-231h-37q-3 55 -21.5 73.5t-69.5 18.5h-76q0 -187 2 -238q1 -29 30 -40t112 -11q78 0 108 28.5t34 112.5h34v-195h-545v33l32 3q32 3 43 14t12 42
q2 104 2 154h-238q-87 -108 -123 -162q-15 -23 -11 -35t29 -14l26 -3v-32h-233l1 32l26 3q24 2 40.5 13.5t45.5 45.5q26 32 190 226t243 295q-2 24 -13.5 31.5t-39.5 9.5l-32 3v35zM207 299h199v49q0 78 -2 198q-52 -64 -197 -247zM624 870h106q12 0 14.5 -8.5t-8.5 -16.5
l-198 -122l-30 13z" />
    <glyph glyph-name="aeacute" unicode="&#x1fd;" horiz-adv-x="775" 
d="M740 266h-308q1 -86 41 -131.5t105 -45.5q44 0 75.5 22.5t42.5 61.5h37q-34 -189 -208 -189q-66 0 -111.5 36t-67.5 98q-55 -68 -102.5 -98.5t-97.5 -30.5q-49 0 -76.5 26.5t-27.5 76.5q0 96 140 161q31 14 76 32t56 23q0 48 -1 67q-2 41 -20 61t-57 20q-32 0 -52.5 -15
t-20.5 -37q0 -8 6 -24t6 -31q0 -23 -18.5 -39.5t-47.5 -16.5q-27 0 -43 16t-16 46q0 54 74 102.5t171 48.5q87 0 108 -65q60 65 153 65q53 0 91 -18.5t58 -49t28.5 -62t8.5 -64.5q0 -12 -2 -46zM433 314l163 2q16 2 23 10.5t7 29.5q0 46 -21 75.5t-64 29.5q-42 0 -72.5 -36
t-35.5 -111zM314 257q-67 -11 -108 -45t-41 -81q0 -57 54 -57q38 0 64 30.5t29 90.5q2 42 2 62zM462 730h106q12 0 14.5 -8.5t-8.5 -16.5l-185 -164l-33 13z" />
    <glyph glyph-name="Oslashacute" unicode="&#x1fe;" horiz-adv-x="788" 
d="M413 870h106q12 0 14.5 -8.5t-8.5 -16.5l-198 -122l-30 13zM686 741l54 -25l-85 -103q52 -50 80 -120t28 -146q0 -151 -107 -256t-267 -105q-114 0 -201 60l-74 -90l-53 25l82 101q-106 103 -106 265q0 151 108.5 256t272.5 105q109 0 192 -59zM579 520l-327 -396
q58 -88 151 -88q91 0 150 86t59 225q0 97 -33 173zM224 180l327 396q-57 81 -148 81t-150 -87t-59 -223q0 -95 30 -167z" />
    <glyph glyph-name="oslashacute" unicode="&#x1ff;" horiz-adv-x="577" 
d="M304 730h106q12 0 14.5 -8.5t-8.5 -16.5l-185 -164l-33 13zM472 535l46 -28l-52 -66q76 -73 76 -196q0 -115 -74.5 -188t-183.5 -73q-76 0 -137 36l-52 -72l-46 28l57 77q-71 69 -71 192q0 114 74.5 187.5t183.5 73.5q73 0 130 -34zM388 339l-181 -241q33 -68 92 -68
q47 0 75.5 52t28.5 139q0 70 -15 118zM187 160l180 239q-33 60 -89 60q-48 0 -76.5 -51.5t-28.5 -141.5q0 -61 14 -106z" />
    <glyph glyph-name="Scommaaccent" unicode="&#x218;" horiz-adv-x="602" 
d="M313 710q126 0 195 -53v-173h-34q-6 95 -50.5 138t-108.5 43q-45 0 -78 -27t-33 -74q0 -34 25 -63.5t62 -49.5t81 -46t81 -52t62 -68t25 -93q0 -96 -77.5 -152.5t-184.5 -56.5q-131 0 -210 45v185h35q8 -97 56.5 -139t113.5 -42q57 0 94.5 28t37.5 79q0 31 -18.5 58.5
t-47.5 48t-64 40.5t-70.5 42t-64.5 46.5t-47.5 59.5t-18.5 76q0 87 67 143.5t172 56.5zM246 -301l-15 27q64 21 64 70q0 31 -26 31q-27 0 -42.5 15.5t-15.5 40.5q0 26 17 43t45 17q43 0 67 -28t24 -71q0 -47 -30.5 -88t-87.5 -57z" />
    <glyph glyph-name="scommaaccent" unicode="&#x219;" horiz-adv-x="441" 
d="M52 169h38q6 -74 38 -108t78 -34q84 0 84 72q0 29 -24.5 51.5t-59.5 39t-70 35t-59.5 51t-24.5 77.5q0 66 50 109.5t128 43.5q92 0 150 -49v-128h-38q-11 135 -112 135q-37 0 -56.5 -17.5t-19.5 -46.5q0 -28 25.5 -50.5t61.5 -39.5t72 -37.5t61.5 -54.5t25.5 -80
q0 -74 -53.5 -114t-135.5 -40q-99 0 -159 35v150zM181 -301l-15 27q64 21 64 70q0 31 -26 31q-27 0 -42.5 15.5t-15.5 40.5q0 26 17 43t45 17q43 0 67 -28t24 -71q0 -47 -30.5 -88t-87.5 -57z" />
    <glyph glyph-name="dotlessj" unicode="&#x237;" horiz-adv-x="307" 
d="M27 432v35q120 17 195 42l7 -4q-6 -156 -6 -279q0 -51 1 -157t1 -132q0 -70 -39.5 -107t-96.5 -37q-74 0 -118 72l23 23q21 -26 52 -26q19 0 33.5 13t16.5 38q4 55 4 296q0 121 -3 170q-2 31 -10 39t-42 12z" />
    <glyph glyph-name="circumflex" unicode="&#x2c6;" horiz-adv-x="392" 
d="M50 554l101 163q13 19 44 19q34 0 44 -16l103 -166l-27 -13l-121 103l-117 -103z" />
    <glyph glyph-name="caron" unicode="&#x2c7;" horiz-adv-x="392" 
d="M50 727l27 13l121 -103l117 103l27 -13l-101 -163q-13 -19 -44 -19q-34 0 -44 16z" />
    <glyph glyph-name="breve" unicode="&#x2d8;" horiz-adv-x="373" 
d="M50 716l29 9q17 -44 39 -58t66 -14t68.5 14.5t40.5 57.5l30 -9q-27 -147 -138 -147q-52 0 -85 34.5t-50 112.5z" />
    <glyph glyph-name="dotaccent" unicode="&#x2d9;" horiz-adv-x="220" 
d="M109 687q25 0 43 -17.5t18 -41.5q0 -26 -18 -43.5t-43 -17.5q-24 0 -41.5 18t-17.5 43q0 24 17.5 41.5t41.5 17.5z" />
    <glyph glyph-name="ring" unicode="&#x2da;" horiz-adv-x="311" 
d="M50 636q0 42 31.5 72.5t73.5 30.5q43 0 74.5 -30.5t31.5 -72.5q0 -45 -31 -75t-75 -30q-43 0 -74 30t-31 75zM154 685q-22 0 -36 -15t-14 -38t14.5 -39.5t35.5 -16.5q24 0 39 16.5t15 39.5q0 24 -15 38.5t-39 14.5z" />
    <glyph glyph-name="ogonek" unicode="&#x2db;" horiz-adv-x="322" 
d="M193 14l26 -12q-81 -33 -81 -110q0 -54 54 -54q35 0 60 24l20 -24q-45 -50 -115 -50q-107 0 -107 83q0 52 41 89t102 54z" />
    <glyph glyph-name="tilde" unicode="&#x2dc;" horiz-adv-x="421" 
d="M84 558l-34 8q1 59 28.5 101t70.5 42q30 0 75 -33.5t63 -33.5q22 0 36 16t15 49l33 -4q-1 -60 -26.5 -100t-68.5 -40q-36 0 -77 32.5t-60 32.5q-53 0 -55 -70z" />
    <glyph glyph-name="hungarumlaut" unicode="&#x2dd;" horiz-adv-x="464" 
d="M153 730h86q10 0 12.5 -8.5t-6.5 -16.5l-170 -164l-25 13zM314 730h86q10 0 12.5 -8.5t-7.5 -16.5l-170 -164l-24 13z" />
    <glyph glyph-name="Theta" unicode="&#x398;" horiz-adv-x="759" 
 />
    <glyph glyph-name="Lambda" unicode="&#x39b;" horiz-adv-x="648" 
 />
    <glyph glyph-name="Pi" unicode="&#x3a0;" horiz-adv-x="789" 
 />
    <glyph glyph-name="Sigma" unicode="&#x3a3;" horiz-adv-x="639" 
 />
    <glyph glyph-name="eta" unicode="&#x3b7;" horiz-adv-x="603" 
 />
    <glyph glyph-name="theta" unicode="&#x3b8;" horiz-adv-x="571" 
 />
    <glyph glyph-name="iota" unicode="&#x3b9;" horiz-adv-x="279" 
 />
    <glyph glyph-name="pi" unicode="&#x3c0;" horiz-adv-x="681" 
d="M12 375l92 88q34 26 66 26h487l-12 -90h-112q-4 -65 -4 -140q0 -101 4 -165q1 -22 10 -31t27 -9q24 0 59 12v-42q-84 -40 -143 -40q-49 0 -66.5 22.5t-17.5 71.5q0 20 2.5 87.5t2.5 109.5q0 64 -4 124h-141v-392q0 -23 -73 -23q-31 0 -49 7t-15 19l76 389h-42
q-31 0 -131 -51z" />
    <glyph glyph-name="rho" unicode="&#x3c1;" horiz-adv-x="567" 
 />
    <glyph glyph-name="Wgrave" unicode="&#x1e80;" horiz-adv-x="1016" 
d="M-2 694h287v-34l-28 -2q-44 -4 -38 -41q33 -130 126 -443q79 222 163 520h63q75 -246 175 -520q85 269 122 433q5 26 -5 37t-37 14l-26 2v34h220v-34l-26 -2q-19 -2 -30.5 -14.5t-23.5 -46.5q-57 -160 -188 -606h-80q-53 166 -169 479q-50 -139 -157 -479h-80
q-89 310 -199 619q-9 26 -18 35.5t-29 12.5l-22 2v34zM389 870h106l116 -134l-30 -13l-198 122q-11 8 -8.5 16.5t14.5 8.5z" />
    <glyph glyph-name="wgrave" unicode="&#x1e81;" horiz-adv-x="749" 
d="M-10 489h255v-34l-19 -2q-43 -5 -43 -32q0 -13 83 -271q79 217 111 333h67q29 -120 109 -333q88 249 88 270q0 29 -41 33l-19 2v34h176v-34l-14 -2q-16 -2 -23 -12t-21 -43q-70 -165 -149 -405h-66q-52 177 -107 319q-35 -86 -116 -319h-67q-67 220 -146 416
q-9 23 -17.5 31.5t-29.5 12.5l-11 2v34zM261 730h106l106 -176l-33 -13l-185 164q-11 8 -8.5 16.5t14.5 8.5z" />
    <glyph glyph-name="Wacute" unicode="&#x1e82;" horiz-adv-x="1016" 
d="M-2 694h287v-34l-28 -2q-44 -4 -38 -41q33 -130 126 -443q79 222 163 520h63q75 -246 175 -520q85 269 122 433q5 26 -5 37t-37 14l-26 2v34h220v-34l-26 -2q-19 -2 -30.5 -14.5t-23.5 -46.5q-57 -160 -188 -606h-80q-53 166 -169 479q-50 -139 -157 -479h-80
q-89 310 -199 619q-9 26 -18 35.5t-29 12.5l-22 2v34zM578 870h106q12 0 14.5 -8.5t-8.5 -16.5l-198 -122l-30 13z" />
    <glyph glyph-name="wacute" unicode="&#x1e83;" horiz-adv-x="749" 
d="M-10 489h255v-34l-19 -2q-43 -5 -43 -32q0 -13 83 -271q79 217 111 333h67q29 -120 109 -333q88 249 88 270q0 29 -41 33l-19 2v34h176v-34l-14 -2q-16 -2 -23 -12t-21 -43q-70 -165 -149 -405h-66q-52 177 -107 319q-35 -86 -116 -319h-67q-67 220 -146 416
q-9 23 -17.5 31.5t-29.5 12.5l-11 2v34zM408 730h106q12 0 14.5 -8.5t-8.5 -16.5l-185 -164l-33 13z" />
    <glyph glyph-name="Wdieresis" unicode="&#x1e84;" horiz-adv-x="1016" 
d="M-2 694h287v-34l-28 -2q-44 -4 -38 -41q33 -130 126 -443q79 222 163 520h63q75 -246 175 -520q85 269 122 433q5 26 -5 37t-37 14l-26 2v34h220v-34l-26 -2q-19 -2 -30.5 -14.5t-23.5 -46.5q-57 -160 -188 -606h-80q-53 166 -169 479q-50 -139 -157 -479h-80
q-89 310 -199 619q-9 26 -18 35.5t-29 12.5l-22 2v34zM373 812q0 23 16.5 39.5t38.5 16.5q24 0 40.5 -16.5t16.5 -39.5t-16.5 -40t-40.5 -17q-22 0 -38.5 17t-16.5 40zM583 812q0 23 16.5 39.5t40.5 16.5q22 0 38.5 -16.5t16.5 -39.5t-16.5 -40t-38.5 -17q-24 0 -40.5 16.5
t-16.5 40.5z" />
    <glyph glyph-name="wdieresis" unicode="&#x1e85;" horiz-adv-x="749" 
d="M-10 489h255v-34l-19 -2q-43 -5 -43 -32q0 -13 83 -271q79 217 111 333h67q29 -120 109 -333q88 249 88 270q0 29 -41 33l-19 2v34h176v-34l-14 -2q-16 -2 -23 -12t-21 -43q-70 -165 -149 -405h-66q-52 177 -107 319q-35 -86 -116 -319h-67q-67 220 -146 416
q-9 23 -17.5 31.5t-29.5 12.5l-11 2v34zM240 630q0 23 16.5 39.5t38.5 16.5q24 0 40.5 -16.5t16.5 -39.5t-16.5 -40t-40.5 -17q-22 0 -38.5 17t-16.5 40zM450 630q0 23 16.5 39.5t40.5 16.5q22 0 38.5 -16.5t16.5 -39.5t-16.5 -40t-38.5 -17q-24 0 -40.5 16.5t-16.5 40.5z
" />
    <glyph glyph-name="uni1E9E" unicode="&#x1e9e;" horiz-adv-x="718" 
d="M359 709q136 0 271 -20v-89l-163 -140q94 -23 155 -87.5t61 -160.5q0 -105 -66 -166.5t-168 -61.5q-148 0 -176 157l31 9q12 -43 45.5 -66.5t76.5 -23.5q49 0 80 33.5t31 96.5q0 142 -187 184v45l177 160q-38 25 -98.5 45t-100.5 20q-89 0 -95 -101q-5 -85 -5 -264
q0 -224 2 -279h-224v32l35 4q32 5 41 13.5t10 39.5q2 65 2 186q0 27 -0.5 90t-0.5 91q0 77 43.5 137t103 88t119.5 28z" />
    <glyph glyph-name="Ygrave" unicode="&#x1ef2;" horiz-adv-x="708" 
d="M-34 694h332v-35l-23 -3q-44 -6 -44 -27q0 -16 16 -44q14 -23 141 -226q82 113 150 224q16 26 16 41q0 23 -48 32l-23 4v34h245v-35l-23 -3q-26 -4 -45.5 -20t-49.5 -58q-126 -176 -194 -281q0 -152 2 -205q1 -31 11.5 -42.5t40.5 -13.5l35 -3v-33h-315v33l32 3
q32 3 43 14t12 42q3 99 3 203q-98 129 -192 284q-25 41 -47.5 57t-51.5 20l-23 3v35zM243 870h106l116 -134l-30 -13l-198 122q-11 8 -8.5 16.5t14.5 8.5z" />
    <glyph glyph-name="ygrave" unicode="&#x1ef3;" horiz-adv-x="513" 
d="M-10 489h262v-34l-19 -2q-42 -5 -42 -29q0 -33 105 -312q39 99 71.5 194.5t32.5 112.5q0 30 -38 34l-19 2v34h184v-34l-11 -2q-20 -5 -30.5 -15t-23.5 -40q-91 -207 -172 -441q-60 -167 -159 -167q-52 0 -86 40.5t-34 128.5l35 2q4 -35 29.5 -54t59.5 -19q69 0 89 71
q-67 213 -172 450q-10 23 -20 31.5t-31 12.5l-11 2v34zM149 730h106l106 -176l-33 -13l-185 164q-11 8 -8.5 16.5t14.5 8.5z" />
    <glyph glyph-name="endash" unicode="&#x2013;" horiz-adv-x="673" 
d="M43 325h587v-73h-587v73z" />
    <glyph glyph-name="emdash" unicode="&#x2014;" horiz-adv-x="948" 
d="M43 325h862v-73h-862v73z" />
    <glyph glyph-name="afii00208" unicode="&#x2015;" horiz-adv-x="716" 
d="M44 315h628v-52h-628v52z" />
    <glyph glyph-name="quoteleft" unicode="&#x2018;" horiz-adv-x="278" 
d="M188 807l18 -32q-39 -18 -59 -47.5t-20 -56.5q0 -31 36 -31q29 0 46 -17t17 -43q0 -29 -20.5 -50.5t-53.5 -21.5q-48 0 -73.5 30t-25.5 77q0 54 35 107.5t100 84.5z" />
    <glyph glyph-name="quoteright" unicode="&#x2019;" horiz-adv-x="278" 
d="M92 452l-19 31q40 18 60 47.5t20 56.5q0 32 -36 32q-30 0 -46.5 17t-16.5 43q0 29 20 50.5t53 21.5q48 0 73.5 -30t25.5 -77q0 -54 -34.5 -108t-99.5 -84z" />
    <glyph glyph-name="quotesinglbase" unicode="&#x201a;" horiz-adv-x="278" 
d="M92 -186l-19 32q40 18 60 47.5t20 56.5q0 31 -36 31q-30 0 -46.5 17t-16.5 43q0 29 20 50.5t53 21.5q48 0 73.5 -30t25.5 -77q0 -54 -34.5 -107.5t-99.5 -84.5z" />
    <glyph glyph-name="quotedblleft" unicode="&#x201c;" horiz-adv-x="503" 
d="M413 807l19 -32q-40 -18 -60 -47.5t-20 -56.5q0 -31 36 -31q30 0 46.5 -17t16.5 -43q0 -29 -20 -50.5t-53 -21.5q-48 0 -73.5 30t-25.5 77q0 54 34.5 107.5t99.5 84.5zM188 807l19 -32q-40 -18 -60 -47.5t-20 -56.5q0 -31 36 -31q30 0 46.5 -17t16.5 -43q0 -29 -20 -50.5
t-53 -21.5q-48 0 -73.5 30t-25.5 77q0 54 34.5 107.5t99.5 84.5z" />
    <glyph glyph-name="quotedblright" unicode="&#x201d;" horiz-adv-x="503" 
d="M92 452l-19 31q40 18 60 47.5t20 56.5q0 32 -36 32q-30 0 -46.5 17t-16.5 43q0 29 20 50.5t53 21.5q48 0 73.5 -30t25.5 -77q0 -54 -34.5 -108t-99.5 -84zM317 452l-19 31q40 18 60 47.5t20 56.5q0 32 -36 32q-30 0 -46.5 17t-16.5 43q0 29 20 50.5t53 21.5
q48 0 73.5 -30t25.5 -77q0 -54 -34.5 -108t-99.5 -84z" />
    <glyph glyph-name="quotedblbase" unicode="&#x201e;" horiz-adv-x="503" 
d="M92 -186l-19 32q40 18 60 47.5t20 56.5q0 31 -36 31q-30 0 -46.5 17t-16.5 43q0 29 20 50.5t53 21.5q48 0 73.5 -30t25.5 -77q0 -54 -34.5 -107.5t-99.5 -84.5zM317 -186l-19 32q40 18 60 47.5t20 56.5q0 31 -36 31q-30 0 -46.5 17t-16.5 43q0 29 20 50.5t53 21.5
q48 0 73.5 -30t25.5 -77q0 -54 -34.5 -107.5t-99.5 -84.5z" />
    <glyph glyph-name="dagger" unicode="&#x2020;" horiz-adv-x="513" 
d="M236 517q-1 33 -22 89.5t-21 81.5q0 12 6 19t18.5 10t21 3.5t22.5 0.5q18 0 29 -1t23 -9t12 -23q0 -27 -22.5 -83t-23.5 -88q34 3 92.5 24t82.5 21q12 0 19 -6t10 -18.5t3.5 -21t0.5 -22.5q0 -18 -1 -29t-9 -23t-23 -12q-27 0 -83.5 21.5t-91.5 22.5q0 -32 23 -88.5
t23 -81.5q0 -32 -68 -32q-64 0 -64 32q0 26 21 82.5t22 87.5q-32 -1 -92.5 -22.5t-81.5 -21.5q-33 0 -33 68q0 18 1 29t9 23t23 12q29 0 85.5 -22t88.5 -23z" />
    <glyph glyph-name="daggerdbl" unicode="&#x2021;" horiz-adv-x="518" 
d="M236 517q-1 32 -22 88t-21 83q0 12 6 19t18.5 10t21 3.5t22.5 0.5q18 0 29 -1t23 -9t12 -23q0 -27 -22.5 -83t-23.5 -88q35 1 93.5 23t81.5 22q12 0 19 -6t10 -18.5t3.5 -21t0.5 -22.5q0 -18 -1 -29t-9 -23t-23 -12q-27 0 -84 21.5t-91 22.5q1 -30 23.5 -79.5t22.5 -74.5
q0 -23 -22.5 -76t-23.5 -82q33 1 91.5 22.5t83.5 21.5q15 0 23 -12.5t9 -23.5t1 -30q0 -65 -33 -65q-26 0 -84 21t-91 23q1 -31 23.5 -87.5t22.5 -82.5q0 -34 -66 -34q-19 0 -30 1t-23.5 9t-12.5 24q0 24 21.5 81t21.5 89q-32 -1 -88.5 -22.5t-85.5 -21.5q-33 0 -33 65
q0 14 0.5 22t3.5 20t10 18t19 6q25 0 84 -21.5t90 -22.5q0 29 -21.5 80.5t-21.5 77.5q0 23 21.5 73.5t21.5 80.5q-31 -1 -91.5 -22.5t-82.5 -21.5q-33 0 -33 68q0 18 1 29t9 23t23 12q29 0 86 -22t88 -23z" />
    <glyph glyph-name="bullet" unicode="&#x2022;" horiz-adv-x="572" 
d="M155 435q44 55 115 62t127 -38q55 -44 62 -115t-37 -126q-45 -55 -116 -62.5t-126 36.5q-55 45 -62.5 116t37.5 127z" />
    <glyph glyph-name="ellipsis" unicode="&#x2026;" horiz-adv-x="1025" 
d="M152 145q34 0 56 -22t22 -56q0 -33 -22 -55.5t-56 -22.5q-33 0 -55 22.5t-22 55.5q0 34 22 56t55 22zM512 145q34 0 56 -22t22 -56q0 -33 -22 -55.5t-56 -22.5q-33 0 -55 22.5t-22 55.5q0 34 22 56t55 22zM872 145q34 0 56 -22t22 -56q0 -33 -22 -55.5t-56 -22.5
q-33 0 -55 22.5t-22 55.5q0 34 22 56t55 22z" />
    <glyph glyph-name="perthousand" unicode="&#x2030;" horiz-adv-x="1236" 
d="M644 703l57 -33l-491 -694l-57 33zM668 424q74 0 111 -61t37 -157q0 -101 -42 -159.5t-117 -58.5q-76 0 -112.5 58t-36.5 160q0 96 44 157t116 61zM663 331q-49 0 -78.5 -33.5t-29.5 -91.5t28.5 -92t79.5 -34q48 0 76.5 33t28.5 93q0 57 -25 91t-80 34zM1037 424
q74 0 111 -61t37 -157q0 -101 -42 -159.5t-117 -58.5q-76 0 -112.5 58t-36.5 160q0 96 44 157t116 61zM1032 331q-49 0 -78.5 -33.5t-29.5 -91.5t28.5 -92t79.5 -34q48 0 76.5 33t28.5 93q0 57 -25 91t-80 34zM209 710q74 0 111 -60.5t37 -157.5q0 -100 -42 -158.5
t-117 -58.5q-76 0 -112.5 58t-36.5 159q0 96 44 157t116 61zM204 617q-49 0 -78.5 -33.5t-29.5 -91.5t28.5 -91.5t79.5 -33.5q48 0 76.5 32.5t28.5 92.5q0 125 -105 125z" />
    <glyph glyph-name="minute" unicode="&#x2032;" horiz-adv-x="253" 
d="M187 684l-50 -210h-28l-43 210q-4 20 11 30.5t47 10.5q33 0 50 -11t13 -30z" />
    <glyph glyph-name="second" unicode="&#x2033;" horiz-adv-x="434" 
d="M187 684l-50 -210h-28l-43 210q-4 20 11 30.5t47 10.5q33 0 50 -11t13 -30zM368 684l-50 -210h-28l-43 210q-4 20 11 30.5t47 10.5q34 0 51 -11t12 -30z" />
    <glyph glyph-name="guilsinglleft" unicode="&#x2039;" horiz-adv-x="329" 
d="M34 288l238 212l29 -27l-140 -218l140 -213l-32 -25l-234 207q-8 8 -8 33q0 24 7 31z" />
    <glyph glyph-name="guilsinglright" unicode="&#x203a;" horiz-adv-x="329" 
d="M27 475l32 25l234 -207q8 -7 8 -33q0 -25 -7 -31l-237 -212l-30 27l141 218z" />
    <glyph glyph-name="fraction" unicode="&#x2044;" horiz-adv-x="267" 
d="M353 703l57 -33l-491 -694l-57 33z" />
    <glyph glyph-name="zero.superior" unicode="&#x2070;" horiz-adv-x="398" 
d="M206 840q79 0 119 -65.5t40 -169.5q0 -108 -45.5 -171t-125.5 -63q-82 0 -121.5 62.5t-39.5 171.5q0 104 47.5 169.5t125.5 65.5zM200 740q-52 0 -84 -36.5t-32 -98.5t30.5 -98t85.5 -36q52 0 82.5 35t30.5 99q0 61 -27.5 98t-85.5 37z" />
    <glyph glyph-name="four.superior" unicode="&#x2074;" horiz-adv-x="398" 
d="M83 560h132v156q-71 -78 -132 -156zM254 839h64q-4 -186 -4 -279h50v-61h-50q0 -78 2 -115h-104q2 40 2 115h-186v78q130 139 226 262z" />
    <glyph glyph-name="five.superior" unicode="&#x2075;" horiz-adv-x="398" 
d="M127 741l-11 -87q36 29 96 29q68 0 108 -39.5t40 -102.5q0 -77 -44 -123.5t-124 -46.5q-62 0 -98 35.5t-40 102.5h35q1 -33 25 -55t55 -22q39 0 63 27t24 72q0 43 -20 69.5t-58 26.5q-54 0 -83 -53h-38l30 260q95 -9 184 -9q29 0 43 4.5t23 18.5h31q-17 -62 -42 -86
t-77 -24q-61 0 -122 3z" />
    <glyph glyph-name="six.superior" unicode="&#x2076;" horiz-adv-x="398" 
d="M197 633q-30 0 -46.5 -24t-16.5 -65q0 -61 20 -94.5t54 -33.5q60 0 60 102q0 53 -17.5 84t-53.5 31zM317 841l2 -38q-74 -6 -121 -46.5t-60 -101.5q48 41 102 41q63 0 95.5 -42t32.5 -106q0 -71 -45.5 -124t-124.5 -53q-76 0 -120.5 53.5t-44.5 146.5q0 118 74.5 194
t209.5 76z" />
    <glyph glyph-name="seven.superior" unicode="&#x2077;" horiz-adv-x="398" 
d="M66 828h300l8 -42q-82 -163 -167 -402h-102q65 139 190 357q-54 2 -152 2q-33 0 -47.5 -17t-22.5 -59h-35z" />
    <glyph glyph-name="eight.superior" unicode="&#x2078;" horiz-adv-x="398" 
d="M114 603q-72 36 -72 112q0 54 44 89.5t118 35.5q68 0 108 -31t40 -77q0 -62 -71 -94q87 -41 87 -126q0 -60 -47 -100.5t-129 -40.5q-77 0 -119 33.5t-42 83.5q0 74 83 115zM215 659q54 19 54 77q0 29 -17.5 46t-49.5 17q-34 0 -51 -17.5t-17 -43.5q0 -54 81 -79zM177 578
q-60 -20 -60 -85q0 -36 20 -58t57 -22q38 0 58 20t20 51q0 64 -95 94z" />
    <glyph glyph-name="nine.superior" unicode="&#x2079;" horiz-adv-x="398" 
d="M195 795q-61 0 -61 -97q0 -53 17.5 -83.5t51.5 -30.5q65 0 65 90q0 60 -19.5 90.5t-53.5 30.5zM85 371l-3 39q75 6 122.5 48t60.5 105q-44 -42 -99 -42q-63 0 -98 41.5t-35 105.5q0 72 47 122.5t124 50.5q76 0 120 -52t44 -143q0 -122 -73.5 -198.5t-209.5 -76.5z" />
    <glyph glyph-name="plus.superior" unicode="&#x207a;" horiz-adv-x="468" 
d="M198 760h70v-148h150v-70h-150v-149h-70v149h-148v70h148v148z" />
    <glyph glyph-name="minus.superior" unicode="&#x207b;" horiz-adv-x="468" 
d="M50 612h368v-70h-368v70z" />
    <glyph glyph-name="equal.superior" unicode="&#x207c;" horiz-adv-x="468" 
d="M50 690h368v-69h-368v69zM50 537h368v-69h-368v69z" />
    <glyph glyph-name="parenleft.superior" unicode="&#x207d;" horiz-adv-x="281" 
d="M252 900l13 -31q-67 -32 -96 -100t-29 -179q0 -229 125 -289l-14 -30q-94 31 -152 115.5t-58 199.5q0 114 57 198.5t154 115.5z" />
    <glyph glyph-name="parenright.superior" unicode="&#x207e;" horiz-adv-x="281" 
d="M15 869l14 31q94 -32 152 -116.5t58 -197.5q0 -115 -56.5 -199.5t-153.5 -115.5l-14 30q67 33 96 101t29 179q0 229 -125 288z" />
    <glyph glyph-name="n.superior" unicode="&#x207f;" horiz-adv-x="451" 
d="M157 739l10 -2v-58q78 58 136 58q88 0 88 -89q0 -29 -1 -71.5t-1 -72t2 -56.5q1 -17 6 -23t22 -8l20 -2v-31h-191v31l16 2q16 2 21.5 8t6.5 23q1 25 1 82q0 53 -2 83q-1 31 -11.5 43t-31.5 12q-34 0 -56 -21.5t-25 -62.5q-1 -21 -1 -69q0 -31 2 -67q1 -18 5 -23.5
t19 -7.5l19 -2v-31h-192v31l17 2q20 3 25 7.5t6 23.5q2 34 2 99q0 66 -2 99q-1 19 -6 24.5t-26 6.5l-16 2v31q90 13 138 29z" />
    <glyph glyph-name="zero.inferior" unicode="&#x2080;" horiz-adv-x="398" 
d="M206 289q79 0 119 -65.5t40 -169.5q0 -108 -45.5 -171t-125.5 -63q-82 0 -121.5 62.5t-39.5 171.5q0 104 47.5 169.5t125.5 65.5zM200 189q-52 0 -84 -36.5t-32 -98.5t30.5 -98t85.5 -36q52 0 82.5 35t30.5 99q0 61 -27.5 98t-85.5 37z" />
    <glyph glyph-name="one.inferior" unicode="&#x2081;" horiz-adv-x="398" 
d="M45 150v46q109 45 213 97l14 -6q-7 -107 -7 -231q0 -128 2 -158q1 -28 27 -29l47 -3v-33h-257v33l51 2q16 2 22 8t7 22q2 47 2 154q0 56 -2 146z" />
    <glyph glyph-name="two.inferior" unicode="&#x2082;" horiz-adv-x="398" 
d="M82 122h-34q10 79 52.5 123t107.5 44q66 0 99.5 -35t33.5 -83q0 -35 -18 -70t-38.5 -58t-61.5 -64q-36 -35 -59 -63h71q49 0 64 9.5t26 47.5h33l-25 -140h-294l-3 39q99 79 155.5 143.5t56.5 117.5q0 33 -18.5 54t-56.5 21q-75 0 -91 -86z" />
    <glyph glyph-name="three.inferior" unicode="&#x2083;" horiz-adv-x="398" 
d="M84 137h-34q4 76 45 114t106 38q63 0 101.5 -32.5t38.5 -81.5q0 -33 -20 -59.5t-53 -40.5q40 -14 64 -44.5t24 -69.5q0 -62 -46.5 -101.5t-115.5 -39.5q-68 0 -108.5 36.5t-41.5 106.5h35q2 -34 27.5 -56t62.5 -22q38 0 60.5 20.5t22.5 53.5q0 82 -109 82v40
q101 0 101 71q0 29 -19 48t-55 19q-75 0 -86 -82z" />
    <glyph glyph-name="four.inferior" unicode="&#x2084;" horiz-adv-x="398" 
d="M83 9h132v156q-71 -78 -132 -156zM254 288h64q-4 -186 -4 -279h50v-61h-50q0 -78 2 -115h-104q2 40 2 115h-186v78q130 139 226 262z" />
    <glyph glyph-name="five.inferior" unicode="&#x2085;" horiz-adv-x="398" 
d="M127 190l-11 -87q36 29 96 29q68 0 108 -39.5t40 -102.5q0 -77 -44 -123.5t-124 -46.5q-62 0 -98 35.5t-40 102.5h35q1 -33 25 -55t55 -22q39 0 63 27t24 72q0 43 -20 69.5t-58 26.5q-54 0 -83 -53h-38l30 260q95 -9 184 -9q29 0 43 4.5t23 18.5h31q-17 -62 -42 -86
t-77 -24q-61 0 -122 3z" />
    <glyph glyph-name="six.inferior" unicode="&#x2086;" horiz-adv-x="398" 
d="M197 82q-30 0 -46.5 -24t-16.5 -65q0 -61 20 -94.5t54 -33.5q60 0 60 102q0 53 -17.5 84t-53.5 31zM317 290l2 -38q-74 -6 -121 -46.5t-60 -101.5q48 41 102 41q63 0 95.5 -42t32.5 -106q0 -71 -45.5 -124t-124.5 -53q-76 0 -120.5 53.5t-44.5 146.5q0 118 74.5 194
t209.5 76z" />
    <glyph glyph-name="seven.inferior" unicode="&#x2087;" horiz-adv-x="398" 
d="M66 277h300l8 -42q-82 -163 -167 -402h-102q65 139 190 357q-54 2 -152 2q-33 0 -47.5 -17t-22.5 -59h-35z" />
    <glyph glyph-name="eight.inferior" unicode="&#x2088;" horiz-adv-x="398" 
d="M114 52q-72 36 -72 112q0 54 44 89.5t118 35.5q68 0 108 -31t40 -77q0 -62 -71 -94q87 -41 87 -126q0 -60 -47 -100.5t-129 -40.5q-77 0 -119 33.5t-42 83.5q0 73 83 115zM215 108q54 19 54 77q0 29 -17.5 46t-49.5 17q-34 0 -51 -17.5t-17 -43.5q0 -54 81 -79zM177 27
q-60 -20 -60 -85q0 -36 20 -58t57 -22q38 0 58 20t20 51q0 64 -95 94z" />
    <glyph glyph-name="nine.inferior" unicode="&#x2089;" horiz-adv-x="398" 
d="M195 244q-61 0 -61 -97q0 -53 17.5 -83.5t51.5 -30.5q65 0 65 90q0 60 -19.5 90.5t-53.5 30.5zM85 -180l-3 39q75 6 122.5 48t60.5 105q-44 -42 -99 -42q-63 0 -98 41.5t-35 105.5q0 72 47 122.5t124 50.5q76 0 120 -52t44 -143q0 -122 -73.5 -198.5t-209.5 -76.5z" />
    <glyph glyph-name="parenleft.inferior" unicode="&#x208d;" horiz-adv-x="281" 
d="M252 349l13 -31q-67 -32 -96 -100t-29 -179q0 -229 125 -289l-14 -30q-94 31 -152 115.5t-58 199.5q0 114 57 198.5t154 115.5z" />
    <glyph glyph-name="parenright.inferior" unicode="&#x208e;" horiz-adv-x="281" 
d="M15 318l14 31q94 -32 152 -116.5t58 -197.5q0 -115 -56.5 -199.5t-153.5 -115.5l-14 30q67 33 96 101t29 179q0 229 -125 288z" />
    <glyph glyph-name="Euro" unicode="&#x20ac;" 
d="M205 456h229l-12 -53h-224q-3 -31 -3 -54q0 -33 4 -62h193l-11 -53h-174q18 -94 66 -144t103 -50q58 0 99.5 35.5t47.5 115.5h35l-12 -163q-76 -42 -181 -42q-141 0 -231 89.5t-90 255.5q0 158 101 267.5t232 109.5q51 0 86.5 -8t82.5 -30l12 -163h-35q-6 81 -47 116
t-98 35q-56 0 -106 -52t-67 -150z" />
    <glyph glyph-name="litre" unicode="&#x2113;" horiz-adv-x="327" 
d="M258 729q40 0 60 -22.5t20 -60.5q0 -52 -36 -111t-97 -99q0 -282 3 -331q3 -52 43 -52q29 0 46 24l22 -27q-47 -66 -130 -66q-51 0 -79.5 31.5t-28.5 95.5q0 37 0.5 143t0.5 116q-40 -22 -76 -35l-12 35q42 15 87 42q-2 42 -2 117q0 98 47 149t132 51zM258 691
q-22 0 -32.5 -12.5t-15.5 -51.5t-5 -120v-24q39 31 63.5 78t24.5 84q0 46 -35 46z" />
    <glyph glyph-name="trademark" unicode="&#x2122;" horiz-adv-x="1010" 
d="M33 732h364v-117h-35q-2 42 -16 56.5t-53 16.5l-30 1q-3 -42 -3 -142q0 -96 2 -125q1 -14 5.5 -19.5t18.5 -6.5l25 -2v-32h-195v32l23 2q16 2 21 6.5t6 19.5q2 44 2 126q0 85 -2 141l-29 -1q-40 -3 -53 -16.5t-16 -56.5h-35v117zM453 732h161l94 -220l94 220h153v-33
l-25 -1q-12 -2 -16.5 -6t-4.5 -16q0 -194 4 -260q2 -20 21 -21l26 -1v-32h-187v32l25 1q13 2 17 5.5t4 15.5q0 144 -3 231l-118 -284h-29l-124 285q-2 -84 -2 -232q0 -12 4 -16t15 -5l28 -1v-32h-145v32l24 1q13 1 17.5 5.5t4.5 15.5q8 213 8 260q0 12 -5 16t-17 6l-24 1v33
z" />
    <glyph glyph-name="Omega" unicode="&#x2126;" horiz-adv-x="858" 
d="M18 162h31q22 -39 40 -50.5t67 -11.5h87q-50 39 -91.5 117.5t-41.5 155.5q0 143 91 240t233 97t225 -93.5t83 -229.5q0 -68 -39.5 -149t-90.5 -138h89q49 0 67 11.5t40 50.5h31l-25 -162h-318v40q104 96 104 289q0 146 -48.5 239t-134.5 93q-75 0 -119.5 -81t-44.5 -194
q0 -131 26.5 -209t81.5 -137v-40h-318z" />
    <glyph glyph-name="estimated" unicode="&#x212e;" horiz-adv-x="658" 
d="M175 427l272 3q21 0 30.5 7.5t9.5 26.5q0 95 -37.5 143.5t-103.5 48.5q-72 0 -116 -59.5t-55 -169.5zM622 376h-450q-3 -161 51 -238t150 -77q68 0 121 36t70 108h51q-25 -116 -95.5 -168.5t-186.5 -52.5q-126 0 -210.5 102t-84.5 259q0 162 97 263.5t233 101.5
q66 0 117.5 -25t80.5 -66t44 -89t15 -99q0 -25 -3 -55z" />
    <glyph glyph-name="onethird" unicode="&#x2153;" horiz-adv-x="941" 
d="M689 703l57 -33l-491 -694l-57 33zM69 576v43q112 47 199 90l13 -6q-7 -98 -7 -214q0 -119 2 -147q1 -14 6 -20t19 -7l44 -2v-31h-239v31l47 1q15 2 20.5 7.5t6.5 20.5q2 44 2 143q0 52 -2 136zM617 283h-31q4 70 42 105.5t98 35.5q59 0 95 -30t36 -76q0 -31 -19 -55.5
t-50 -37.5q37 -13 60 -41.5t23 -64.5q0 -58 -43.5 -94.5t-107.5 -36.5t-101.5 33.5t-38.5 99.5h32q2 -32 26 -52.5t58 -20.5q36 0 57 19.5t21 50.5q0 75 -102 75v37q94 0 94 66q0 28 -17.5 45.5t-51.5 17.5q-69 0 -80 -76z" />
    <glyph glyph-name="twothirds" unicode="&#x2154;" horiz-adv-x="957" 
d="M703 703l57 -33l-491 -694l-57 33zM112 550h-31q9 74 48.5 114.5t99.5 40.5q62 0 93.5 -32.5t31.5 -76.5q0 -47 -26 -85t-82 -94q-37 -36 -55 -59h63q46 0 59.5 9t24.5 45h31l-24 -130h-272l-3 35q93 76 145 135t52 109q0 30 -17.5 49.5t-52.5 19.5q-69 0 -85 -80z
M633 283h-31q4 70 42 105.5t98 35.5q59 0 95 -30t36 -76q0 -31 -19 -55.5t-50 -37.5q37 -13 60 -41.5t23 -64.5q0 -58 -43.5 -94.5t-107.5 -36.5t-101.5 33.5t-38.5 99.5h32q2 -32 26 -52.5t58 -20.5q36 0 57 19.5t21 50.5q0 75 -102 75v37q94 0 94 66q0 28 -17.5 45.5
t-51.5 17.5q-69 0 -80 -76z" />
    <glyph glyph-name="oneeighth" unicode="&#x215b;" horiz-adv-x="957" 
d="M691 703l57 -33l-491 -694l-57 33zM69 576v43q112 47 199 90l13 -6q-7 -98 -7 -214q0 -119 2 -147q1 -14 6 -20t19 -7l44 -2v-31h-239v31l47 1q15 2 20.5 7.5t6.5 20.5q2 44 2 143q0 52 -2 136zM651 204q-68 32 -68 104q0 50 41 83t110 33q63 0 100 -29t37 -72
q0 -59 -66 -87q81 -37 81 -117q0 -56 -43.5 -93.5t-120.5 -37.5q-72 0 -111 31.5t-39 77.5q0 68 79 107zM744 256q51 18 51 71q0 27 -16.5 43t-47.5 16t-46.5 -16.5t-15.5 -40.5q0 -50 75 -73zM709 181q-56 -20 -56 -79q0 -34 19 -54.5t53 -20.5q35 0 53.5 18.5t18.5 47.5
q0 59 -88 88z" />
    <glyph glyph-name="threeeighths" unicode="&#x215c;" horiz-adv-x="937" 
d="M671 703l57 -33l-491 -694l-57 33zM631 204q-68 32 -68 104q0 50 41 83t110 33q63 0 100 -29t37 -72q0 -59 -66 -87q81 -37 81 -117q0 -56 -43.5 -93.5t-120.5 -37.5q-72 0 -111 31.5t-39 77.5q0 68 79 107zM724 256q51 18 51 71q0 27 -16.5 43t-47.5 16t-46.5 -16.5
t-15.5 -40.5q0 -50 75 -73zM689 181q-56 -20 -56 -79q0 -34 19 -54.5t53 -20.5q35 0 53.5 18.5t18.5 47.5q0 59 -88 88zM107 565h-31q4 70 42 105t98 35q59 0 95 -30t36 -75q0 -31 -19 -56t-50 -37q37 -13 60 -41.5t23 -64.5q0 -58 -43.5 -94.5t-107.5 -36.5t-101.5 33.5
t-38.5 99.5h32q2 -32 25.5 -52.5t58.5 -20.5q36 0 57 19t21 50q0 76 -102 76v37q94 0 94 66q0 28 -17.5 45.5t-51.5 17.5q-69 0 -80 -76z" />
    <glyph glyph-name="fiveeighths" unicode="&#x215d;" horiz-adv-x="924" 
d="M659 703l57 -33l-491 -694l-57 33zM138 613l-10 -78q36 27 89 27q64 0 101 -38t37 -97q0 -71 -41 -114t-115 -43q-121 0 -129 128h33q1 -31 23 -51t51 -20q36 0 58.5 24.5t22.5 66.5q0 40 -18 63.5t-54 23.5q-50 0 -76 -47h-37l28 242q80 -8 171 -8q27 0 40 4t21 17h30
q-16 -57 -39.5 -79.5t-71.5 -22.5q-36 0 -114 2zM618 204q-68 32 -68 104q0 50 41 83t110 33q63 0 100 -29t37 -72q0 -59 -66 -87q81 -37 81 -117q0 -56 -43.5 -93.5t-120.5 -37.5q-72 0 -111 31.5t-39 77.5q0 68 79 107zM711 256q51 18 51 71q0 27 -16.5 43t-47.5 16
t-46.5 -16.5t-15.5 -40.5q0 -50 75 -73zM676 181q-56 -20 -56 -79q0 -34 19 -54.5t53 -20.5q35 0 53.5 18.5t18.5 47.5q0 59 -88 88z" />
    <glyph glyph-name="seveneighths" unicode="&#x215e;" horiz-adv-x="893" 
d="M604 703l57 -33l-491 -694l-57 33zM588 204q-68 32 -68 104q0 50 41 83t110 33q63 0 100 -29t37 -72q0 -59 -66 -87q81 -37 81 -117q0 -56 -43.5 -93.5t-120.5 -37.5q-72 0 -111 31.5t-39 77.5q0 68 79 107zM681 256q51 18 51 71q0 27 -16.5 43t-47.5 16t-46.5 -16.5
t-15.5 -40.5q0 -50 75 -73zM646 181q-56 -20 -56 -79q0 -34 19 -54.5t53 -20.5q35 0 53.5 18.5t18.5 47.5q0 59 -88 88zM98 694h279l8 -39q-78 -154 -155 -374h-95q60 130 176 332q-50 2 -141 2q-31 0 -44.5 -16t-20.5 -55h-32z" />
    <glyph glyph-name="arrowleft" unicode="&#x2190;" horiz-adv-x="946" 
d="M80 301q0 22 12 31l381 250l20 -30l-216 -221h589v-62h-589l216 -219l-20 -31l-381 250q-12 9 -12 32z" />
    <glyph glyph-name="arrowup" unicode="&#x2191;" horiz-adv-x="723" 
d="M362 693q22 0 31 -12l250 -381l-30 -20l-221 216v-589h-62v589l-219 -216l-31 20l250 381q9 12 32 12z" />
    <glyph glyph-name="arrowright" unicode="&#x2192;" horiz-adv-x="946" 
d="M866 299q0 -22 -12 -31l-381 -250l-20 30l216 221h-589v62h589l-216 219l20 31l381 -250q12 -9 12 -32z" />
    <glyph glyph-name="arrowdown" unicode="&#x2193;" horiz-adv-x="723" 
d="M361 -93q-22 0 -31 12l-250 381l30 20l221 -216v589h62v-589l219 216l31 -20l-250 -381q-9 -12 -32 -12z" />
    <glyph glyph-name="arrowboth" unicode="&#x2194;" horiz-adv-x="1235" 
d="M80 301q0 22 12 31l381 250l20 -30l-216 -221h681l-216 221l20 30l381 -250q12 -9 12 -31q0 -23 -12 -32l-381 -250l-20 31l216 219h-681l216 -219l-20 -31l-381 250q-12 9 -12 32z" />
    <glyph glyph-name="arrowupdn" unicode="&#x2195;" horiz-adv-x="723" 
d="M361 854q23 0 32 -12l250 -381l-31 -20l-220 216v-681l220 216l31 -20l-250 -381q-9 -12 -32 -12q-22 0 -31 12l-250 381l30 20l220 -216v681l-220 -216l-30 20l250 381q9 12 31 12z" />
    <glyph glyph-name="arrowupleft" unicode="&#x2196;" horiz-adv-x="752" 
d="M95 578q16 16 30 13l446 -92l-7 -36l-309 -3l417 -417l-44 -43l-416 416l-3 -308l-36 -7l-92 446q-3 14 14 31z" />
    <glyph glyph-name="arrowupright" unicode="&#x2197;" horiz-adv-x="752" 
d="M657 578q16 -16 14 -31l-93 -446l-36 7l-2 308l-417 -416l-43 43l416 417l-309 3l-7 36l446 92q15 3 31 -13z" />
    <glyph glyph-name="arrowdownright" unicode="&#x2198;" horiz-adv-x="752" 
d="M657 14q-16 -16 -31 -13l-446 92l7 36l309 3l-416 417l43 43l417 -416l2 308l36 7l93 -446q2 -15 -14 -31z" />
    <glyph glyph-name="arrowdownleft" unicode="&#x2199;" horiz-adv-x="752" 
d="M95 14q-17 17 -14 31l92 446l36 -7l3 -308l416 416l44 -43l-417 -417l309 -3l7 -36l-446 -92q-14 -3 -30 13z" />
    <glyph glyph-name="arrowupdnbse" unicode="&#x21a8;" horiz-adv-x="723" 
d="M361 969q23 0 32 -12l250 -381l-31 -20l-220 216v-636l220 216l31 -20l-250 -381q-9 -12 -32 -12q-22 0 -31 12l-250 381l30 20l220 -216v636l-220 -216l-30 20l250 381q9 12 31 12zM88 -130h550v-88h-550v88z" />
    <glyph glyph-name="partialdiff" unicode="&#x2202;" horiz-adv-x="575" 
d="M120 686l2 38q187 0 302 -115t115 -302q0 -143 -82 -233t-211 -90q-102 0 -156.5 66t-54.5 170q0 110 69.5 192t182.5 82q71 0 109 -53q-28 106 -97.5 171t-178.5 74zM291 442q-122 0 -122 -186q0 -96 32.5 -152.5t85.5 -56.5q56 0 87.5 56t31.5 156q0 90 -30.5 136.5
t-84.5 46.5z" />
    <glyph glyph-name="Delta" unicode="&#x2206;" horiz-adv-x="648" 
d="M306 711h35l296 -711h-629zM300 537l-174 -428h354z" />
    <glyph glyph-name="product" unicode="&#x220f;" horiz-adv-x="788" 
d="M25 694h738v-35l-35 -3q-30 -2 -40 -13.5t-12 -42.5q-6 -144 -6 -254q0 -206 2 -254q1 -31 11.5 -42.5t40.5 -13.5l35 -3v-33h-315v33l32 3q32 3 43 14t12 42q3 132 3 256q0 118 -3 247q-1 31 -12 40t-43 9h-168q-30 0 -40.5 -9.5t-11.5 -39.5q-6 -144 -6 -249
q0 -206 2 -254q1 -31 11.5 -42.5t40.5 -13.5l35 -3v-33h-314v33l32 3q32 3 43 14t12 42q3 132 3 256q0 123 -3 252q-1 31 -12 42t-43 14l-32 3v35z" />
    <glyph glyph-name="summation" unicode="&#x2211;" horiz-adv-x="692" 
d="M50 694h553l11 -225h-40q-6 67 -26.5 87.5t-82.5 20.5q-195 0 -258 -3q17 -22 89 -110.5t86 -105.5q-13 -17 -91.5 -115.5t-96.5 -122.5q104 -3 244 -3q91 0 116.5 21t32.5 98h40l-13 -236h-589v46q127 146 265 312q-120 150 -240 290v46z" />
    <glyph glyph-name="minus" unicode="&#x2212;" horiz-adv-x="650" 
d="M50 325h550v-93h-550v93z" />
    <glyph glyph-name="radical" unicode="&#x221a;" horiz-adv-x="613" 
d="M-1 440h188l119 -299l258 588h75l-327 -729h-79l-166 385h-68v55z" />
    <glyph glyph-name="infinity" unicode="&#x221e;" horiz-adv-x="623" 
d="M331 434q49 104 133 104q57 0 95 -49t38 -139q0 -96 -46.5 -151t-113.5 -55q-49 0 -87.5 29t-58.5 79q-48 -104 -133 -104q-56 0 -94 49.5t-38 139.5q0 96 46 150.5t114 54.5q49 0 87 -29t58 -79zM265 320q-36 115 -112 115q-37 0 -61.5 -25t-24.5 -71q0 -45 27 -69.5
t70 -24.5q77 0 101 75zM357 367q36 -116 112 -116q37 0 61.5 25t24.5 72q0 45 -27 69.5t-70 24.5q-77 0 -101 -75z" />
    <glyph glyph-name="integral" unicode="&#x222b;" horiz-adv-x="456" 
d="M372 726q78 0 78 -73q0 -29 -15.5 -48t-43.5 -19q-27 0 -54 26t-47 26q-38 0 -38 -57q0 -19 18.5 -66.5t18.5 -77.5v-504q0 -70 -39.5 -107.5t-96.5 -37.5q-74 0 -118 73l23 22q22 -26 52 -26q19 0 33.5 13.5t16.5 38.5q4 55 4 324q0 27 -0.5 125t-0.5 126q0 63 22 112.5
t56 76t68 40t63 13.5z" />
    <glyph glyph-name="approxequal" unicode="&#x2248;" horiz-adv-x="641" 
d="M214 518q34 0 68.5 -17.5t57.5 -38t54 -38t60 -17.5q68 0 106 59l31 -23q-29 -65 -66 -99.5t-90 -34.5q-35 0 -70.5 18.5t-60.5 40t-58 40t-64 18.5q-68 0 -97 -57l-35 18q68 131 164 131zM214 293q34 0 68.5 -17.5t57.5 -38t54 -38t60 -17.5q68 0 106 59l31 -22
q-29 -66 -66 -100.5t-90 -34.5q-35 0 -70.5 18.5t-60.5 40t-58 40t-64 18.5q-68 0 -97 -57l-35 18q68 131 164 131z" />
    <glyph glyph-name="notequal" unicode="&#x2260;" horiz-adv-x="650" 
d="M50 445h324l77 109h112l-76 -109h113v-93h-175l-91 -127h266v-93h-328l-80 -115h-112l80 115h-110v93h172l90 127h-262v93z" />
    <glyph glyph-name="lessequal" unicode="&#x2264;" horiz-adv-x="650" 
d="M74 468l501 222v-105l-398 -171l398 -171v-106l-501 222v109zM50 93h550v-93h-550v93z" />
    <glyph glyph-name="greaterequal" unicode="&#x2265;" horiz-adv-x="650" 
d="M74 690l501 -222v-109l-501 -222v105l398 171l-398 171v106zM50 93h550v-93h-550v93z" />
    <glyph glyph-name="lozenge" unicode="&#x25ca;" horiz-adv-x="598" 
d="M258 703h80l214 -451l-214 -456h-80l-214 452zM296 577l-156 -322l161 -334l154 323z" />
    <glyph glyph-name="commaaccent" unicode="&#xf6c3;" horiz-adv-x="253" 
d="M85 -301l-15 27q64 21 64 70q0 31 -26 31q-27 0 -42.5 15.5t-15.5 40.5q0 26 17 43t45 17q43 0 67 -28t24 -71q0 -47 -30.5 -88t-87.5 -57z" />
    <glyph glyph-name="Acute" unicode="&#xf6c9;" horiz-adv-x="338" 
d="M166 870h106q12 0 14.5 -8.5t-8.5 -16.5l-198 -122l-30 13z" />
    <glyph glyph-name="Caron" unicode="&#xf6ca;" horiz-adv-x="407" 
d="M50 864l29 13l126 -69l122 69l30 -13l-104 -112q-19 -19 -49 -19q-33 0 -49 16z" />
    <glyph glyph-name="Dieresis" unicode="&#xf6cb;" horiz-adv-x="422" 
d="M50 812q0 23 16.5 39.5t38.5 16.5q24 0 40.5 -16.5t16.5 -39.5t-16.5 -40t-40.5 -17q-22 0 -38.5 17t-16.5 40zM260 812q0 23 16.5 39.5t40.5 16.5q22 0 38.5 -16.5t16.5 -39.5t-16.5 -40t-38.5 -17q-24 0 -40.5 16.5t-16.5 40.5z" />
    <glyph glyph-name="Grave" unicode="&#xf6ce;" horiz-adv-x="338" 
d="M66 870h106l116 -134l-30 -13l-198 122q-11 8 -8.5 16.5t14.5 8.5z" />
    <glyph glyph-name="Hungarumlaut" unicode="&#xf6cf;" horiz-adv-x="470" 
d="M147 870h87q10 0 12.5 -8.5t-6.5 -16.5l-164 -117l-26 13zM318 870h88q10 0 12.5 -8.5t-7.5 -16.5l-163 -117l-26 13z" />
    <glyph glyph-name="Macron" unicode="&#xf6d0;" horiz-adv-x="363" 
d="M50 832h263v-60h-263v60z" />
    <glyph glyph-name="Lslashsmall" unicode="&#xf6f9;" horiz-adv-x="508" 
d="M44 506h262v-33l-28 -3q-24 -3 -32 -10.5t-9 -30.5q-3 -48 -3 -111l101 74l18 -34l-119 -87v-14q0 -126 2 -169q1 -20 23 -28t76 -8t78.5 27t31.5 97h36v-176h-437v33l25 2q26 3 33.5 10.5t8.5 32.5q2 66 2 104l-65 -47l-18 35l83 60v28q0 115 -2 171q-1 25 -8 32t-32 9
l-27 3v33z" />
    <glyph glyph-name="OEsmall" unicode="&#xf6fa;" horiz-adv-x="860" 
d="M417 506h393v-151h-37q-3 60 -23 80t-75 20q-125 0 -173 -1q72 -66 82 -172h40q35 0 47.5 11.5t13.5 53.5h39v-174h-39q-1 39 -13 52t-47 13h-40q-6 -103 -78 -173q42 -16 158 -16q59 0 81.5 20.5t29.5 79.5h36v-149h-411q-48 -16 -97 -16q-117 0 -193 77t-76 189
q0 113 83 192.5t206 79.5q48 0 93 -16zM314 473q-64 0 -102.5 -61.5t-38.5 -161.5q0 -94 38 -156t103 -62q64 0 102.5 61t38.5 163q0 91 -36 154t-105 63z" />
    <glyph glyph-name="Scaronsmall" unicode="&#xf6fd;" horiz-adv-x="458" 
d="M82 727l27 13l121 -103l117 103l27 -13l-101 -163q-13 -19 -44 -19q-34 0 -44 16zM45 162h37q6 -69 40.5 -99t80.5 -30q41 0 65 19.5t24 53.5q0 33 -26.5 56.5t-77.5 48.5q-139 69 -139 159q0 65 53.5 108.5t137.5 43.5q93 0 150 -41v-133h-37q-5 69 -36.5 99.5
t-75.5 30.5q-33 0 -53 -17.5t-20 -48.5t24.5 -52.5t74.5 -46.5q70 -35 108 -72.5t38 -97.5q0 -72 -60 -114.5t-145 -42.5q-103 0 -163 34v142z" />
    <glyph glyph-name="Zcaronsmall" unicode="&#xf6ff;" horiz-adv-x="540" 
d="M71 506h421v-43q-170 -189 -313 -363q54 -2 180 -2q61 0 78.5 15t21.5 69h38l-9 -182h-450v41q160 176 319 365h-185q-41 0 -53.5 -14.5t-16.5 -61.5h-39zM145 727l27 13l121 -103l117 103l27 -13l-101 -163q-13 -19 -44 -19q-34 0 -44 16z" />
    <glyph glyph-name="exclamsmall" unicode="&#xf721;" horiz-adv-x="286" 
d="M74 534h136l-47 -367h-43zM106 76q13 15 31 17t34 -9t17.5 -29t-10.5 -33t-30 -17t-33 9q-16 11 -18.5 29t9.5 33z" />
    <glyph glyph-name="ampersandsmall" unicode="&#xf726;" horiz-adv-x="694" 
d="M286 478q-88 0 -118 -112h217q-9 112 -99 112zM298 522q92 0 144 -51.5t52 -142.5h-334q-5 -30 -5 -58q0 -107 44.5 -175t136.5 -68q69 0 103 26t34 64q0 37 -21 56t-76 19q-52 0 -71 -14t-19 -41h-31q0 138 128 138q16 0 105 -0.5t110 -0.5q59 0 59 47h34
q-1 -70 -37.5 -105t-87.5 -35q-5 0 -16.5 0.5t-16.5 0.5q5 -18 5 -36q0 -68 -50.5 -115t-168.5 -47q-140 0 -208.5 71.5t-68.5 181.5q0 109 73 197t183 88z" />
    <glyph glyph-name="zerooldstyle" unicode="&#xf730;" 
d="M300 522q110 0 163.5 -72.5t53.5 -194.5t-62.5 -196.5t-172.5 -74.5q-112 0 -166 72t-54 195q0 120 65 195.5t173 75.5zM289 404q-75 0 -118.5 -42t-43.5 -111t42.5 -110.5t119.5 -41.5q73 0 117 40t44 112q0 66 -39 109.5t-122 43.5z" />
    <glyph glyph-name="oneoldstyle" unicode="&#xf731;" 
d="M379 537l12 -6q-10 -108 -10 -267q0 -137 2 -180q1 -25 10 -35.5t33 -11.5l64 -4v-33h-354v33l69 4q26 2 35 11t11 36q3 47 3 183q0 89 -3 157l-159 -60v47q71 24 287 126z" />
    <glyph glyph-name="twooldstyle" unicode="&#xf732;" 
d="M129 306h-35q3 103 60.5 159.5t146.5 56.5q83 0 130 -41t47 -110q0 -32 -12 -62t-28.5 -52t-45 -46.5t-50 -40t-55.5 -38.5t-51 -35q20 -1 115 -1q73 0 94 12.5t37 65.5h31l-27 -174h-414l-2 59q279 135 279 270q0 45 -25.5 71t-75.5 26q-52 0 -83.5 -29.5t-35.5 -90.5z
" />
    <glyph glyph-name="threeoldstyle" unicode="&#xf733;" 
d="M99 298h-35q6 113 66.5 168.5t159.5 55.5q96 0 150 -47t54 -124q0 -58 -38.5 -102t-98.5 -61q72 -16 112.5 -63t40.5 -116q0 -98 -66 -161t-168 -63q-104 0 -163.5 52.5t-61.5 156.5h35q4 -56 45 -92t104 -36q67 0 103 39t36 101q0 139 -165 139v45q154 0 154 124
q0 52 -30 84.5t-92 32.5q-123 0 -142 -133z" />
    <glyph glyph-name="fouroldstyle" unicode="&#xf734;" 
d="M100 78h225v281q-124 -147 -225 -281zM378 520h81q-4 -199 -4 -442h78v-78h-78q0 -129 2 -191h-136q2 62 2 191h-282v107q161 179 337 413z" />
    <glyph glyph-name="fiveoldstyle" unicode="&#xf735;" 
d="M162 388l-23 -184q69 61 163 61q101 0 158.5 -61t57.5 -156q0 -118 -64.5 -190t-182.5 -72q-94 0 -146.5 50t-57.5 148h36q3 -53 40.5 -87t91.5 -34q66 0 104 45.5t38 124.5q0 73 -31.5 117t-96.5 44q-46 0 -75.5 -19t-51.5 -61h-46l43 401q154 -14 263 -14q48 0 72.5 7
t42.5 29h33q-24 -87 -60.5 -120t-114.5 -33q-63 0 -193 4z" />
    <glyph glyph-name="sixoldstyle" unicode="&#xf736;" 
d="M286 402q-52 0 -80.5 -40.5t-28.5 -110.5q0 -103 33.5 -157.5t92.5 -54.5q104 0 104 170q0 90 -30.5 141.5t-90.5 51.5zM465 712l3 -42q-125 -6 -201.5 -84t-88.5 -189q79 86 173 86t143 -64t49 -162q0 -111 -67.5 -191.5t-187.5 -80.5q-115 0 -180.5 82t-65.5 225
q0 185 110 302.5t313 117.5z" />
    <glyph glyph-name="sevenoldstyle" unicode="&#xf737;" 
d="M92 506h437l10 -57q-105 -218 -254 -652h-142q120 258 305 593q-78 4 -242 4q-56 0 -81.5 -27.5t-37.5 -95.5h-34z" />
    <glyph glyph-name="eightoldstyle" unicode="&#xf738;" 
d="M190 346q-61 24 -96.5 69.5t-35.5 104.5q0 83 65.5 136.5t174.5 53.5q101 0 159.5 -46t58.5 -115q0 -51 -35 -91.5t-98 -64.5q73 -26 115.5 -76.5t42.5 -118.5q0 -91 -69 -152.5t-193 -61.5q-116 0 -178 49.5t-62 125.5q0 57 39.5 106.5t111.5 80.5zM318 418
q92 37 92 136q0 49 -30.5 80t-86.5 31q-57 0 -85 -31.5t-28 -76.5q0 -94 138 -139zM254 317q-47 -18 -74.5 -59t-27.5 -91q0 -62 33.5 -99.5t96.5 -37.5q64 0 97 35t33 89q0 107 -158 163z" />
    <glyph glyph-name="nineoldstyle" unicode="&#xf739;" 
d="M277 467q-106 0 -106 -165q0 -89 29 -140.5t88 -51.5q54 0 83.5 40t29.5 115q0 99 -33 150.5t-91 51.5zM114 -214l-3 42q125 9 202.5 93t89.5 199q-73 -90 -172 -90q-94 0 -144 64t-50 161q0 111 69.5 189t184.5 78q114 0 179 -81t65 -221q0 -190 -109.5 -312
t-311.5 -122z" />
    <glyph glyph-name="questionsmall" unicode="&#xf73f;" horiz-adv-x="364" 
d="M60 361h-33q4 78 51.5 120.5t116.5 42.5q66 0 107 -35.5t41 -91.5q0 -36 -14.5 -66t-36 -51t-44 -39.5t-42.5 -41.5t-27 -47h-39q0 28 14 57.5t30.5 51.5t30.5 53.5t14 62.5q0 34 -21 54.5t-57 20.5q-37 0 -62 -23.5t-29 -67.5zM130 76q12 15 30.5 17t34.5 -9
q15 -11 17 -29t-11 -33q-11 -15 -29 -17t-34 9t-18 29t10 33z" />
    <glyph glyph-name="Asmall" unicode="&#xf761;" horiz-adv-x="521" 
d="M226 363l-62 -155h122zM224 509h73q74 -195 183 -443q12 -30 33 -31l23 -2v-33h-244v33l25 2q24 1 24 16q0 17 -37 109h-158q-35 -88 -35 -107q0 -17 23 -18l26 -2v-33h-176v33l24 2q14 1 21.5 8.5t17.5 30.5q74 171 177 435z" />
    <glyph glyph-name="Bsmall" unicode="&#xf762;" horiz-adv-x="558" 
d="M36 506h261q101 0 146 -34.5t45 -85.5q0 -39 -29.5 -69.5t-76.5 -39.5q57 -9 94 -46.5t37 -84.5q0 -63 -50 -104.5t-159 -41.5h-268v33l26 2q24 3 32 11t9 32q2 55 2 180q0 122 -2 171q-1 24 -8.5 31t-31.5 10l-27 3v33zM224 247q0 -136 2 -169q1 -23 11.5 -30t44.5 -7
q99 0 99 99q0 51 -25 79t-100 28h-32zM228 458q-2 -40 -4 -166q13 -2 46 -2q45 1 69 24t24 60q0 86 -96 86q-19 0 -39 -2z" />
    <glyph glyph-name="Csmall" unicode="&#xf763;" horiz-adv-x="538" 
d="M323 522q88 0 169 -33l10 -145h-37q-7 62 -46.5 95.5t-90.5 33.5q-68 0 -110.5 -58t-42.5 -160q0 -105 43 -163t110 -58q51 0 90.5 33.5t46.5 94.5h37l-10 -140q-79 -38 -174 -38q-123 0 -200.5 67.5t-77.5 189.5q0 119 82.5 200t200.5 81z" />
    <glyph glyph-name="Dsmall" unicode="&#xf764;" horiz-adv-x="623" 
d="M36 506h243q155 0 229.5 -64.5t74.5 -175.5q0 -121 -82 -193.5t-231 -72.5h-234v33l26 2q25 3 32.5 10.5t8.5 31.5q2 55 2 184q0 119 -2 168q-1 24 -8 31t-31 10l-28 3v33zM232 455q-5 -82 -5 -200q0 -110 2 -169q1 -24 12 -31t47 -7q71 0 116 56.5t45 155.5
q0 104 -39 150.5t-134 46.5q-34 0 -44 -2z" />
    <glyph glyph-name="Esmall" unicode="&#xf765;" horiz-adv-x="503" 
d="M36 506h417v-151h-36q-3 60 -22 79.5t-74 19.5q-62 0 -91 -2q-4 -98 -4 -170h43q36 0 48 11.5t14 53.5h39v-174h-39q-2 39 -14 52t-46 13h-45q0 -123 2 -158q2 -16 22.5 -23t75.5 -7q48 0 67 20.5t26 78.5h37v-149h-420v33l25 2q25 3 33 11t9 32q2 55 2 180q0 124 -2 172
q-1 24 -8 30.5t-32 9.5l-27 3v33z" />
    <glyph glyph-name="Fsmall" unicode="&#xf766;" horiz-adv-x="465" 
d="M36 506h417v-159h-36q-3 62 -23 84.5t-73 22.5q-62 0 -91 -2q-4 -90 -4 -185h54q35 0 47 12t14 54h37v-176h-37q-2 39 -14 52.5t-46 13.5h-55q0 -109 2 -146q2 -24 9 -32t31 -10l39 -2v-33h-271v33l25 2q25 3 33 11t9 32q2 55 2 180q0 122 -2 171q-1 24 -8.5 31t-31.5 10
l-27 3v33z" />
    <glyph glyph-name="Gsmall" unicode="&#xf767;" horiz-adv-x="600" 
d="M504 489l9 -146h-37q-8 62 -47 96t-91 34q-72 0 -117 -56.5t-45 -161.5q0 -106 42 -164t111 -58q77 0 77 39v78q0 35 -11 45.5t-57 14.5v34h249v-36q-35 -3 -46 -13.5t-11 -43.5v-124q-93 -43 -210 -43q-124 0 -202 67t-78 190q0 121 85 201t207 80q91 0 172 -33z" />
    <glyph glyph-name="Hsmall" unicode="&#xf768;" horiz-adv-x="664" 
d="M36 506h261v-33l-27 -3q-25 -3 -32 -10t-8 -31q-3 -87 -3 -138h209q0 48 -2 138q-1 24 -8 31t-32 10l-27 3v33h260v-33l-26 -3q-25 -3 -32 -10t-8 -31q-4 -106 -4 -171q0 -141 3 -181q1 -24 7.5 -31.5t30.5 -10.5l28 -2v-33h-259v33l26 2q25 4 32.5 11t8.5 31q2 48 2 164
h-209q0 -128 2 -164q1 -23 8.5 -31.5t29.5 -10.5l29 -2v-33h-260v33l26 2q25 3 32.5 10t8.5 32q2 57 2 182q0 114 -2 170q-1 25 -8 32t-31 9l-28 3v33z" />
    <glyph glyph-name="Ismall" unicode="&#xf769;" horiz-adv-x="333" 
d="M36 506h261v-33l-27 -3q-24 -3 -31.5 -10t-8.5 -31q-3 -73 -3 -172q0 -140 2 -180q1 -24 8 -32t30 -10l29 -2v-33h-260v33l26 2q25 3 32.5 10t8.5 32q2 57 2 181q0 120 -2 171q-1 25 -8 32t-31 9l-28 3v33z" />
    <glyph glyph-name="Jsmall" unicode="&#xf76a;" horiz-adv-x="334" 
d="M41 506h261v-33l-26 -3q-24 -3 -32 -10.5t-9 -30.5q-3 -77 -3 -179q0 -44 1 -126.5t1 -109.5q0 -59 -45.5 -95t-102.5 -36q-64 0 -105 45l21 29q22 -17 48 -17q56 0 59 71q2 94 2 248q0 114 -2 170q-1 25 -8 32t-32 9l-28 3v33z" />
    <glyph glyph-name="Ksmall" unicode="&#xf76b;" horiz-adv-x="626" 
d="M36 506h261v-33l-27 -3q-24 -3 -31.5 -10t-8.5 -31q-3 -72 -3 -166q115 97 171 167q11 14 11 23q0 14 -27 17l-25 2v34h233v-34l-26 -2q-37 -4 -80 -45q-75 -71 -136 -121q46 -49 200 -231q30 -34 55 -38l20 -2v-33h-268v33l35 2q18 2 18 17q0 6 -12 23q-65 87 -169 188
v-6q0 -140 2 -180q1 -24 8 -32t30 -10l29 -2v-33h-260v33l26 2q25 3 32.5 10t8.5 32q2 57 2 181q0 120 -2 171q-1 25 -8 32t-31 9l-28 3v33z" />
    <glyph glyph-name="Lsmall" unicode="&#xf76c;" horiz-adv-x="499" 
d="M36 506h262v-33l-28 -3q-24 -3 -32 -10.5t-9 -30.5q-3 -73 -3 -172q0 -126 2 -169q1 -20 23 -28t76 -8t78.5 27t31.5 97h36v-176h-437v33l25 2q26 3 33.5 10.5t8.5 32.5q2 57 2 180q0 115 -2 171q-1 25 -8 32t-32 9l-27 3v33z" />
    <glyph glyph-name="Msmall" unicode="&#xf76d;" horiz-adv-x="763" 
d="M46 506h216q126 -310 127 -312q69 157 126 312h206v-33l-29 -2q-20 -2 -27 -9t-7 -26q0 -277 6 -367q2 -18 8.5 -25.5t24.5 -8.5l31 -2v-33h-250v33l29 2q20 2 27 8.5t7 25.5q0 165 -6 346q-17 -40 -85.5 -216t-77.5 -199h-39q-109 275 -170 416q-4 -161 -4 -347
q0 -19 6.5 -26t24.5 -8l33 -2v-33h-188v33l28 2q20 1 27 7.5t8 26.5q10 220 10 367q0 19 -7 26t-27 9l-28 2v33z" />
    <glyph glyph-name="Nsmall" unicode="&#xf76e;" horiz-adv-x="606" 
d="M25 506h217q7 -10 98.5 -153.5t120.5 -182.5q1 37 1 111q0 122 -1 155q-1 34 -31 35l-32 2v33h185v-33l-29 -2q-19 -2 -25.5 -8.5t-7.5 -26.5q-3 -94 -3 -275v-166h-89q-141 224 -279 416q-3 -85 -3 -160q0 -149 1 -183q1 -32 32 -33l30 -2v-33h-185v33l30 2q19 2 25 8
t7 25q3 94 3 185t-3 183q-1 20 -7.5 26.5t-24.5 8.5l-30 2v33z" />
    <glyph glyph-name="Osmall" unicode="&#xf76f;" horiz-adv-x="634" 
d="M40 250q0 113 83 192.5t206 79.5q117 0 191 -80t74 -186q0 -113 -82.5 -192.5t-202.5 -79.5q-117 0 -193 77t-76 189zM319 473q-64 0 -103 -61.5t-39 -161.5q0 -94 38 -156t104 -62q64 0 102.5 61t38.5 163q0 91 -36 154t-105 63z" />
    <glyph glyph-name="Psmall" unicode="&#xf770;" horiz-adv-x="540" 
d="M36 506h265q108 0 159 -42t51 -108q0 -65 -52.5 -110t-143.5 -45q-52 0 -88 7q0 -82 2 -131q1 -24 7.5 -32t30.5 -10l43 -2v-33h-274v33l26 2q25 3 32.5 10t8.5 32q2 57 2 182q0 114 -2 170q-1 25 -8 32t-32 9l-27 3v33zM230 459q-3 -73 -3 -202q25 -6 52 -6
q50 0 74.5 28t24.5 75q0 107 -108 107q-28 0 -40 -2z" />
    <glyph glyph-name="Qsmall" unicode="&#xf771;" horiz-adv-x="634" 
d="M40 250q0 113 83 192.5t206 79.5q117 0 191 -80t74 -186q0 -110 -78.5 -188.5t-193.5 -83.5q34 -8 95.5 -44t95.5 -36q28 0 40.5 12t14.5 41l35 -3q-1 -73 -29 -116.5t-85 -43.5q-33 0 -67.5 19.5t-58 43t-53 43t-54.5 19.5q-21 0 -34 -9t-25 -35l-35 12q38 90 100 101
q-99 15 -160.5 88.5t-61.5 173.5zM319 473q-64 0 -103 -61.5t-39 -161.5q0 -94 38 -156t104 -62q64 0 102.5 61t38.5 163q0 91 -36 154t-105 63z" />
    <glyph glyph-name="Rsmall" unicode="&#xf772;" horiz-adv-x="605" 
d="M36 506h266q105 0 157 -38t52 -100q0 -48 -33 -82t-88 -46q33 -10 57 -44q12 -16 90 -133q19 -25 42 -28l18 -2v-33h-170q-44 93 -103 175q-33 45 -62 47q-14 0 -35 3q0 -110 2 -148q1 -25 7.5 -33t29.5 -9l26 -2v-33h-256v33l26 2q25 3 32.5 10t8.5 32q2 57 2 181
q0 115 -2 171q-1 25 -8 32t-31 9l-28 3v33zM230 458q-3 -68 -3 -186q24 -4 50 -4q50 0 76.5 25.5t26.5 70.5q0 97 -112 97q-18 0 -38 -3z" />
    <glyph glyph-name="Ssmall" unicode="&#xf773;" horiz-adv-x="458" 
d="M45 162h37q6 -69 40.5 -99t80.5 -30q41 0 65 19.5t24 53.5q0 33 -26.5 56.5t-77.5 48.5q-139 69 -139 159q0 65 53.5 108.5t137.5 43.5q93 0 150 -41v-133h-37q-5 69 -36.5 99.5t-75.5 30.5q-33 0 -53 -17.5t-20 -48.5t24.5 -52.5t74.5 -46.5q70 -35 108 -72.5t38 -97.5
q0 -72 -60 -114.5t-145 -42.5q-103 0 -163 34v142z" />
    <glyph glyph-name="Tsmall" unicode="&#xf774;" horiz-adv-x="527" 
d="M20 506h487v-156h-38q-3 60 -22 80t-75 23q-15 2 -45 2q-4 -47 -4 -204q0 -134 2 -174q2 -24 8.5 -31.5t29.5 -10.5l29 -2v-33h-260v33l26 2q25 4 32.5 11t8.5 31q2 62 2 176q0 162 -2 202q-16 0 -44 -2q-57 -4 -75 -22.5t-22 -80.5h-38v156z" />
    <glyph glyph-name="Usmall" unicode="&#xf775;" horiz-adv-x="591" 
d="M20 506h254v-33l-32 -2q-18 -1 -24 -8t-7 -27q-5 -97 -5 -268q0 -60 33.5 -89t84.5 -29q49 0 83.5 26.5t34.5 80.5q0 218 -2 279q-1 19 -7.5 26t-25.5 9l-31 2v33h195v-33l-31 -2q-19 -1 -25 -8.5t-7 -26.5q-5 -84 -5 -292q0 -77 -60 -118.5t-143 -41.5q-88 0 -152 42
t-64 118q0 224 -1 292q-1 20 -8 26.5t-26 8.5l-29 2v33z" />
    <glyph glyph-name="Vsmall" unicode="&#xf776;" horiz-adv-x="522" 
d="M-15 506h244v-33l-25 -2q-16 -1 -21 -6t-3 -16q28 -88 115 -309q69 167 110 303q4 14 -1 20.5t-21 7.5l-26 2v33h180v-33l-23 -2q-14 -2 -22 -9t-19 -29q-43 -87 -175 -443h-71q-110 282 -185 451q-8 17 -14.5 23t-19.5 7l-23 2v33z" />
    <glyph glyph-name="Wsmall" unicode="&#xf777;" horiz-adv-x="770" 
d="M1 506h229v-33l-24 -2q-14 -1 -19.5 -6.5t-3.5 -15.5q23 -97 85 -296q69 210 107 353h68q48 -161 120 -355q56 178 82 291q5 26 -26 29l-24 2v33h174v-33l-24 -2q-21 -3 -34 -40q-48 -130 -139 -441h-75q-39 121 -117 329q-44 -127 -107 -329h-76q-53 186 -146 451
q-6 17 -11.5 23t-17.5 7l-21 2v33z" />
    <glyph glyph-name="Xsmall" unicode="&#xf778;" horiz-adv-x="593" 
d="M14 506h270v-33l-21 -2q-28 -3 -28 -14q0 -18 87 -139q67 71 87.5 98t20.5 39q0 13 -29 16l-22 2v33h200v-33l-23 -2q-24 -3 -70 -52q-126 -137 -132 -144q126 -176 136 -189q21 -27 36.5 -38.5t35.5 -12.5l22 -2v-33h-272v33l24 2q25 2 25 14q0 17 -90 141
q-68 -77 -88 -103t-20 -37q0 -13 27 -15l23 -2v-33h-202v33l22 2q29 3 76 52q104 113 133 146q-13 17 -59.5 84t-74.5 102q-38 48 -71 52l-23 2v33z" />
    <glyph glyph-name="Ysmall" unicode="&#xf779;" horiz-adv-x="552" 
d="M-9 506h258v-34l-23 -2q-26 -2 -26 -13q0 -10 14 -34q35 -63 96 -153q61 88 100 158q10 18 10 27q0 12 -31 15l-21 2v34h193v-33l-22 -3q-27 -1 -63 -55q-100 -148 -137 -198q0 -91 3 -140q1 -25 7.5 -32.5t30.5 -9.5l31 -2v-33h-264v33l28 2q25 3 32.5 10t8.5 32
q2 51 2 138q-69 96 -137 204q-31 47 -68 51l-22 2v34z" />
    <glyph glyph-name="Zsmall" unicode="&#xf77a;" horiz-adv-x="540" 
d="M71 506h421v-43q-170 -189 -313 -363q54 -2 180 -2q61 0 78.5 15t21.5 69h38l-9 -182h-450v41q160 176 319 365h-185q-41 0 -53.5 -14.5t-16.5 -61.5h-39z" />
    <glyph glyph-name="exclamdownsmall" unicode="&#xf7a1;" horiz-adv-x="286" 
d="M121 339h43l46 -367h-136zM80 455q0 26 17.5 42.5t44.5 16.5q26 0 43.5 -17t17.5 -42q0 -26 -17.5 -43t-43.5 -17q-27 0 -44.5 17t-17.5 43z" />
    <glyph glyph-name="questiondownsmall" unicode="&#xf7bf;" horiz-adv-x="364" 
d="M192 357h38q0 -28 -14 -57.5t-30.5 -51.5t-30.5 -53.5t-14 -62.5q0 -34 21 -54.5t57 -20.5q37 0 62 23.5t29 67.5h33q-4 -78 -51.5 -120.5t-116.5 -42.5q-66 0 -107 35.5t-41 91.5q0 36 14.5 66t36 51t44.5 39.5t43 41.5t27 47zM140 460q0 26 18.5 44t46.5 18
q27 0 45 -18t18 -44t-18 -44t-45 -18q-28 0 -46.5 18t-18.5 44z" />
    <glyph glyph-name="Agravesmall" unicode="&#xf7e0;" horiz-adv-x="521" 
d="M123 730h106l106 -176l-33 -13l-185 164q-11 8 -8.5 16.5t14.5 8.5zM226 363l-62 -155h122zM224 509h73q74 -195 183 -443q12 -30 33 -31l23 -2v-33h-244v33l25 2q24 1 24 16q0 17 -37 109h-158q-35 -88 -35 -107q0 -17 23 -18l26 -2v-33h-176v33l24 2q14 1 21.5 8.5
t17.5 30.5q74 171 177 435z" />
    <glyph glyph-name="Aacutesmall" unicode="&#xf7e1;" horiz-adv-x="521" 
d="M300 730h106q12 0 14.5 -8.5t-8.5 -16.5l-185 -164l-33 13zM226 363l-62 -155h122zM224 509h73q74 -195 183 -443q12 -30 33 -31l23 -2v-33h-244v33l25 2q24 1 24 16q0 17 -37 109h-158q-35 -88 -35 -107q0 -17 23 -18l26 -2v-33h-176v33l24 2q14 1 21.5 8.5t17.5 30.5
q74 171 177 435z" />
    <glyph glyph-name="Acircumflexsmall" unicode="&#xf7e2;" horiz-adv-x="521" 
d="M226 363l-62 -155h122zM224 509h73q74 -195 183 -443q12 -30 33 -31l23 -2v-33h-244v33l25 2q24 1 24 16q0 17 -37 109h-158q-35 -88 -35 -107q0 -17 23 -18l26 -2v-33h-176v33l24 2q14 1 21.5 8.5t17.5 30.5q74 171 177 435zM111 554l101 163q13 19 44 19q34 0 44 -16
l103 -166l-27 -13l-121 103l-117 -103z" />
    <glyph glyph-name="Atildesmall" unicode="&#xf7e3;" horiz-adv-x="521" 
d="M135 558l-34 8q1 59 28.5 101t70.5 42q30 0 75 -33.5t63 -33.5q22 0 36 16t15 49l33 -4q-1 -60 -26.5 -100t-68.5 -40q-36 0 -77 32.5t-60 32.5q-53 0 -55 -70zM226 363l-62 -155h122zM224 509h73q74 -195 183 -443q12 -30 33 -31l23 -2v-33h-244v33l25 2q24 1 24 16
q0 17 -37 109h-158q-35 -88 -35 -107q0 -17 23 -18l26 -2v-33h-176v33l24 2q14 1 21.5 8.5t17.5 30.5q74 171 177 435z" />
    <glyph glyph-name="Adieresissmall" unicode="&#xf7e4;" horiz-adv-x="521" 
d="M226 363l-62 -155h122zM224 509h73q74 -195 183 -443q12 -30 33 -31l23 -2v-33h-244v33l25 2q24 1 24 16q0 17 -37 109h-158q-35 -88 -35 -107q0 -17 23 -18l26 -2v-33h-176v33l24 2q14 1 21.5 8.5t17.5 30.5q74 171 177 435zM95 630q0 23 16.5 39.5t38.5 16.5
q24 0 40.5 -16.5t16.5 -39.5t-16.5 -40t-40.5 -17q-22 0 -38.5 17t-16.5 40zM305 630q0 23 16.5 39.5t40.5 16.5q22 0 38.5 -16.5t16.5 -39.5t-16.5 -40t-38.5 -17q-24 0 -40.5 16.5t-16.5 40.5z" />
    <glyph glyph-name="Aringsmall" unicode="&#xf7e5;" horiz-adv-x="521" 
d="M154 636q0 42 31.5 72.5t73.5 30.5q43 0 74.5 -30.5t31.5 -72.5q0 -45 -31 -75t-75 -30q-43 0 -74 30t-31 75zM258 685q-22 0 -36 -15t-14 -38t14.5 -39.5t35.5 -16.5q24 0 39 16.5t15 39.5q0 24 -15 38.5t-39 14.5zM226 363l-62 -155h122zM224 509h73q74 -195 183 -443
q12 -30 33 -31l23 -2v-33h-244v33l25 2q24 1 24 16q0 17 -37 109h-158q-35 -88 -35 -107q0 -17 23 -18l26 -2v-33h-176v33l24 2q14 1 21.5 8.5t17.5 30.5q74 171 177 435z" />
    <glyph glyph-name="AEsmall" unicode="&#xf7e6;" horiz-adv-x="731" 
d="M255 506h425v-151h-36q-3 60 -22 79.5t-74 19.5q-62 0 -91 -2q-3 -43 -5 -170h44q36 0 48 11.5t14 53.5h39v-174h-39q-2 39 -14 52t-46 13h-46q0 -123 3 -158q1 -16 22 -23t76 -7q48 0 67 20.5t26 78.5h37v-149h-420v33l25 3q26 3 34.5 11t8.5 32l1 84h-163
q-36 -45 -73 -100q-8 -13 -6 -20t16 -8l26 -2v-33h-185l1 33l24 2q14 1 25 8.5t30 30.5q261 326 298 373q-4 19 -40 23l-30 3v33zM331 373l-126 -162h127q0 129 -1 162z" />
    <glyph glyph-name="Ccedillasmall" unicode="&#xf7e7;" horiz-adv-x="538" 
d="M323 522q88 0 169 -33l10 -145h-37q-7 62 -46.5 95.5t-90.5 33.5q-68 0 -110.5 -58t-42.5 -160q0 -105 43 -163t110 -58q51 0 90.5 33.5t46.5 94.5h37l-10 -140q-75 -36 -168 -38l-21 -29q121 0 121 -78q0 -41 -38.5 -64t-96.5 -23q-51 0 -94 23l15 32q23 -13 66 -13
q61 0 61 34q0 37 -95 37l-5 8l46 75q-110 9 -176.5 75.5t-66.5 179.5q0 119 82.5 200t200.5 81z" />
    <glyph glyph-name="Egravesmall" unicode="&#xf7e8;" horiz-adv-x="503" 
d="M149 730h106l106 -176l-33 -13l-185 164q-11 8 -8.5 16.5t14.5 8.5zM36 506h417v-151h-36q-3 60 -22 79.5t-74 19.5q-62 0 -91 -2q-4 -98 -4 -170h43q36 0 48 11.5t14 53.5h39v-174h-39q-2 39 -14 52t-46 13h-45q0 -123 2 -158q2 -16 22.5 -23t75.5 -7q48 0 67 20.5
t26 78.5h37v-149h-420v33l25 2q25 3 33 11t9 32q2 55 2 180q0 124 -2 172q-1 24 -8 30.5t-32 9.5l-27 3v33z" />
    <glyph glyph-name="Eacutesmall" unicode="&#xf7e9;" horiz-adv-x="503" 
d="M296 730h106q12 0 14.5 -8.5t-8.5 -16.5l-185 -164l-33 13zM36 506h417v-151h-36q-3 60 -22 79.5t-74 19.5q-62 0 -91 -2q-4 -98 -4 -170h43q36 0 48 11.5t14 53.5h39v-174h-39q-2 39 -14 52t-46 13h-45q0 -123 2 -158q2 -16 22.5 -23t75.5 -7q48 0 67 20.5t26 78.5h37
v-149h-420v33l25 2q25 3 33 11t9 32q2 55 2 180q0 124 -2 172q-1 24 -8 30.5t-32 9.5l-27 3v33z" />
    <glyph glyph-name="Ecircumflexsmall" unicode="&#xf7ea;" horiz-adv-x="503" 
d="M36 506h417v-151h-36q-3 60 -22 79.5t-74 19.5q-62 0 -91 -2q-4 -98 -4 -170h43q36 0 48 11.5t14 53.5h39v-174h-39q-2 39 -14 52t-46 13h-45q0 -123 2 -158q2 -16 22.5 -23t75.5 -7q48 0 67 20.5t26 78.5h37v-149h-420v33l25 2q25 3 33 11t9 32q2 55 2 180q0 124 -2 172
q-1 24 -8 30.5t-32 9.5l-27 3v33zM122 554l101 163q13 19 44 19q34 0 44 -16l103 -166l-27 -13l-121 103l-117 -103z" />
    <glyph glyph-name="Edieresissmall" unicode="&#xf7eb;" horiz-adv-x="503" 
d="M36 506h417v-151h-36q-3 60 -22 79.5t-74 19.5q-62 0 -91 -2q-4 -98 -4 -170h43q36 0 48 11.5t14 53.5h39v-174h-39q-2 39 -14 52t-46 13h-45q0 -123 2 -158q2 -16 22.5 -23t75.5 -7q48 0 67 20.5t26 78.5h37v-149h-420v33l25 2q25 3 33 11t9 32q2 55 2 180q0 124 -2 172
q-1 24 -8 30.5t-32 9.5l-27 3v33zM111 630q0 23 16.5 39.5t38.5 16.5q24 0 40.5 -16.5t16.5 -39.5t-16.5 -40t-40.5 -17q-22 0 -38.5 17t-16.5 40zM321 630q0 23 16.5 39.5t40.5 16.5q22 0 38.5 -16.5t16.5 -39.5t-16.5 -40t-38.5 -17q-24 0 -40.5 16.5t-16.5 40.5z" />
    <glyph glyph-name="Igravesmall" unicode="&#xf7ec;" horiz-adv-x="333" 
d="M23 730h106l106 -176l-33 -13l-185 164q-11 8 -8.5 16.5t14.5 8.5zM36 506h261v-33l-27 -3q-24 -3 -31.5 -10t-8.5 -31q-3 -73 -3 -172q0 -140 2 -180q1 -24 8 -32t30 -10l29 -2v-33h-260v33l26 2q25 3 32.5 10t8.5 32q2 57 2 181q0 120 -2 171q-1 25 -8 32t-31 9l-28 3
v33z" />
    <glyph glyph-name="Iacutesmall" unicode="&#xf7ed;" horiz-adv-x="333" 
d="M193 730h106q12 0 14.5 -8.5t-8.5 -16.5l-185 -164l-33 13zM36 506h261v-33l-27 -3q-24 -3 -31.5 -10t-8.5 -31q-3 -73 -3 -172q0 -140 2 -180q1 -24 8 -32t30 -10l29 -2v-33h-260v33l26 2q25 3 32.5 10t8.5 32q2 57 2 181q0 120 -2 171q-1 25 -8 32t-31 9l-28 3v33z" />
    <glyph glyph-name="Icircumflexsmall" unicode="&#xf7ee;" horiz-adv-x="333" 
d="M36 506h261v-33l-27 -3q-24 -3 -31.5 -10t-8.5 -31q-3 -73 -3 -172q0 -140 2 -180q1 -24 8 -32t30 -10l29 -2v-33h-260v33l26 2q25 3 32.5 10t8.5 32q2 57 2 181q0 120 -2 171q-1 25 -8 32t-31 9l-28 3v33zM20 560l101 163q13 19 44 19q34 0 44 -16l103 -166l-27 -13
l-121 103l-117 -103z" />
    <glyph glyph-name="Idieresissmall" unicode="&#xf7ef;" horiz-adv-x="333" 
d="M36 506h261v-33l-27 -3q-24 -3 -31.5 -10t-8.5 -31q-3 -73 -3 -172q0 -140 2 -180q1 -24 8 -32t30 -10l29 -2v-33h-260v33l26 2q25 3 32.5 10t8.5 32q2 57 2 181q0 120 -2 171q-1 25 -8 32t-31 9l-28 3v33zM4 630q0 23 16.5 39.5t38.5 16.5q24 0 40.5 -16.5t16.5 -39.5
t-16.5 -40t-40.5 -17q-22 0 -38.5 17t-16.5 40zM214 630q0 23 16.5 39.5t40.5 16.5q22 0 38.5 -16.5t16.5 -39.5t-16.5 -40t-38.5 -17q-24 0 -40.5 16.5t-16.5 40.5z" />
    <glyph glyph-name="Ethsmall" unicode="&#xf7f0;" horiz-adv-x="626" 
d="M45 506h242q155 0 229.5 -64.5t74.5 -175.5q0 -121 -82 -193.5t-231 -72.5h-233v33l26 2q25 3 32 10.5t8 31.5q2 48 2 166h-81v49h81q0 102 -2 137q-1 24 -8 31t-31 10l-27 3v33zM235 292h88v-49h-88q0 -104 2 -157q1 -24 12 -31t47 -7q71 0 116 56.5t45 155.5
q0 104 -39 150.5t-134 46.5q-34 0 -44 -2q-5 -63 -5 -163z" />
    <glyph glyph-name="Ntildesmall" unicode="&#xf7f1;" horiz-adv-x="606" 
d="M184 558l-34 8q1 59 28.5 101t70.5 42q30 0 75 -33.5t63 -33.5q22 0 36 16t15 49l33 -4q-1 -60 -26.5 -100t-68.5 -40q-36 0 -77 32.5t-60 32.5q-53 0 -55 -70zM25 506h217q7 -10 98.5 -153.5t120.5 -182.5q1 37 1 111q0 122 -1 155q-1 34 -31 35l-32 2v33h185v-33
l-29 -2q-19 -2 -25.5 -8.5t-7.5 -26.5q-3 -94 -3 -275v-166h-89q-141 224 -279 416q-3 -85 -3 -160q0 -149 1 -183q1 -32 32 -33l30 -2v-33h-185v33l30 2q19 2 25 8t7 25q3 94 3 185t-3 183q-1 20 -7.5 26.5t-24.5 8.5l-30 2v33z" />
    <glyph glyph-name="Ogravesmall" unicode="&#xf7f2;" horiz-adv-x="634" 
d="M211 730h106l106 -176l-33 -13l-185 164q-11 8 -8.5 16.5t14.5 8.5zM40 250q0 113 83 192.5t206 79.5q117 0 191 -80t74 -186q0 -113 -82.5 -192.5t-202.5 -79.5q-117 0 -193 77t-76 189zM319 473q-64 0 -103 -61.5t-39 -161.5q0 -94 38 -156t104 -62q64 0 102.5 61
t38.5 163q0 91 -36 154t-105 63z" />
    <glyph glyph-name="Oacutesmall" unicode="&#xf7f3;" horiz-adv-x="634" 
d="M330 730h106q12 0 14.5 -8.5t-8.5 -16.5l-185 -164l-33 13zM40 250q0 113 83 192.5t206 79.5q117 0 191 -80t74 -186q0 -113 -82.5 -192.5t-202.5 -79.5q-117 0 -193 77t-76 189zM319 473q-64 0 -103 -61.5t-39 -161.5q0 -94 38 -156t104 -62q64 0 102.5 61t38.5 163
q0 91 -36 154t-105 63z" />
    <glyph glyph-name="Ocircumflexsmall" unicode="&#xf7f4;" horiz-adv-x="634" 
d="M40 250q0 113 83 192.5t206 79.5q117 0 191 -80t74 -186q0 -113 -82.5 -192.5t-202.5 -79.5q-117 0 -193 77t-76 189zM319 473q-64 0 -103 -61.5t-39 -161.5q0 -94 38 -156t104 -62q64 0 102.5 61t38.5 163q0 91 -36 154t-105 63zM171 554l101 163q13 19 44 19
q34 0 44 -16l103 -166l-27 -13l-121 103l-117 -103z" />
    <glyph glyph-name="Otildesmall" unicode="&#xf7f5;" horiz-adv-x="634" 
d="M190 558l-34 8q1 59 28.5 101t70.5 42q30 0 75 -33.5t63 -33.5q22 0 36 16t15 49l33 -4q-1 -60 -26.5 -100t-68.5 -40q-36 0 -77 32.5t-60 32.5q-53 0 -55 -70zM40 250q0 113 83 192.5t206 79.5q117 0 191 -80t74 -186q0 -113 -82.5 -192.5t-202.5 -79.5q-117 0 -193 77
t-76 189zM319 473q-64 0 -103 -61.5t-39 -161.5q0 -94 38 -156t104 -62q64 0 102.5 61t38.5 163q0 91 -36 154t-105 63z" />
    <glyph glyph-name="Odieresissmall" unicode="&#xf7f6;" horiz-adv-x="634" 
d="M40 250q0 113 83 192.5t206 79.5q117 0 191 -80t74 -186q0 -113 -82.5 -192.5t-202.5 -79.5q-117 0 -193 77t-76 189zM319 473q-64 0 -103 -61.5t-39 -161.5q0 -94 38 -156t104 -62q64 0 102.5 61t38.5 163q0 91 -36 154t-105 63zM156 630q0 23 16.5 39.5t38.5 16.5
q24 0 40.5 -16.5t16.5 -39.5t-16.5 -40t-40.5 -17q-22 0 -38.5 17t-16.5 40zM366 630q0 23 16.5 39.5t40.5 16.5q22 0 38.5 -16.5t16.5 -39.5t-16.5 -40t-38.5 -17q-24 0 -40.5 16.5t-16.5 40.5z" />
    <glyph glyph-name="Oslashsmall" unicode="&#xf7f8;" horiz-adv-x="624" 
d="M530 543l49 -26l-65 -75q75 -78 75 -186q0 -113 -82.5 -192.5t-202.5 -79.5q-82 0 -147 41l-61 -70l-48 26l65 77q-78 75 -78 192q0 113 83 192.5t206 79.5q83 0 149 -45zM187 143l231 270q-40 60 -104 60t-104 -61.5t-40 -161.5q0 -66 17 -107zM442 357l-231 -268
q41 -57 103 -57q64 0 104 61t40 163q0 61 -16 101z" />
    <glyph glyph-name="Ugravesmall" unicode="&#xf7f9;" horiz-adv-x="591" 
d="M190 730h106l106 -176l-33 -13l-185 164q-11 8 -8.5 16.5t14.5 8.5zM20 506h254v-33l-32 -2q-18 -1 -24 -8t-7 -27q-5 -97 -5 -268q0 -60 33.5 -89t84.5 -29q49 0 83.5 26.5t34.5 80.5q0 218 -2 279q-1 19 -7.5 26t-25.5 9l-31 2v33h195v-33l-31 -2q-19 -1 -25 -8.5
t-7 -26.5q-5 -84 -5 -292q0 -77 -60 -118.5t-143 -41.5q-88 0 -152 42t-64 118q0 224 -1 292q-1 20 -8 26.5t-26 8.5l-29 2v33z" />
    <glyph glyph-name="Uacutesmall" unicode="&#xf7fa;" horiz-adv-x="591" 
d="M332 730h106q12 0 14.5 -8.5t-8.5 -16.5l-185 -164l-33 13zM20 506h254v-33l-32 -2q-18 -1 -24 -8t-7 -27q-5 -97 -5 -268q0 -60 33.5 -89t84.5 -29q49 0 83.5 26.5t34.5 80.5q0 218 -2 279q-1 19 -7.5 26t-25.5 9l-31 2v33h195v-33l-31 -2q-19 -1 -25 -8.5t-7 -26.5
q-5 -84 -5 -292q0 -77 -60 -118.5t-143 -41.5q-88 0 -152 42t-64 118q0 224 -1 292q-1 20 -8 26.5t-26 8.5l-29 2v33z" />
    <glyph glyph-name="Ucircumflexsmall" unicode="&#xf7fb;" horiz-adv-x="591" 
d="M20 506h254v-33l-32 -2q-18 -1 -24 -8t-7 -27q-5 -97 -5 -268q0 -60 33.5 -89t84.5 -29q49 0 83.5 26.5t34.5 80.5q0 218 -2 279q-1 19 -7.5 26t-25.5 9l-31 2v33h195v-33l-31 -2q-19 -1 -25 -8.5t-7 -26.5q-5 -84 -5 -292q0 -77 -60 -118.5t-143 -41.5q-88 0 -152 42
t-64 118q0 224 -1 292q-1 20 -8 26.5t-26 8.5l-29 2v33zM162 554l101 163q13 19 44 19q34 0 44 -16l103 -166l-27 -13l-121 103l-117 -103z" />
    <glyph glyph-name="Udieresissmall" unicode="&#xf7fc;" horiz-adv-x="591" 
d="M20 506h254v-33l-32 -2q-18 -1 -24 -8t-7 -27q-5 -97 -5 -268q0 -60 33.5 -89t84.5 -29q49 0 83.5 26.5t34.5 80.5q0 218 -2 279q-1 19 -7.5 26t-25.5 9l-31 2v33h195v-33l-31 -2q-19 -1 -25 -8.5t-7 -26.5q-5 -84 -5 -292q0 -77 -60 -118.5t-143 -41.5q-88 0 -152 42
t-64 118q0 224 -1 292q-1 20 -8 26.5t-26 8.5l-29 2v33zM146 630q0 23 16.5 39.5t38.5 16.5q24 0 40.5 -16.5t16.5 -39.5t-16.5 -40t-40.5 -17q-22 0 -38.5 17t-16.5 40zM356 630q0 23 16.5 39.5t40.5 16.5q22 0 38.5 -16.5t16.5 -39.5t-16.5 -40t-38.5 -17
q-24 0 -40.5 16.5t-16.5 40.5z" />
    <glyph glyph-name="Yacutesmall" unicode="&#xf7fd;" horiz-adv-x="552" 
d="M338 730h106q12 0 14.5 -8.5t-8.5 -16.5l-185 -164l-33 13zM-9 506h258v-34l-23 -2q-26 -2 -26 -13q0 -10 14 -34q35 -63 96 -153q61 88 100 158q10 18 10 27q0 12 -31 15l-21 2v34h193v-33l-22 -3q-27 -1 -63 -55q-100 -148 -137 -198q0 -91 3 -140q1 -25 7.5 -32.5
t30.5 -9.5l31 -2v-33h-264v33l28 2q25 3 32.5 10t8.5 32q2 51 2 138q-69 96 -137 204q-31 47 -68 51l-22 2v34z" />
    <glyph glyph-name="Thornsmall" unicode="&#xf7fe;" horiz-adv-x="530" 
d="M31 506h261v-33l-27 -3q-24 -3 -31.5 -10t-8.5 -31q-1 -7 -1 -24h70q108 0 157.5 -42t49.5 -108q0 -65 -50.5 -110t-142.5 -45q-55 0 -86 6q0 -5 0.5 -15t1.5 -14q1 -24 8 -32t30 -10l29 -2v-33h-260v33l26 2q25 3 32.5 10t8.5 32q2 57 2 181q0 120 -2 171q-1 25 -8 32
t-31 9l-28 3v33zM222 257v-102q21 -5 54 -5q101 0 101 103q0 50 -24 78.5t-86 28.5q-32 0 -44 -2q-1 -34 -1 -101z" />
    <glyph glyph-name="Ydieresissmall" unicode="&#xf7ff;" horiz-adv-x="552" 
d="M-9 506h258v-34l-23 -2q-26 -2 -26 -13q0 -10 14 -34q35 -63 96 -153q61 88 100 158q10 18 10 27q0 12 -31 15l-21 2v34h193v-33l-22 -3q-27 -1 -63 -55q-100 -148 -137 -198q0 -91 3 -140q1 -25 7.5 -32.5t30.5 -9.5l31 -2v-33h-264v33l28 2q25 3 32.5 10t8.5 32
q2 51 2 138q-69 96 -137 204q-31 47 -68 51l-22 2v34zM137 630q0 23 16.5 39.5t38.5 16.5q24 0 40.5 -16.5t16.5 -39.5t-16.5 -40t-40.5 -17q-22 0 -38.5 17t-16.5 40zM347 630q0 23 16.5 39.5t40.5 16.5q22 0 38.5 -16.5t16.5 -39.5t-16.5 -40t-38.5 -17q-24 0 -40.5 16.5
t-16.5 40.5z" />
    <glyph glyph-name="longs_t" unicode="&#xfb05;" horiz-adv-x="694" 
d="M321 437v39q48 2 81 34.5t33 82.5q0 89 -91 89q-121 0 -123 -161q-2 -104 -2 -242q0 -135 2 -190q1 -31 9 -40.5t38 -12.5l42 -3v-33h-288v33l21 3q32 5 41 13.5t10 39.5q2 65 2 186q0 27 -0.5 104.5t-0.5 104.5q0 58 25.5 106.5t66 77.5t87.5 45t93 16q167 0 167 -153
q0 -14 -1.5 -42.5t-1.5 -44.5h141v-52h-142q-2 -102 -2 -166q0 -91 3 -149q3 -52 59 -52q47 0 72 37l24 -23q-33 -50 -79 -75t-92 -25q-53 0 -83.5 27t-30.5 80q0 24 1 85t1 96q0 113 -1 165h-81z" />
    </font>
</defs>
</svg>
